<svg xmlns="http://www.w3.org/2000/svg" viewBox="0 0 591.396 591.396"><path d="M300.786 40.8c0-2.856-2.244-5.1-5.1-5.1-19.584 0-35.7 16.116-35.7 35.7 0 2.856 2.244 5.1 5.1 5.1s5.1-2.244 5.1-5.1c0-14.076 11.424-25.5 25.5-25.5 2.856 0 5.1-2.244 5.1-5.1z"/><path d="M568.638 371.688l-60.792-101.184c-1.632-2.856-4.896-4.692-8.16-4.692s-6.528 1.836-8.16 4.692l-61.2 102c-1.836 2.856-1.836 6.528-.204 9.588 1.632 3.06 4.896 4.896 8.364 4.896h51c-2.04 107.304-39.984 116.076-91.596 128.112-29.376 6.732-62.22 14.28-91.8 40.8V183.6h51c5.712 0 10.2-4.488 10.2-10.2s-4.488-10.2-10.2-10.2h-51v-21.216c34.476-4.896 61.2-34.68 61.2-70.584 0-39.372-32.028-71.4-71.4-71.4s-71.4 32.028-71.4 71.4c0 35.904 26.724 65.688 61.2 70.584V163.2h-51c-5.712 0-10.2 4.488-10.2 10.2s4.488 10.2 10.2 10.2h51v372.096c-29.58-26.52-62.424-34.068-91.8-40.8-51.816-12.036-89.556-20.604-91.596-128.112h51c5.304 0 9.588-4.284 9.588-9.588 0-2.04-.612-4.08-1.836-5.508l-61.2-101.184c-1.632-2.856-4.896-4.692-8.16-4.692-3.264 0-6.528 1.836-8.16 4.692l-61.2 102c-1.836 2.856-1.836 6.528-.204 9.588s4.896 4.896 8.364 4.896H81.69c2.448 123.624 53.448 135.456 107.508 147.9 33.864 7.752 69.156 15.912 98.736 52.836l.204.204 1.224 1.224c.408.408.816.612 1.224.816.204 0 .204.204.408.204.408.204.816.408 1.428.612h.204c.408.204.816.204 1.224.408h.408c.408 0 1.02.204 1.428.204.408 0 1.02 0 1.428-.204h.408c.408 0 1.02-.204 1.428-.408l1.224-.612c.204 0 .204-.204.408-.204.408-.204.612-.408 1.02-.612 0 0 .204 0 .204-.204.408-.204.816-.612 1.02-1.02l.204-.204.408-.408c29.58-36.924 64.668-45.084 98.736-52.836 54.06-12.444 105.06-24.276 107.508-147.9h51.204c5.304 0 9.588-4.284 9.588-9.588 0-2.04-.612-3.876-1.836-5.508zM244.686 71.4c0-28.152 22.848-51 51-51s51 22.848 51 51-22.848 51-51 51-51-22.848-51-51zm-153 222.36l44.472 74.052h-40.8c-1.02-.408-2.244-.612-3.672-.612s-2.448.204-3.672.612h-40.8l44.472-74.052zm411.672 74.052c-1.02-.408-2.244-.612-3.672-.612s-2.448.204-3.672.612h-40.8l44.472-74.052 44.472 74.052h-40.8z"/><path d="M95.97 327.012c1.428-2.448.816-5.508-1.632-6.936s-5.508-.816-6.936 1.632l-20.4 32.64c-1.428 2.448-.816 5.508 1.632 6.936.816.612 1.836.816 2.652.816 1.632 0 3.264-.816 4.284-2.448l20.4-32.64zM495.402 321.504l-20.4 32.64c-1.428 2.448-.816 5.508 1.632 6.936.816.612 1.836.816 2.652.816 1.632 0 3.264-.816 4.284-2.448l20.4-32.64c1.428-2.448.816-5.508-1.632-6.936-2.244-1.428-5.508-.612-6.936 1.632z"/></svg>