<svg xmlns="http://www.w3.org/2000/svg" viewBox="0 0 591.462 591.462"><path d="M449.855 163.726c1.224 0 2.244-.408 3.264-1.224 2.243-1.836 2.447-5.1.61-7.14-39.37-46.92-97.307-74.052-158.507-74.052s-119.136 27.132-158.712 74.052c-1.835 2.244-1.427 5.304.613 7.14 2.244 1.836 5.304 1.632 7.14-.612 37.536-44.676 92.412-70.38 150.756-70.38s113.22 25.704 150.755 70.38c1.224 1.224 2.652 1.836 4.08 1.836z"/><path d="M83.063 344.674l64.26-97.92c2.04-3.06 2.244-7.14.408-10.404-1.835-3.264-5.303-5.304-8.975-5.304H84.083c18.36-85.068 87.516-152.184 173.604-167.28C361.115 45.61 462.3 103.954 498.203 202.69c1.836 5.304 7.752 7.956 13.056 6.12 5.303-1.836 7.955-7.752 6.12-13.056C478.006 87.838 367.44 23.782 254.22 43.774c-47.737 7.956-90.985 30.396-125.257 64.26-33.864 33.456-56.712 75.888-65.688 122.4v.408h-53.04c-3.672 0-7.14 2.04-8.976 5.304-1.837 3.264-1.633 7.344.407 10.404l64.26 97.92c1.836 2.856 5.1 4.692 8.568 4.692s6.732-1.632 8.568-4.488zm-53.856-93.432h90.78L74.7 320.398l-45.493-69.156zM145.69 429.538c-1.835-2.244-5.1-2.448-7.14-.612-2.243 1.836-2.447 5.1-.61 7.14 39.37 46.92 97.307 74.052 158.507 74.052s119.136-26.928 158.508-74.052c1.836-2.244 1.632-5.304-.612-7.14s-5.304-1.632-7.14.612c-37.536 44.676-92.412 70.38-150.756 70.38s-113.22-25.704-150.756-70.38z"/><path d="M589.595 344.062l-63.852-97.308c-1.836-2.856-5.1-4.692-8.568-4.692s-6.732 1.632-8.568 4.692l-64.26 97.92c-2.04 3.06-2.244 7.14-.408 10.404 1.835 3.264 5.303 5.304 8.975 5.304h54.672c-18.36 85.068-87.516 152.184-173.604 167.28-103.428 18.156-204.612-40.188-240.516-138.924-1.836-5.304-7.752-7.956-13.056-6.12-5.303 1.836-7.955 7.752-6.12 13.056 34.477 94.86 123.83 155.652 221.75 155.652 13.667 0 27.54-1.224 41.41-3.672 47.533-8.364 90.78-30.804 125.053-64.668 33.864-33.456 56.712-75.888 65.688-122.4v-.408h53.04c5.713 0 10.2-4.488 10.2-10.2.205-2.04-.61-4.08-1.835-5.916zm-117.912-3.876l45.288-69.156 45.29 69.156h-90.577z"/></svg>