<svg xmlns="http://www.w3.org/2000/svg" viewBox="0 0 591.6 591.6"><path d="M540.6 81.6H51c-28.152 0-51 22.848-51 51V459c0 28.152 22.848 51 51 51h489.6c28.152 0 51-22.848 51-51V132.6c0-28.152-22.848-51-51-51zM20.4 204h550.8v81.6H20.4V204zM51 102h489.6c16.932 0 30.6 13.668 30.6 30.6v51H20.4v-51c0-16.932 13.668-30.6 30.6-30.6zm489.6 387.6H51c-16.932 0-30.6-13.668-30.6-30.6V306h550.8v153c0 16.932-13.668 30.6-30.6 30.6z"/><path d="M520.2 448.8H397.8c-5.712 0-10.2 4.488-10.2 10.2s4.488 10.2 10.2 10.2h122.4c5.712 0 10.2-4.488 10.2-10.2s-4.488-10.2-10.2-10.2zM357 448.8H234.6c-5.712 0-10.2 4.488-10.2 10.2s4.488 10.2 10.2 10.2H357c5.712 0 10.2-4.488 10.2-10.2s-4.488-10.2-10.2-10.2zM51 137.7h489.6c2.856 0 5.1-2.244 5.1-5.1s-2.244-5.1-5.1-5.1H51c-2.856 0-5.1 2.244-5.1 5.1s2.244 5.1 5.1 5.1zM520.2 408H234.6c-5.712 0-10.2 4.488-10.2 10.2s4.488 10.2 10.2 10.2h285.6c5.712 0 10.2-4.488 10.2-10.2s-4.488-10.2-10.2-10.2z"/></svg>