<svg xmlns="http://www.w3.org/2000/svg" viewBox="0 0 601.865 601.865"><path d="M559.723 57.255C531.57 23.187 491.587 5.03 443.647 5.03c-67.32 0-105.264 29.785-125.256 54.877-7.75 9.588-13.463 19.38-17.543 27.744-4.08-8.567-9.792-18.155-17.544-27.743C263.31 34.815 225.367 5.03 158.047 5.03c-47.94 0-87.924 18.157-116.076 52.225C5.456 101.93-8.62 172.515 5.25 241.67c13.67 68.34 66.71 148.717 157.693 238.68C230.06 546.856 294.32 594.184 294.93 594.796c1.837 1.224 3.877 2.04 6.12 2.04 2.04 0 4.285-.612 6.12-2.04.613-.408 64.873-47.94 131.99-114.444 90.983-89.963 144.023-170.34 157.69-238.68 13.465-69.155-.61-139.74-37.127-184.415zM576.45 237.59C548.3 378.35 339.2 544.204 300.848 573.58 262.495 544.202 53.395 378.35 25.243 237.59c-12.648-63.24-.204-127.5 32.436-167.28 24.48-29.783 58.14-44.88 100.367-44.88 112.2 0 131.988 89.965 132.804 93.84 1.02 4.693 5.1 8.16 9.997 8.16 4.896 0 8.976-3.467 9.996-8.16.816-3.875 20.604-93.84 132.804-93.84 42.228 0 75.888 15.097 100.368 44.88 32.64 39.78 45.084 104.04 32.436 167.28z"/><path d="M166.207 43.79c-49.368 0-84.456 20.605-106.896 63.037-17.747 33.456-20.603 84.66-7.75 137.088 8.363 33.864 28.355 60.792 49.775 89.352 5.712 7.752 11.832 15.708 17.544 24.072 1.02 1.427 2.65 2.243 4.08 2.243 1.02 0 2.04-.204 2.855-1.02 2.244-1.632 2.856-4.896 1.224-7.14-5.917-8.364-12.037-16.524-17.75-24.276-20.603-27.54-40.187-53.652-47.94-85.68-9.383-38.556-12.647-93.024 6.937-129.744 20.808-39.372 52.02-57.732 97.92-57.732 2.856 0 5.1-2.243 5.1-5.1s-2.244-5.1-5.1-5.1z"/></svg>