<svg xmlns="http://www.w3.org/2000/svg" viewBox="0 0 591.6 591.6"><path d="M540.6 0H51C22.848 0 0 22.848 0 51v489.6c0 28.152 22.848 51 51 51h489.6c28.152 0 51-22.848 51-51V51c0-28.152-22.848-51-51-51zM20.4 51c0-16.932 13.668-30.6 30.6-30.6h489.6c16.932 0 30.6 13.668 30.6 30.6v319.872L425.748 207.264l-.204-.204-.204-.204c-.204-.204-.408-.204-.612-.408-.204-.204-.612-.408-.816-.612-.204-.204-.612-.408-.816-.612-.204-.204-.612-.408-.816-.408-.408-.204-.612-.204-1.02-.408-.204 0-.612-.204-.816-.204-.408 0-.612-.204-1.02-.204h-3.06s-.612.204-1.02.204-.612.204-.816.204c-.408.204-.612.204-1.02.408-.204.204-.612.204-.816.408-.204.204-.612.408-.816.612-.204.204-.408.204-.612.408l-.204.204-.204.204L215.22 403.104l-14.688-13.26c-4.08-3.672-10.2-3.468-14.076.408L24.276 555.084c-2.448-4.488-3.876-9.384-3.876-14.892V51zm19.176 517.956l154.632-157.08L371.28 571.2H51c-4.08 0-7.956-.816-11.424-2.244zM540.6 571.2H401.676l-171.36-154.224 187.272-187.884 153.408 172.584V540.6c.204 16.728-13.668 30.6-30.396 30.6z"/><circle cx="183.6" cy="183.6" r="51"/><path d="M59.16 227.46c2.856 0 5.1-2.244 5.1-5.1V64.26h158.1c2.856 0 5.1-2.244 5.1-5.1s-2.244-5.1-5.1-5.1H59.16c-2.856 0-5.1 2.244-5.1 5.1v163.2c0 2.856 2.244 5.1 5.1 5.1z"/></svg>