<svg xmlns="http://www.w3.org/2000/svg" viewBox="0 0 612 792"><path d="M611.608 334.75c-.826-4.407-3.857-8.264-8.265-9.917L18.996 90.93C13.76 89 7.976 90.1 4.118 93.96c-3.857 3.856-4.96 9.642-3.03 14.876L234.99 693.46c1.654 4.132 5.51 7.44 9.92 8.265.826.275 1.928.275 2.754.275 3.582 0 6.888-1.378 9.367-3.858L383.766 571.41 490.66 678.306c5.51 5.51 14.052 5.51 19.562 0l77.968-77.968c2.755-2.48 4.133-6.06 4.133-9.643s-1.653-7.163-4.133-9.643l-107.172-107.17L607.75 347.148c3.307-3.032 4.684-7.99 3.858-12.4zM452.09 464.24c-2.755 2.48-4.133 6.06-4.133 9.643s1.653 7.163 4.133 9.643l107.172 107.447-58.407 58.407-107.172-107.172c-5.51-5.51-14.05-5.51-19.56 0l-121.5 121.498L38.558 128.4l535.03 214.342L452.09 464.24zM103.025 189.01c3.582-1.378 7.44.276 9.092 3.857l153.18 382.677c1.38 3.582-.274 7.44-3.856 9.092-1.1.275-1.928.55-2.754.55-2.755 0-5.235-1.653-6.337-4.408L99.167 198.102c-1.378-3.582.275-7.44 3.857-9.092z"/></svg>