<svg xmlns="http://www.w3.org/2000/svg" viewBox="0 0 581.397 581.397"><path d="M96.898 443.697c-25.296 0-45.9 20.604-45.9 45.9 0 2.856 2.244 5.1 5.1 5.1s5.1-2.244 5.1-5.1c0-19.584 16.116-35.7 35.7-35.7 2.856 0 5.1-2.244 5.1-5.1s-2.244-5.1-5.1-5.1z"/><path d="M576.298 385.965V10.197c0-3.06-1.428-5.916-3.672-7.956-2.448-1.835-5.508-2.65-8.568-2.04l-387.6 81.6c-4.692 1.02-8.16 5.1-8.16 9.997V432.07c-16.932-20.81-42.636-34.273-71.4-34.273-50.592 0-91.8 41.208-91.8 91.8s41.208 91.8 91.8 91.8 91.8-41.208 91.8-91.8v-1.632V176.457l367.2-77.316v230.93c-16.932-20.81-42.636-34.273-71.4-34.273-50.592 0-91.8 41.208-91.8 91.8s41.208 91.8 91.8 91.8 91.8-41.208 91.8-91.8v-1.632zm-479.4 175.032c-39.372 0-71.4-32.028-71.4-71.4s32.028-71.4 71.4-71.4 71.4 32.028 71.4 71.4c0 39.372-32.028 71.4-71.4 71.4zm91.8-394.944V100.16l367.2-77.315v65.892l-367.2 77.316zm295.8 292.944c-39.372 0-71.4-32.028-71.4-71.4s32.028-71.4 71.4-71.4 71.4 32.028 71.4 71.4-32.028 71.4-71.4 71.4z"/><path d="M484.498 341.697c-25.296 0-45.9 20.604-45.9 45.9 0 2.856 2.244 5.1 5.1 5.1s5.1-2.244 5.1-5.1c0-19.584 16.116-35.7 35.7-35.7 2.856 0 5.1-2.244 5.1-5.1s-2.244-5.1-5.1-5.1z"/></svg>