<svg xmlns="http://www.w3.org/2000/svg" viewBox="0 0 591.6 591.6"><path d="M540.6 0H357c-5.712 0-10.2 4.488-10.2 10.2s4.488 10.2 10.2 10.2h173.4v550.8H357c-5.712 0-10.2 4.488-10.2 10.2s4.488 10.2 10.2 10.2h183.6c5.712 0 10.2-4.488 10.2-10.2V10.2c0-5.712-4.488-10.2-10.2-10.2zM447.168 301.512c.204-.204.204-.408.408-.816s.408-.612.612-1.02c.204-.408.204-.612.408-1.02 0-.204.204-.612.204-.816.204-.612.204-1.224.204-2.04 0-.612 0-1.428-.204-2.04 0-.204-.204-.612-.204-.816 0-.408-.204-.612-.408-1.02-.204-.408-.408-.612-.612-1.02-.204-.204-.204-.612-.408-.816-.408-.612-.816-1.02-1.224-1.632l-102-102c-4.08-4.08-10.404-4.08-14.484 0s-4.08 10.404 0 14.484l84.66 84.66H51c-5.712 0-10.2 4.488-10.2 10.2S45.288 306 51 306h363.12l-84.66 84.66c-4.08 4.08-4.08 10.404 0 14.484 2.04 2.04 4.692 3.06 7.14 3.06 2.448 0 5.304-1.02 7.14-3.06l102-102c.612-.612 1.02-1.224 1.428-1.632z"/></svg>