<svg xmlns="http://www.w3.org/2000/svg" viewBox="0 0 591.6 591.6"><path d="M295.8 0C132.6 0 0 132.6 0 295.8s132.6 295.8 295.8 295.8S591.6 459 591.6 295.8 459 0 295.8 0zm0 571.2c-151.776 0-275.4-123.624-275.4-275.4S144.024 20.4 295.8 20.4s275.4 123.624 275.4 275.4-123.624 275.4-275.4 275.4z"/><path d="M161.16 229.5c-2.856 0-5.1 2.244-5.1 5.1V357c0 2.856 2.244 5.1 5.1 5.1s5.1-2.244 5.1-5.1V234.6c0-2.856-2.244-5.1-5.1-5.1z"/><path d="M497.76 286.824l-197.268-102c-3.06-1.632-6.936-1.428-9.996.408s-4.896 5.1-4.896 8.772v65.076l-148.512-74.46c-3.06-1.632-6.936-1.428-9.996.408-3.06 1.836-4.896 5.1-4.896 8.772v204c0 3.468 1.836 6.732 4.896 8.772 1.632 1.02 3.468 1.428 5.304 1.428 1.632 0 3.06-.408 4.488-1.02l148.512-74.256V397.8c0 3.468 1.836 6.936 4.896 8.772 1.632 1.02 3.468 1.428 5.304 1.428 1.632 0 3.264-.408 4.692-1.224l197.268-102c3.468-1.836 5.508-5.304 5.508-8.976s-2.04-7.344-5.304-8.976zM142.8 381.276V210.324l142.8 71.4v28.152l-142.8 71.4zm163.2-.204V210.528L470.832 295.8 306 381.072z"/><path d="M324.36 362.1c2.856 0 5.1-2.244 5.1-5.1V234.6c0-2.856-2.244-5.1-5.1-5.1s-5.1 2.244-5.1 5.1V357c0 2.856 2.244 5.1 5.1 5.1z"/></svg>