<svg xmlns="http://www.w3.org/2000/svg" viewBox="0 0 591.396 591.396"><path d="M415.47 184.824c-4.895 2.856-6.73 8.976-3.875 13.872 27.132 48.348 27.336 146.268 0 194.004-2.856 4.896-1.02 11.22 3.876 13.872 1.633.816 3.265 1.428 5.1 1.428 3.47 0 6.937-1.836 8.773-5.1 30.6-53.652 30.6-159.732 0-213.996-2.652-5.1-8.976-6.732-13.872-4.08zM479.12 122.808c-5.508 1.428-8.772 6.936-7.344 12.444 28.56 111.384 28.56 210.528 0 321.3-1.428 5.508 1.836 11.016 7.344 12.444.816.204 1.632.408 2.652.408 4.488 0 8.772-3.06 9.792-7.752 29.58-114.24 29.58-216.444 0-331.5-1.43-5.508-6.936-8.772-12.444-7.344zM552.763 48.144c-1.632-5.508-7.14-8.568-12.648-6.936-5.508 1.632-8.568 7.14-6.936 12.648 48.96 172.38 48.96 332.724 0 504.492-1.633 5.508 1.63 11.016 6.935 12.648 1.02.204 1.836.408 2.856.408 4.49 0 8.57-2.856 9.793-7.344 49.98-175.848 49.98-339.66 0-515.916zM40.928 209.1c-2.856 0-5.1 2.244-5.1 5.1v163.2c0 2.856 2.244 5.1 5.1 5.1s5.1-2.244 5.1-5.1V214.2c0-2.856-2.244-5.1-5.1-5.1z"/><path d="M359.167 0c-83.436 0-153.612 32.232-202.98 93.024-13.056 16.116-24.276 33.864-33.66 52.836L8.084 184.212c-4.08 1.428-6.936 5.304-6.936 9.588v204c0 4.488 2.856 8.364 6.936 9.588l114.648 38.148c9.384 18.972 20.604 36.72 33.66 52.836 49.368 60.792 119.544 93.024 202.98 93.024 5.712 0 10.2-4.488 10.2-10.2V10.2C369.367 4.488 364.88 0 359.167 0zM21.344 390.456V201.144l90.168-29.988c-14.688 38.148-22.644 80.58-22.644 124.644s7.752 86.496 22.644 124.644l-90.168-29.988zm327.623 180.54c-164.424-5.508-239.7-145.248-239.7-275.196 0-72.42 22.236-139.944 62.832-189.924 43.247-53.448 104.243-82.824 176.867-85.272v550.392z"/><path d="M200.864 495.312c1.02 1.224 2.448 1.836 3.876 1.836 1.224 0 2.448-.408 3.264-1.224 2.04-1.836 2.448-5.1.408-7.14-43.86-51-68.34-119.544-68.34-192.984s24.276-141.984 68.544-192.78c1.836-2.04 1.632-5.304-.408-7.14-2.04-1.836-5.304-1.632-7.14.408-45.9 52.632-71.196 123.624-71.196 199.512s25.296 146.88 70.992 199.512z"/></svg>