<svg xmlns="http://www.w3.org/2000/svg" viewBox="0 0 591.6 591.6"><path d="M472.26 287.232L199.308 109.956c-3.06-2.04-7.14-2.244-10.404-.408-3.264 1.836-5.304 5.304-5.304 8.976v354.552c0 3.672 2.04 7.14 5.304 8.976 1.428.816 3.264 1.224 4.896 1.224 2.04 0 3.876-.612 5.508-1.632L472.26 304.368c2.856-1.836 4.692-5.1 4.692-8.568s-1.836-6.732-4.692-8.568zM204 454.308V137.292L447.984 295.8 204 454.308z"/><path d="M217.872 181.152l171.972 111.792c.816.612 1.836.816 2.856.816 1.632 0 3.264-.816 4.284-2.244 1.632-2.448.816-5.508-1.428-7.14L223.584 172.584c-2.448-1.632-5.508-.816-7.14 1.428-1.632 2.244-.816 5.508 1.428 7.14z"/><path d="M295.8 0C132.6 0 0 132.6 0 295.8s132.6 295.8 295.8 295.8S591.6 459 591.6 295.8 459 0 295.8 0zm0 571.2c-151.776 0-275.4-123.624-275.4-275.4S144.024 20.4 295.8 20.4s275.4 123.624 275.4 275.4-123.624 275.4-275.4 275.4z"/></svg>