<svg xmlns="http://www.w3.org/2000/svg" viewBox="0 0 591.6 591.6"><path d="M581.4 244.8H346.8V10.2c0-5.712-4.488-10.2-10.2-10.2H255c-5.712 0-10.2 4.488-10.2 10.2v234.6H10.2C4.488 244.8 0 249.288 0 255v81.6c0 5.712 4.488 10.2 10.2 10.2h234.6v234.6c0 5.712 4.488 10.2 10.2 10.2h81.6c5.712 0 10.2-4.488 10.2-10.2V346.8h234.6c5.712 0 10.2-4.488 10.2-10.2V255c0-5.712-4.488-10.2-10.2-10.2zm-10.2 81.6H336.6c-5.712 0-10.2 4.488-10.2 10.2v234.6h-61.2V336.6c0-5.712-4.488-10.2-10.2-10.2H20.4v-61.2H255c5.712 0 10.2-4.488 10.2-10.2V20.4h61.2V255c0 5.712 4.488 10.2 10.2 10.2h234.6v61.2z"/><path d="M303.96 33.66h-20.4c-2.856 0-5.1 2.244-5.1 5.1v204c0 2.856 2.244 5.1 5.1 5.1s5.1-2.244 5.1-5.1V43.86h15.3c2.856 0 5.1-2.244 5.1-5.1s-2.244-5.1-5.1-5.1z"/></svg>