<svg xmlns="http://www.w3.org/2000/svg" viewBox="0 0 591.6 591.6"><path d="M541.008 254.592c-20.4-20.4-44.88-35.088-71.808-43.248-.612-45.492-18.564-87.924-50.592-119.952C385.968 58.752 342.312 40.8 295.8 40.8s-89.964 17.952-122.808 50.592c-32.028 32.232-49.776 74.664-50.592 120.156-26.928 8.16-51.408 22.848-71.808 43.248C17.952 287.436 0 330.888 0 377.4s17.952 89.964 50.592 122.808c32.64 32.64 76.296 50.592 122.808 50.592h244.8c46.512 0 89.964-17.952 122.808-50.592 32.64-32.64 50.592-76.296 50.592-122.808s-17.952-89.964-50.592-122.808zM418.2 530.4H173.4c-84.456 0-153-68.544-153-153s68.544-153 153-153 153 68.544 153 153c0 5.712 4.488 10.2 10.2 10.2s10.2-4.488 10.2-10.2c0-95.676-77.724-173.4-173.4-173.4-1.836 0-3.876 0-5.712.204C176.664 136.476 234.6 84.66 303.96 84.66c2.856 0 5.1-2.244 5.1-5.1s-2.244-5.1-5.1-5.1c-75.072 0-137.904 56.508-146.676 130.356-4.896.408-9.588 1.02-14.28 1.836C146.88 125.868 213.996 61.2 295.8 61.2s148.92 64.668 152.796 145.452C438.6 204.816 428.4 204 418.2 204c-5.712 0-10.2 4.488-10.2 10.2s4.488 10.2 10.2 10.2c84.456 0 153 68.544 153 153s-68.544 153-153 153z"/><path d="M181.56 237.864c-81.396 0-147.696 66.3-147.696 147.696 0 2.856 2.244 5.1 5.1 5.1s5.1-2.244 5.1-5.1c0-75.888 61.812-137.496 137.496-137.496 2.856 0 5.1-2.244 5.1-5.1s-2.244-5.1-5.1-5.1z"/></svg>