<svg xmlns="http://www.w3.org/2000/svg" viewBox="0 0 591.804 591.804"><path d="M214.404 513.57c-21.012-1.428-61.2-6.528-94.248-25.296-25.5-14.484-57.528-39.372-64.056-61.608-.816-2.652-3.672-4.284-6.324-3.468-2.652.816-4.284 3.672-3.468 6.324 7.344 25.092 40.188 51.408 68.748 67.524 34.884 19.788 76.704 25.296 98.532 26.724h.408c2.652 0 4.896-2.04 5.1-4.692.204-2.856-2.04-5.304-4.692-5.508z"/><path d="M558.144 234.702c21.828-21.624 33.456-45.9 33.456-71.4 0-42.228-31.62-81.396-89.352-110.16-55.284-27.54-128.52-42.84-206.448-42.84s-151.164 15.3-206.448 42.84C31.62 81.906 0 121.074 0 163.302c0 25.5 11.628 49.98 33.66 71.604C11.832 256.53.204 281.214 0 306.102c0 21.624 8.364 42.432 24.276 61.608-.408.408-.816.612-1.02 1.02C7.956 387.702 0 407.694 0 428.502c0 42.228 31.62 81.396 89.352 110.16 55.284 27.744 128.724 42.84 206.448 42.84 77.928 0 151.164-15.3 206.448-42.84 57.528-28.764 89.352-67.932 89.352-110.16 0-20.808-7.752-40.8-23.052-59.772-.408-.408-.816-.816-1.02-1.224 15.912-18.972 24.276-39.78 24.276-61.404-.204-24.888-11.832-49.572-33.66-71.4zM20.4 163.302c0-34.068 27.744-66.708 77.928-91.8 52.632-26.316 122.808-40.8 197.472-40.8s144.84 14.484 197.472 40.8c50.184 25.092 77.928 57.732 77.928 91.8s-27.744 66.708-77.928 91.8c-52.632 26.316-122.604 40.8-197.472 40.8-74.664 0-144.84-14.484-197.472-40.8C48.144 230.01 20.4 197.37 20.4 163.302zm27.948 85.884c.204-.204.408-.612.612-.816 11.628 8.976 25.092 17.34 40.392 25.092 55.284 27.744 128.724 42.84 206.448 42.84 77.928 0 151.164-15.3 206.448-42.84 15.504-7.752 28.968-16.116 40.596-25.296.204.204.408.612.612.816 18.156 17.952 27.744 37.74 27.744 57.12 0 34.068-27.744 66.708-77.928 91.8-52.632 26.316-122.604 40.8-197.472 40.8-74.664 0-144.84-14.484-197.472-40.8C48.144 372.81 20.4 340.17 20.4 306.102c0-19.38 9.792-39.168 27.948-56.916zM571.2 428.502c0 34.068-27.744 66.708-77.928 91.8-52.632 26.316-122.604 40.8-197.472 40.8-74.664 0-144.84-14.484-197.472-40.8C48.144 495.21 20.4 462.57 20.4 428.502c0-15.708 6.12-31.212 17.952-46.308 13.668 12.444 30.6 23.664 50.796 33.864 55.284 27.744 128.724 42.84 206.448 42.84 77.928 0 151.164-15.3 206.448-42.84 20.196-10.2 37.332-21.624 50.796-33.864 12.24 15.096 18.36 30.6 18.36 46.308zM115.056 374.646c34.884 19.788 76.704 25.296 98.532 26.724h.408c2.652 0 4.896-2.04 5.1-4.692.204-2.856-2.04-5.304-4.692-5.508-21.012-1.428-61.2-6.528-94.248-25.296-25.5-14.484-57.528-39.372-64.056-61.608-.816-2.652-3.672-4.284-6.324-3.468-2.652.816-4.284 3.672-3.468 6.324 7.344 25.092 40.392 51.408 68.748 67.524z"/></svg>