<svg xmlns="http://www.w3.org/2000/svg" viewBox="0 0 591.6 591.6"><path d="M300.9 40.8c0-2.856-2.244-5.1-5.1-5.1-19.584 0-35.7 16.116-35.7 35.7 0 2.856 2.244 5.1 5.1 5.1s5.1-2.244 5.1-5.1c0-14.076 11.424-25.5 25.5-25.5 2.856 0 5.1-2.244 5.1-5.1zM260.1 520.2c0 2.856 2.244 5.1 5.1 5.1s5.1-2.244 5.1-5.1c0-14.076 11.424-25.5 25.5-25.5 2.856 0 5.1-2.244 5.1-5.1 0-2.856-2.244-5.1-5.1-5.1-19.584 0-35.7 16.116-35.7 35.7zM35.7 520.2c0 2.856 2.244 5.1 5.1 5.1s5.1-2.244 5.1-5.1c0-14.076 11.424-25.5 25.5-25.5 2.856 0 5.1-2.244 5.1-5.1 0-2.856-2.244-5.1-5.1-5.1-19.584 0-35.7 16.116-35.7 35.7z"/><path d="M530.4 449.616V295.8c0-5.712-4.488-10.2-10.2-10.2H306V141.984c34.476-4.896 61.2-34.68 61.2-70.584 0-39.372-32.028-71.4-71.4-71.4s-71.4 32.028-71.4 71.4c0 35.904 26.724 65.688 61.2 70.584V285.6H71.4c-5.712 0-10.2 4.488-10.2 10.2v153.816C26.724 454.512 0 484.296 0 520.2c0 39.372 32.028 71.4 71.4 71.4s71.4-32.028 71.4-71.4c0-35.904-26.724-65.688-61.2-70.584V306h204v143.616c-34.476 4.896-61.2 34.68-61.2 70.584 0 39.372 32.028 71.4 71.4 71.4s71.4-32.028 71.4-71.4c0-35.904-26.724-65.688-61.2-70.584V306h204v143.616c-34.476 4.896-61.2 34.68-61.2 70.584 0 39.372 32.028 71.4 71.4 71.4 39.372 0 71.4-32.028 71.4-71.4 0-35.904-26.724-65.688-61.2-70.584zM244.8 71.4c0-28.152 22.848-51 51-51s51 22.848 51 51-22.848 51-51 51-51-22.848-51-51zM122.4 520.2c0 28.152-22.848 51-51 51s-51-22.848-51-51 22.848-51 51-51 51 22.848 51 51zm224.4 0c0 28.152-22.848 51-51 51s-51-22.848-51-51 22.848-51 51-51 51 22.848 51 51zm173.4 51c-28.152 0-51-22.848-51-51s22.848-51 51-51 51 22.848 51 51-22.848 51-51 51z"/><path d="M520.2 484.5c-19.584 0-35.7 16.116-35.7 35.7 0 2.856 2.244 5.1 5.1 5.1 2.856 0 5.1-2.244 5.1-5.1 0-14.076 11.424-25.5 25.5-25.5 2.856 0 5.1-2.244 5.1-5.1 0-2.856-2.244-5.1-5.1-5.1z"/></svg>