<svg xmlns="http://www.w3.org/2000/svg" viewBox="0 0 591.498 591.498"><path d="M588.897 289.017C495.465 185.18 396.933 132.55 295.75 132.55S96.032 185.18 2.6 289.016c-3.467 3.876-3.467 9.792 0 13.668C96.034 406.317 194.566 458.95 295.75 458.95s199.715-52.633 293.147-156.47c3.468-3.875 3.468-9.587 0-13.463zM295.75 438.55c-92.82 0-184.417-47.94-271.73-142.8 87.517-94.86 178.91-142.8 271.73-142.8s184.415 47.94 271.727 142.8c-87.312 94.86-178.908 142.8-271.728 142.8z"/><path d="M295.75 183.55c-61.813 0-112.2 50.387-112.2 112.2s50.387 112.2 112.2 112.2 112.2-50.39 112.2-112.2-50.39-112.2-112.2-112.2zm0 204c-50.593 0-91.8-41.21-91.8-91.8s41.207-91.8 91.8-91.8 91.8 41.207 91.8 91.8-41.21 91.8-91.8 91.8z"/><path d="M300.237 222.31c-.204-2.857-2.856-4.897-5.712-4.49-41.616 4.49-74.052 37.945-77.112 79.56-.204 2.857 1.836 5.305 4.692 5.51h.408c2.652 0 4.896-2.04 5.1-4.693 2.856-36.72 31.416-66.3 68.136-70.38 2.855-.204 4.895-2.856 4.487-5.508z"/><circle cx="295.749" cy="295.749" r="20.4"/></svg>