<svg xmlns="http://www.w3.org/2000/svg" viewBox="0 0 591.704 591.704"><path d="M590.045 126.94l-81.6-122.4c-2.04-2.856-5.1-4.488-8.568-4.488h-408c-3.468 0-6.528 1.632-8.568 4.488l-81.6 122.4c-2.245 3.264-2.245 7.752-.205 11.22l285.6 448.8c1.836 2.856 5.1 4.692 8.568 4.692s6.732-1.836 8.568-4.692l285.6-448.8c2.45-3.468 2.45-7.752.205-11.22zm-289.068 10.812h147.9l-147.9 414.324V137.752zm0-10.2v-107.1H490.9l-38.35 107.1H300.976zm-10.2 0H139.205l-38.352-107.1h189.924v107.1zm0 10.2v414.324l-147.9-414.324h147.9zm-22.644 381.072L25.577 137.752H131.86l136.273 381.072zM459.69 137.752h106.283L323.62 518.824l136.07-381.072zm106.08-10.2H463.36l35.7-99.96 66.71 99.96zM92.692 27.592l35.7 99.96H25.985l66.708-99.96z"/></svg>