<svg xmlns="http://www.w3.org/2000/svg" viewBox="0 0 576.504 576.504"><path d="M461.652 173.4c0-95.676-77.724-173.4-173.4-173.4s-173.4 77.724-173.4 173.4c0 52.836 23.868 100.368 61.404 132.192l20.4 175.032c3.06 25.704 19.38 44.676 41.412 48.96 2.04 15.912 8.976 26.316 15.096 32.436 9.384 9.384 21.828 14.484 35.292 14.484 23.052 0 46.512-16.116 50.388-46.92 21.828-4.284 38.352-23.256 41.412-48.96l20.4-175.032c37.128-32.028 60.996-79.356 60.996-132.192zm-326.4 0c0-84.456 68.544-153 153-153s153 68.544 153 153c0 70.584-48.144 130.356-113.424 147.696 20.808-26.928 54.468-76.704 46.92-108.12-2.856-11.628-13.26-24.276-25.296-24.276-6.936 0-12.648 5.916-17.952 11.832-3.264 3.672-7.956 8.568-10.608 8.568-2.856 0-8.772-5.1-12.852-8.976-6.732-5.916-13.056-11.424-19.788-11.424s-13.056 5.508-19.788 11.424c-4.284 3.672-9.996 8.976-12.852 8.976-2.652 0-7.14-4.896-10.608-8.568-5.304-5.916-11.016-11.832-17.952-11.832-12.036 0-22.644 12.648-25.296 24.276-7.344 31.416 26.112 81.192 46.92 108.12-65.28-17.544-113.424-77.112-113.424-147.696zm129.132 150.96c-22.032-26.928-59.364-80.376-52.632-109.14 1.836-7.752 8.772-16.524 15.504-16.524 2.652 0 7.14 4.896 10.608 8.568 5.304 5.916 11.016 11.832 17.952 11.832 6.732 0 13.056-5.508 19.788-11.424 4.284-3.672 9.996-8.976 12.852-8.976s8.772 5.1 12.852 8.976c6.732 5.916 13.056 11.424 19.788 11.424 6.936 0 12.648-5.916 17.952-11.832 3.264-3.672 7.956-8.568 10.608-8.568 6.528 0 13.668 8.772 15.504 16.524 7.344 31.212-35.292 87.516-52.836 109.14-7.752 1.224-15.708 1.836-23.868 1.836-8.364.204-16.32-.612-24.072-1.836zm23.868 231.54c-12.852 0-25.908-7.956-29.58-25.5h59.16c-3.672 17.34-16.728 25.5-29.58 25.5zm71.4-77.724c-1.836 15.3-12.036 31.824-30.6 31.824h-81.6c-18.564 0-28.968-16.524-30.6-31.824l-18.156-156.468c26.112 15.912 56.916 25.092 89.76 25.092s63.444-9.18 89.76-25.092l-18.564 156.468z"/><path d="M186.252 158.1c2.856 0 5.1-2.244 5.1-5.1 0-42.228 34.272-76.5 76.5-76.5 2.856 0 5.1-2.244 5.1-5.1s-2.244-5.1-5.1-5.1c-47.736 0-86.7 38.964-86.7 86.7 0 2.652 2.244 5.1 5.1 5.1zM326.808 433.908l-81.6 40.8c-2.448 1.224-3.468 4.284-2.244 6.936.816 1.836 2.652 2.856 4.488 2.856.816 0 1.632-.204 2.244-.612l81.6-40.8c2.448-1.224 3.468-4.284 2.244-6.936-1.224-2.448-4.284-3.468-6.732-2.244zM326.808 393.108l-81.6 40.8c-2.448 1.224-3.468 4.284-2.244 6.936.816 1.836 2.652 2.856 4.488 2.856.816 0 1.632-.204 2.244-.612l81.6-40.8c2.448-1.224 3.468-4.284 2.244-6.936-1.224-2.448-4.284-3.468-6.732-2.244zM242.964 400.044c.816 1.836 2.652 2.856 4.488 2.856.816 0 1.632-.204 2.244-.612l81.6-40.8c2.448-1.224 3.468-4.284 2.244-6.936-1.224-2.448-4.284-3.468-6.936-2.244l-81.6 40.8c-2.448 1.224-3.468 4.284-2.04 6.936z"/></svg>