<svg xmlns="http://www.w3.org/2000/svg" viewBox="0 0 591.6 591.6"><path d="M234.6 571.2H61.2V20.4h173.4c5.712 0 10.2-4.488 10.2-10.2S240.312 0 234.6 0H51c-5.712 0-10.2 4.488-10.2 10.2v571.2c0 5.712 4.488 10.2 10.2 10.2h183.6c5.712 0 10.2-4.488 10.2-10.2s-4.692-10.2-10.2-10.2z"/><path d="M549.984 299.676c.204-.408.204-.612.408-1.02 0-.204.204-.612.204-.816.204-.612.204-1.224.204-2.04 0-.612 0-1.428-.204-2.04 0-.204-.204-.612-.204-.816 0-.408-.204-.612-.408-1.02-.204-.408-.408-.612-.612-1.02-.204-.204-.204-.612-.408-.816-.408-.612-.816-1.02-1.224-1.632l-102-102c-4.08-4.08-10.404-4.08-14.484 0s-4.08 10.404 0 14.484l84.66 84.66H153c-5.712 0-10.2 4.488-10.2 10.2S147.288 306 153 306h362.916l-84.66 84.66c-4.08 4.08-4.08 10.404 0 14.484 2.04 2.04 4.692 3.06 7.14 3.06 2.448 0 5.304-1.02 7.14-3.06l102-102c.408-.408.816-1.02 1.224-1.632.204-.204.204-.408.408-.816.408-.408.612-.612.816-1.02z"/></svg>