<svg xmlns="http://www.w3.org/2000/svg" viewBox="0 0 591.396 591.396"><path d="M110.11 209.1c-2.857 0-5.1 2.244-5.1 5.1v163.2c0 2.856 2.243 5.1 5.1 5.1s5.1-2.244 5.1-5.1V214.2c0-2.856-2.245-5.1-5.1-5.1z"/><path d="M428.35 0c-83.437 0-153.817 32.232-202.98 93.024-13.057 16.116-24.277 33.864-33.66 52.836L77.06 184.212c-4.08 1.428-6.935 5.304-6.935 9.588v204c0 4.488 2.856 8.364 6.936 9.588l114.65 38.148c9.383 18.972 20.603 36.72 33.66 52.836 49.367 60.792 119.543 93.024 202.98 93.024 5.71 0 10.2-4.488 10.2-10.2V10.2c0-5.712-4.693-10.2-10.2-10.2zM90.524 390.456V201.144l90.168-29.988C165.8 209.304 158.05 251.736 158.05 295.8s7.75 86.496 22.643 124.644l-90.168-29.988zm327.624 180.54c-164.63-5.508-239.7-145.248-239.7-275.196 0-72.42 22.235-139.944 62.83-189.924 43.25-53.448 104.245-82.824 176.87-85.272v550.392z"/><path d="M270.045 495.312c1.02 1.224 2.448 1.836 3.876 1.836 1.225 0 2.45-.408 3.265-1.224 2.04-1.836 2.448-5.1.408-7.14-44.268-50.796-68.544-119.34-68.544-192.78s24.275-141.984 68.543-192.78c1.836-2.04 1.632-5.304-.408-7.14-2.04-1.836-5.304-1.632-7.14.408-45.696 52.632-70.992 123.624-70.992 199.512 0 75.684 25.092 146.676 70.992 199.308zM498.32 188.7c-2.855-4.896-8.975-6.732-13.87-3.876-4.897 2.856-6.733 8.976-3.877 13.872 27.132 48.348 27.336 146.268 0 194.004-2.856 4.896-1.02 11.22 3.876 13.872 1.63.816 3.263 1.428 5.1 1.428 3.467 0 6.935-1.836 8.77-5.1 30.6-53.652 30.6-159.732 0-214.2z"/></svg>