<svg xmlns="http://www.w3.org/2000/svg" viewBox="0 0 479.4 479.4"><path d="M193.8 66.3c-36.516 0-66.3 29.58-66.3 66.3 0 2.856 2.244 5.1 5.1 5.1s5.1-2.244 5.1-5.1c0-31.008 25.092-56.1 56.1-56.1 2.856 0 5.1-2.244 5.1-5.1s-2.244-5.1-5.1-5.1z"/><path d="M377.4 285.6c-12.24 0-23.052 5.304-30.6 13.872-7.548-8.568-18.36-13.872-30.6-13.872-12.24 0-23.052 5.304-30.6 13.872-7.548-8.568-18.36-13.872-30.6-13.872-7.344 0-14.484 2.04-20.4 5.508V258.06c1.224 0 2.244-.204 3.468-.612C290.904 238.68 326.4 188.496 326.4 132.6 326.4 59.568 266.832 0 193.8 0S61.2 59.568 61.2 132.6c0 56.1 35.496 106.08 88.332 124.848 1.224.408 2.244.612 3.468.612V469.2c0 5.712 4.488 10.2 10.2 10.2s10.2-4.488 10.2-10.2V204c0-11.22 9.18-20.4 20.4-20.4 11.22 0 20.4 9.18 20.4 20.4v163.2c0 5.712 4.488 10.2 10.2 10.2s10.2-4.488 10.2-10.2v-40.8c0-11.22 9.18-20.4 20.4-20.4s20.4 9.18 20.4 20.4v40.8c0 5.712 4.488 10.2 10.2 10.2s10.2-4.488 10.2-10.2v-40.8c0-11.22 9.18-20.4 20.4-20.4s20.4 9.18 20.4 20.4v40.8c0 5.712 4.488 10.2 10.2 10.2s10.2-4.488 10.2-10.2v-40.8c0-11.22 9.18-20.4 20.4-20.4s20.4 9.18 20.4 20.4v142.8c0 5.712 4.488 10.2 10.2 10.2s10.2-4.488 10.2-10.2V326.4c0-22.644-18.36-40.8-40.8-40.8zM193.8 163.2c-22.44 0-40.8 18.36-40.8 40.8v33.048c-42.84-16.728-71.4-58.14-71.4-104.448 0-61.812 50.388-112.2 112.2-112.2S306 70.788 306 132.6c0 46.104-28.56 87.72-71.4 104.448V204c0-22.644-18.36-40.8-40.8-40.8z"/></svg>