<svg xmlns="http://www.w3.org/2000/svg" viewBox="0 0 591.396 591.396"><path d="M470.526 275.808h-61.2c-5.712 0-10.2 4.488-10.2 10.2s4.488 10.2 10.2 10.2h61.2c5.712 0 10.2-4.488 10.2-10.2s-4.692-10.2-10.2-10.2zM572.526 275.808h-61.2c-5.712 0-10.2 4.488-10.2 10.2s4.488 10.2 10.2 10.2h61.2c5.712 0 10.2-4.488 10.2-10.2s-4.692-10.2-10.2-10.2zM48.45 209.1c-2.856 0-5.1 2.244-5.1 5.1v163.2c0 2.856 2.244 5.1 5.1 5.1s5.1-2.244 5.1-5.1V214.2c0-2.856-2.244-5.1-5.1-5.1z"/><path d="M366.69 0c-83.436 0-153.612 32.232-202.98 93.024-13.056 16.116-24.276 33.864-33.66 52.836L15.606 184.212c-4.08 1.428-6.936 5.304-6.936 9.588v204c0 4.488 2.856 8.364 6.936 9.588l114.648 38.148c9.384 18.972 20.604 36.72 33.66 52.836 49.368 60.792 119.544 93.024 202.98 93.024 5.712 0 10.2-4.488 10.2-10.2V10.2C376.89 4.488 372.402 0 366.69 0zM28.866 390.456V201.144l90.168-29.988C104.346 209.304 96.39 251.736 96.39 295.8s7.752 86.496 22.644 124.644l-90.168-29.988zm327.624 180.54c-164.424-5.508-239.7-145.248-239.7-275.196 0-72.42 22.236-139.944 62.832-189.924C222.87 52.428 283.866 23.052 356.49 20.604v550.392z"/><path d="M208.386 495.312c1.02 1.224 2.448 1.836 3.876 1.836 1.224 0 2.448-.408 3.264-1.224 2.04-1.836 2.448-5.1.408-7.14-43.86-51-68.34-119.544-68.34-192.984s24.276-141.984 68.544-192.78c1.836-2.04 1.632-5.304-.408-7.14-2.04-1.836-5.304-1.632-7.14.408-45.9 52.632-71.196 123.624-71.196 199.512s25.296 146.88 70.992 199.512z"/></svg>