<svg xmlns="http://www.w3.org/2000/svg" viewBox="0 0 591.6 591.6"><path d="M540.6 122.708H510v-30.6c0-15.912-7.548-32.028-19.584-42.024-9.792-8.16-21.624-11.22-33.456-8.772L49.776 122.708C22.236 123.32 0 145.964 0 173.708v326.4c0 28.152 22.848 51 51 51h489.6c28.152 0 51-22.848 51-51v-326.4c0-28.152-22.848-51-51-51zm-79.56-61.404c7.14-1.428 13.056 1.632 16.524 4.692 7.344 6.12 12.036 16.32 12.036 26.112v30.6H154.02l307.02-61.404zm79.56 469.404H51c-16.932 0-30.6-13.668-30.6-30.6v-326.4c0-16.932 13.668-30.6 30.6-30.6h489.6c16.932 0 30.6 13.668 30.6 30.6v51H336.6c-5.712 0-10.2 4.488-10.2 10.2v204c0 5.712 4.488 10.2 10.2 10.2h234.6v51c0 16.932-13.668 30.6-30.6 30.6zm30.6-285.6v183.6H346.8v-183.6h224.4z"/><path d="M193.8 168.608H51c-2.856 0-5.1 2.244-5.1 5.1v122.4c0 2.856 2.244 5.1 5.1 5.1s5.1-2.244 5.1-5.1v-117.3h137.7c2.856 0 5.1-2.244 5.1-5.1s-2.244-5.1-5.1-5.1zM453.9 387.908c28.152 0 51-22.848 51-51s-22.848-51-51-51-51 22.848-51 51 22.848 51 51 51zm0-81.6c16.932 0 30.6 13.668 30.6 30.6s-13.668 30.6-30.6 30.6-30.6-13.668-30.6-30.6 13.668-30.6 30.6-30.6z"/><path d="M437.58 346.088c2.856 0 5.1-2.244 5.1-5.1 0-8.364 6.936-15.3 15.3-15.3 2.856 0 5.1-2.244 5.1-5.1s-2.244-5.1-5.1-5.1c-14.076 0-25.5 11.424-25.5 25.5 0 2.856 2.244 5.1 5.1 5.1z"/></svg>