<svg xmlns="http://www.w3.org/2000/svg" viewBox="0 0 591.54 591.54"><path d="M591.384 477.538l-81.6-428.4c-.612-3.468-3.06-6.324-6.528-7.752-3.264-1.224-7.14-.612-9.792 1.632l-489.6 387.6c-3.468 2.856-4.896 7.752-3.06 11.832 1.632 4.284 6.12 6.732 10.608 6.324l177.48-19.788 78.132 117.3c1.836 2.652 4.692 4.284 7.956 4.488h.612c3.06 0 5.916-1.428 7.752-3.672l97.716-117.3 197.472 59.364c3.468 1.02 7.14.204 9.792-2.244 2.448-2.448 3.672-5.916 3.06-9.384zM448.38 104.626L195.42 408.178c-.612 0-1.224-.204-1.632-.204h-1.224L44.256 424.498 448.38 104.626zm-78.744 307.02l-93.228 111.996-72.828-109.14L486.324 75.046 375.348 408.178c-2.244.408-4.284 1.632-5.712 3.468zm15.912-1.632L495.096 81.166l73.032 383.724-182.58-54.876z"/><path d="M492.444 170.926c-2.856.612-4.692 3.264-4.08 5.916l48.552 259.08c.408 2.448 2.652 4.08 5.1 4.08h1.02c2.856-.612 4.692-3.264 4.08-5.916l-48.552-259.08c-.612-2.856-3.264-4.692-6.12-4.08z"/></svg>