<svg xmlns="http://www.w3.org/2000/svg" viewBox="0 0 591.6 591.6"><path d="M155.244 489.6H28.356C12.648 489.6 0 503.268 0 520.2V561c0 16.932 12.648 30.6 28.356 30.6h126.888c15.708 0 28.356-13.668 28.356-30.6v-40.8c0-16.932-12.648-30.6-28.356-30.6zM163.2 561c0 5.508-3.672 10.2-7.956 10.2H28.356c-4.284 0-7.956-4.692-7.956-10.2v-40.8c0-5.508 3.672-10.2 7.956-10.2h126.888c4.284 0 7.956 4.692 7.956 10.2V561zM155.244 367.2H28.356C12.648 367.2 0 380.868 0 397.8v40.8c0 16.932 12.648 30.6 28.356 30.6h126.888c15.708 0 28.356-13.668 28.356-30.6v-40.8c0-16.932-12.648-30.6-28.356-30.6zm7.956 71.4c0 5.508-3.672 10.2-7.956 10.2H28.356c-4.284 0-7.956-4.692-7.956-10.2v-40.8c0-5.508 3.672-10.2 7.956-10.2h126.888c4.284 0 7.956 4.692 7.956 10.2v40.8zM155.244 244.8H28.356C12.648 244.8 0 258.468 0 275.4v40.8c0 16.932 12.648 30.6 28.356 30.6h126.888c15.708 0 28.356-13.668 28.356-30.6v-40.8c0-16.932-12.648-30.6-28.356-30.6zm7.956 71.4c0 5.508-3.672 10.2-7.956 10.2H28.356c-4.284 0-7.956-4.692-7.956-10.2v-40.8c0-5.508 3.672-10.2 7.956-10.2h126.888c4.284 0 7.956 4.692 7.956 10.2v40.8zM155.244 122.4H28.356C12.648 122.4 0 136.068 0 153v40.8c0 16.932 12.648 30.6 28.356 30.6h126.888c15.708 0 28.356-13.668 28.356-30.6V153c0-16.932-12.648-30.6-28.356-30.6zm7.956 71.4c0 5.508-3.672 10.2-7.956 10.2H28.356c-4.284 0-7.956-4.692-7.956-10.2V153c0-5.508 3.672-10.2 7.956-10.2h126.888c4.284 0 7.956 4.692 7.956 10.2v40.8zM359.244 489.6H232.356c-15.708 0-28.356 13.668-28.356 30.6V561c0 16.932 12.648 30.6 28.356 30.6h126.888c15.708 0 28.356-13.668 28.356-30.6v-40.8c0-16.932-12.648-30.6-28.356-30.6zM367.2 561c0 5.508-3.672 10.2-7.956 10.2H232.356c-4.284 0-7.956-4.692-7.956-10.2v-40.8c0-5.508 3.672-10.2 7.956-10.2h126.888c4.284 0 7.956 4.692 7.956 10.2V561zM359.244 367.2H232.356c-15.708 0-28.356 13.668-28.356 30.6v40.8c0 16.932 12.648 30.6 28.356 30.6h126.888c15.708 0 28.356-13.668 28.356-30.6v-40.8c0-16.932-12.648-30.6-28.356-30.6zm7.956 71.4c0 5.508-3.672 10.2-7.956 10.2H232.356c-4.284 0-7.956-4.692-7.956-10.2v-40.8c0-5.508 3.672-10.2 7.956-10.2h126.888c4.284 0 7.956 4.692 7.956 10.2v40.8zM563.244 489.6H436.356c-15.708 0-28.356 13.668-28.356 30.6V561c0 16.932 12.648 30.6 28.356 30.6h126.888c15.708 0 28.356-13.668 28.356-30.6v-40.8c0-16.932-12.648-30.6-28.356-30.6zM571.2 561c0 5.508-3.672 10.2-7.956 10.2H436.356c-4.284 0-7.956-4.692-7.956-10.2v-40.8c0-5.508 3.672-10.2 7.956-10.2h126.888c4.284 0 7.956 4.692 7.956 10.2V561zM563.244 367.2H436.356c-15.708 0-28.356 13.668-28.356 30.6v40.8c0 16.932 12.648 30.6 28.356 30.6h126.888c15.708 0 28.356-13.668 28.356-30.6v-40.8c0-16.932-12.648-30.6-28.356-30.6zm7.956 71.4c0 5.508-3.672 10.2-7.956 10.2H436.356c-4.284 0-7.956-4.692-7.956-10.2v-40.8c0-5.508 3.672-10.2 7.956-10.2h126.888c4.284 0 7.956 4.692 7.956 10.2v40.8zM563.244 244.8H436.356c-15.708 0-28.356 13.668-28.356 30.6v40.8c0 16.932 12.648 30.6 28.356 30.6h126.888c15.708 0 28.356-13.668 28.356-30.6v-40.8c0-16.932-12.648-30.6-28.356-30.6zm7.956 71.4c0 5.508-3.672 10.2-7.956 10.2H436.356c-4.284 0-7.956-4.692-7.956-10.2v-40.8c0-5.508 3.672-10.2 7.956-10.2h126.888c4.284 0 7.956 4.692 7.956 10.2v40.8zM563.244 122.4H436.356C420.648 122.4 408 136.068 408 153v40.8c0 16.932 12.648 30.6 28.356 30.6h126.888c15.708 0 28.356-13.668 28.356-30.6V153c0-16.932-12.648-30.6-28.356-30.6zm7.956 71.4c0 5.508-3.672 10.2-7.956 10.2H436.356c-4.284 0-7.956-4.692-7.956-10.2V153c0-5.508 3.672-10.2 7.956-10.2h126.888c4.284 0 7.956 4.692 7.956 10.2v40.8zM563.244 0H436.356C420.648 0 408 13.668 408 30.6v40.8c0 16.932 12.648 30.6 28.356 30.6h126.888c15.708 0 28.356-13.668 28.356-30.6V30.6c0-16.932-12.648-30.6-28.356-30.6zm7.956 71.4c0 5.508-3.672 10.2-7.956 10.2H436.356c-4.284 0-7.956-4.692-7.956-10.2V30.6c0-5.508 3.672-10.2 7.956-10.2h126.888c4.284 0 7.956 4.692 7.956 10.2v40.8z"/><path d="M153 151.98H30.6c-2.856 0-5.1 2.244-5.1 5.1s2.244 5.1 5.1 5.1H153c2.856 0 5.1-2.244 5.1-5.1s-2.244-5.1-5.1-5.1zM357 396.78H234.6c-2.856 0-5.1 2.244-5.1 5.1s2.244 5.1 5.1 5.1H357c2.856 0 5.1-2.244 5.1-5.1s-2.244-5.1-5.1-5.1zM561 29.58H438.6c-2.856 0-5.1 2.244-5.1 5.1s2.244 5.1 5.1 5.1H561c2.856 0 5.1-2.244 5.1-5.1s-2.244-5.1-5.1-5.1z"/></svg>