<svg xmlns="http://www.w3.org/2000/svg" viewBox="0 0 591.6 591.6"><path d="M295.8 102c5.712 0 10.2-4.488 10.2-10.2V10.2C306 4.488 301.512 0 295.8 0s-10.2 4.488-10.2 10.2v81.6c0 5.712 4.488 10.2 10.2 10.2zM295.8 489.6c-5.712 0-10.2 4.488-10.2 10.2v81.6c0 5.712 4.488 10.2 10.2 10.2s10.2-4.488 10.2-10.2v-81.6c0-5.712-4.488-10.2-10.2-10.2zM581.4 285.6h-81.6c-5.712 0-10.2 4.488-10.2 10.2s4.488 10.2 10.2 10.2h81.6c5.712 0 10.2-4.488 10.2-10.2s-4.488-10.2-10.2-10.2zM102 295.8c0-5.712-4.488-10.2-10.2-10.2H10.2c-5.712 0-10.2 4.488-10.2 10.2S4.488 306 10.2 306h81.6c5.712 0 10.2-4.488 10.2-10.2zM447.168 432.888c-4.08-4.08-10.404-4.08-14.484 0s-4.08 10.404 0 14.484l57.732 57.732c2.04 2.04 4.692 3.06 7.14 3.06s5.304-1.02 7.14-3.06c4.08-4.08 4.08-10.404 0-14.484l-57.528-57.732zM144.432 158.712c2.04 2.04 4.692 3.06 7.14 3.06s5.304-1.02 7.14-3.06c4.08-4.08 4.08-10.404 0-14.484L100.98 86.7c-4.08-4.08-10.404-4.08-14.484 0s-4.08 10.404 0 14.484l57.936 57.528zM144.432 432.888L86.7 490.62c-4.08 4.08-4.08 10.404 0 14.484 2.04 2.04 4.692 3.06 7.14 3.06 2.652 0 5.304-1.02 7.14-3.06l57.732-57.732c4.08-4.08 4.08-10.404 0-14.484-3.876-4.08-10.404-4.08-14.28 0zM440.028 161.772c2.652 0 5.304-1.02 7.14-3.06L504.9 100.98c4.08-4.08 4.08-10.404 0-14.484s-10.404-4.08-14.484 0l-57.732 57.732c-4.08 4.08-4.08 10.404 0 14.484 2.244 2.04 4.692 3.06 7.344 3.06zM295.8 142.8c-84.456 0-153 68.544-153 153s68.544 153 153 153 153-68.544 153-153-68.544-153-153-153zm0 285.6c-73.032 0-132.6-59.568-132.6-132.6s59.568-132.6 132.6-132.6 132.6 59.568 132.6 132.6-59.568 132.6-132.6 132.6z"/><path d="M303.96 186.66c-64.668 0-117.3 52.632-117.3 117.3 0 2.856 2.244 5.1 5.1 5.1s5.1-2.244 5.1-5.1c0-58.956 48.144-107.1 107.1-107.1 2.856 0 5.1-2.244 5.1-5.1s-2.244-5.1-5.1-5.1z"/></svg>