<svg xmlns="http://www.w3.org/2000/svg" viewBox="0 0 591.6 591.6"><path d="M588.093 247.248l-285.6-244.8c-3.876-3.264-9.384-3.264-13.26 0l-285.6 244.8c-3.264 2.856-4.488 7.344-2.856 11.22 1.632 3.876 5.1 6.732 9.384 6.732h71.4v275.4c0 .816 0 1.428.205 2.244 6.732 30.6 25.704 48.756 50.796 48.756h81.6c5.713 0 10.2-4.488 10.2-10.2V420.852c4.49-7.14 24.48-33.252 71.4-33.252 47.125 0 66.71 26.112 71.4 33.252V581.4c0 5.712 4.49 10.2 10.2 10.2h81.6c28.153 0 51-22.848 51-51V265.2h71.4c4.285 0 8.16-2.652 9.59-6.732 1.427-4.08.203-8.364-2.857-11.22zM499.76 244.8c-5.71 0-10.2 4.488-10.2 10.2v285.6c0 16.932-13.667 30.6-30.6 30.6h-71.4v-153c0-1.632-.407-3.06-1.02-4.488-1.02-2.04-24.07-46.512-90.78-46.512s-89.76 44.472-90.78 46.512c-.61 1.428-1.02 3.06-1.02 4.488v153h-71.4c-20.603 0-28.15-21.42-30.6-31.824V255c0-5.712-4.487-10.2-10.2-10.2H37.7L295.76 23.664 553.82 244.8h-54.06z"/><path d="M244.76 193.8c0 28.152 22.85 51 51 51s51-22.848 51-51-22.847-51-51-51-51 22.848-51 51zm81.6 0c0 16.932-13.667 30.6-30.6 30.6s-30.6-13.668-30.6-30.6 13.67-30.6 30.6-30.6 30.6 13.668 30.6 30.6z"/><path d="M274.34 197.88c0 2.856 2.245 5.1 5.1 5.1s5.1-2.244 5.1-5.1c0-8.364 6.937-15.3 15.3-15.3 2.857 0 5.1-2.244 5.1-5.1s-2.243-5.1-5.1-5.1c-14.075 0-25.5 11.424-25.5 25.5z"/></svg>