<svg xmlns="http://www.w3.org/2000/svg" viewBox="0 0 612 612"><path d="M604.722 372.347c-14.978 67.72-53.162 128.898-107.17 172.356C443.337 587.95 375.407 612 306 612s-137.336-23.84-191.553-67.297-92.19-104.637-107.17-172.356S.95 233.112 31.54 170.88C62.127 108.644 113.813 58.224 176.68 28.9c5.275-2.532 11.604-.21 13.924 5.063 2.532 5.274.21 11.603-5.063 13.923C63.606 104.848-1.37 236.278 27.953 367.706S171.406 590.904 306 590.904s248.935-91.768 278.048-223.198S548.395 104.848 426.46 47.888c-5.274-2.532-7.595-8.65-5.063-13.923s8.65-7.595 13.923-5.063c62.867 29.324 114.34 79.744 145.142 141.977 30.59 62.232 39.238 133.748 24.26 201.467zM253.26 224.04V52.74C253.26 23.627 276.887 0 306 0s52.74 23.628 52.74 52.74v171.3c0 29.114-23.628 52.74-52.74 52.74s-52.74-23.626-52.74-52.74zm21.096.212c0 17.51 14.134 31.644 31.644 31.644s31.644-14.134 31.644-31.644v-171.3c0-17.51-14.134-31.645-31.644-31.645S274.356 35.44 274.356 52.95v171.302zm18.986 2.743c2.953 0 5.274-2.532 5.274-5.274V52.95c0-2.952-2.32-5.273-5.274-5.273s-5.274 2.32-5.274 5.274v168.77c0 2.954 2.32 5.275 5.274 5.275z"/></svg>