<svg xmlns="http://www.w3.org/2000/svg" viewBox="0 0 581.092 581.092"><path d="M453.696 489.65c0-8.364 6.936-15.3 15.3-15.3 2.856 0 5.1-2.244 5.1-5.1s-2.244-5.1-5.1-5.1c-14.076 0-25.5 11.424-25.5 25.5 0 2.856 2.244 5.1 5.1 5.1s5.1-2.244 5.1-5.1z"/><path d="M243.168 457.214l47.94-79.764h198.288c4.08 0 7.956-2.448 9.384-6.324l81.6-204c1.224-3.06.816-6.324-.816-9.18-1.632-2.652-4.488-4.488-7.752-4.896l-466.14-40.596-65.076-48.96c0-.816.204-1.632.204-2.448 0-11.22-9.18-20.4-20.4-20.4S0 49.826 0 61.046s9.18 20.4 20.4 20.4c2.856 0 5.508-.612 7.956-1.632l64.872 48.756 80.58 241.74c1.428 4.08 5.304 6.936 9.588 6.936h84.048l-40.188 66.912c-6.936-3.672-14.892-5.712-23.256-5.712-28.152 0-51 22.848-51 51s22.848 51 51 51c24.684 0 45.288-17.544 49.98-40.8h165.24c4.692 23.256 25.296 40.8 49.98 40.8 28.152 0 51-22.848 51-51s-22.848-51-51-51c-24.684 0-45.288 17.544-49.98 40.8H253.98c-1.836-8.16-5.712-15.708-10.812-22.032zm-126.684-323.34l440.028 38.352-73.848 184.824h-291.72l-74.46-223.176zM468.996 459.05c16.932 0 30.6 13.668 30.6 30.6s-13.668 30.6-30.6 30.6c-16.932 0-30.6-13.668-30.6-30.6s13.668-30.6 30.6-30.6zm-265.2 61.2c-16.932 0-30.6-13.668-30.6-30.6s13.668-30.6 30.6-30.6 30.6 13.668 30.6 30.6-13.668 30.6-30.6 30.6z"/><path d="M203.796 464.15c-14.076 0-25.5 11.424-25.5 25.5 0 2.856 2.244 5.1 5.1 5.1s5.1-2.244 5.1-5.1c0-8.364 6.936-15.3 15.3-15.3 2.856 0 5.1-2.244 5.1-5.1s-2.244-5.1-5.1-5.1zM306.204 175.286l-150.96-13.056c-1.632-.204-3.468.612-4.488 1.836-1.02 1.428-1.428 3.06-.816 4.692l32.64 97.92c.612 2.04 2.652 3.468 4.896 3.468.612 0 1.02 0 1.632-.204 2.652-.816 4.08-3.876 3.264-6.528l-30.192-90.372 143.208 12.444c2.856.204 5.304-1.836 5.508-4.692.204-2.652-1.836-5.1-4.692-5.508z"/></svg>