<svg xmlns="http://www.w3.org/2000/svg" viewBox="0 0 591.6 591.6"><path d="M541.008 227.868c-20.4-20.4-44.88-35.088-71.808-43.248-.612-45.492-18.564-87.924-50.592-119.952-32.64-32.64-76.296-50.592-122.808-50.592s-89.964 17.952-122.808 50.592c-32.028 32.028-49.776 74.664-50.592 120.156-26.928 8.16-51.408 22.848-71.808 43.248C17.952 260.508 0 304.164 0 350.676s17.952 89.964 50.592 122.808c32.64 32.64 76.296 50.592 122.808 50.592 5.712 0 10.2-4.488 10.2-10.2s-4.488-10.2-10.2-10.2c-84.456 0-153-68.544-153-153s68.544-153 153-153 153 68.544 153 153c0 5.712 4.488 10.2 10.2 10.2s10.2-4.488 10.2-10.2c0-95.676-77.724-173.4-173.4-173.4-1.836 0-3.876 0-5.712.204C176.664 109.548 234.6 57.936 303.96 57.936c2.856 0 5.1-2.244 5.1-5.1s-2.244-5.1-5.1-5.1c-75.276 0-137.904 56.508-146.676 130.356-4.896.408-9.588 1.02-14.28 1.836C146.88 98.94 213.996 34.476 295.8 34.476s148.92 64.668 152.796 145.452c-9.996-1.836-19.992-2.652-30.396-2.652-5.712 0-10.2 4.488-10.2 10.2s4.488 10.2 10.2 10.2c84.456 0 153 68.544 153 153s-68.544 153-153 153c-5.712 0-10.2 4.488-10.2 10.2 0 5.712 4.488 10.2 10.2 10.2 46.512 0 89.964-17.952 122.808-50.592 32.64-32.64 50.592-76.296 50.592-122.808s-17.952-90.168-50.592-122.808z"/><path d="M181.56 210.936c-81.396 0-147.696 66.3-147.696 147.696 0 2.856 2.244 5.1 5.1 5.1s5.1-2.244 5.1-5.1c0-75.888 61.812-137.496 137.496-137.496 2.856 0 5.1-2.244 5.1-5.1s-2.244-5.1-5.1-5.1zM362.304 457.572l-94.86 94.86-38.148-37.536c-4.08-3.876-10.404-3.876-14.484.204-3.876 4.08-3.876 10.404.204 14.484l45.492 44.676c.204.204.612.408.816.816l.612.612 1.224.612c.204.204.408.204.612.408.408.204.816.204 1.428.408.204 0 .408.204.612.204.612.204 1.224.204 1.836.204.612 0 1.224 0 2.04-.204.204 0 .408-.204.612-.204.408-.204.816-.204 1.428-.408.204 0 .408-.204.612-.408.408-.204.816-.408 1.02-.612l.612-.612c.204-.204.612-.408.816-.612l102-102c4.08-4.08 4.08-10.404 0-14.484-4.08-4.284-10.608-4.284-14.484-.408z"/></svg>