<svg xmlns="http://www.w3.org/2000/svg" viewBox="0 0 591.6 591.6"><path d="M541.008 213.894c-20.4-20.4-44.88-35.088-71.808-43.248-.612-45.492-18.564-87.924-50.592-119.952C385.764 18.054 342.312.102 295.8.102s-89.964 17.952-122.808 50.592c-32.028 32.028-49.776 74.664-50.592 119.952-26.928 8.16-51.408 22.848-71.808 43.248C17.952 246.534 0 290.19 0 336.702s17.952 89.964 50.592 122.808c32.64 32.64 76.296 50.592 122.808 50.592 5.712 0 10.2-4.488 10.2-10.2s-4.488-10.2-10.2-10.2c-84.456 0-153-68.544-153-153s68.544-153 153-153 153 68.544 153 153c0 5.712 4.488 10.2 10.2 10.2s10.2-4.488 10.2-10.2c0-95.676-77.724-173.4-173.4-173.4-1.836 0-3.876 0-5.712.204C176.664 95.574 234.6 43.962 303.96 43.962c2.856 0 5.1-2.244 5.1-5.1s-2.244-5.1-5.1-5.1c-75.276 0-137.904 56.508-146.676 130.356-4.896.408-9.588 1.02-14.28 1.836C146.88 84.966 213.996 20.502 295.8 20.502S444.72 85.17 448.596 165.954c-9.996-1.836-19.992-2.652-30.396-2.652-5.712 0-10.2 4.488-10.2 10.2s4.488 10.2 10.2 10.2c84.456 0 153 68.544 153 153s-68.544 153-153 153c-5.712 0-10.2 4.488-10.2 10.2s4.488 10.2 10.2 10.2c46.512 0 89.964-17.952 122.808-50.592 32.64-32.64 50.592-76.296 50.592-122.808s-17.952-90.168-50.592-122.808z"/><path d="M181.56 196.962c-81.396 0-147.696 66.3-147.696 147.696 0 2.856 2.244 5.1 5.1 5.1s5.1-2.244 5.1-5.1c0-75.888 61.812-137.496 137.496-137.496 2.856 0 5.1-2.244 5.1-5.1s-2.244-5.1-5.1-5.1zM351.288 532.134L306 562.326V397.902c0-5.712-4.488-10.2-10.2-10.2s-10.2 4.488-10.2 10.2V562.53l-45.288-30.192c-4.692-3.06-11.016-1.836-14.076 2.856-3.06 4.692-1.836 11.016 2.856 14.076l60.996 40.596h.204c.408.204.612.408 1.02.612.204 0 .204.204.408.204 0 0 .204 0 .204.204.204 0 .408.204.612.204s.408.204.612.204.408 0 .408.204h4.08c.204 0 .408 0 .408-.204.204 0 .408-.204.612-.204s.408-.204.612-.204c0 0 .204 0 .204-.204.204 0 .204-.204.408-.204.408-.204.612-.408 1.02-.612h.204L362.1 549.27c4.692-3.06 5.916-9.384 2.856-14.076-3.06-4.692-8.976-6.12-13.668-3.06z"/></svg>