<svg xmlns="http://www.w3.org/2000/svg" viewBox="0 0 591.6 591.6"><path d="M295.8 0C132.6 0 0 132.6 0 295.8s132.6 295.8 295.8 295.8S591.6 459 591.6 295.8 459 0 295.8 0zm0 571.2c-151.776 0-275.4-123.624-275.4-275.4S144.024 20.4 295.8 20.4s275.4 123.624 275.4 275.4-123.624 275.4-275.4 275.4z"/><path d="M309.06 48.96c0-2.856-2.244-5.1-5.1-5.1-143.412 0-260.1 116.688-260.1 260.1 0 2.856 2.244 5.1 5.1 5.1s5.1-2.244 5.1-5.1c0-137.7 112.2-249.9 249.9-249.9 2.856 0 5.1-2.244 5.1-5.1zM542.64 282.54c-2.856 0-5.1 2.244-5.1 5.1 0 137.7-112.2 249.9-249.9 249.9-2.856 0-5.1 2.244-5.1 5.1 0 2.856 2.244 5.1 5.1 5.1 143.412 0 260.1-116.688 260.1-260.1 0-2.856-2.244-5.1-5.1-5.1zM296.208 367.2c18.972 0 36.72-7.548 50.184-20.808 13.872-13.872 20.808-31.824 20.808-49.98 0-.204.204-.204.204-.408l82.212-139.944c2.448-4.08 1.632-9.18-1.632-12.444-3.264-3.264-8.364-3.876-12.444-1.632L295.8 224.196c-.204 0-.204.204-.204.204-18.972 0-36.72 7.548-50.184 20.808-13.872 13.872-20.808 32.028-20.808 50.184 0 .204-.204.204-.204.408l-82.212 139.944c-2.448 4.08-1.632 9.18 1.632 12.444 2.04 2.04 4.488 3.06 7.14 3.06 1.836 0 3.468-.408 5.1-1.428l139.944-82.212c0-.204 0-.408.204-.408zm64.668-100.572c-3.468-7.752-8.364-14.892-14.688-21.216-6.324-6.324-13.464-11.22-21.216-14.688l87.108-51.204-51.204 87.108zm-101.184-6.936c9.588-9.588 22.44-14.892 36.108-14.892s26.52 5.304 36.108 14.892c19.788 19.788 19.788 52.224 0 72.216-9.588 9.588-22.44 14.892-36.108 14.892s-26.52-5.304-36.108-14.892c-19.788-19.992-19.788-52.224 0-72.216zm-28.968 65.28c3.468 7.752 8.364 14.892 14.688 21.216 6.324 6.324 13.464 11.22 21.216 14.688L179.52 412.08l51.204-87.108z"/><circle cx="295.8" cy="295.8" r="20.4"/></svg>