<svg xmlns="http://www.w3.org/2000/svg" viewBox="0 0 591.6 591.6"><path d="M561 183.6h-11.22v-51c0-28.152-22.848-51-51-51H51c-28.152 0-51 22.848-51 51V459c0 28.152 22.848 51 51 51h447.78c28.152 0 51-22.848 51-51v-51H561c16.932 0 30.6-13.668 30.6-30.6V214.2c0-16.932-13.668-30.6-30.6-30.6zM529.38 459c0 16.932-13.668 30.6-30.6 30.6H51c-16.932 0-30.6-13.668-30.6-30.6V132.6c0-16.932 13.668-30.6 30.6-30.6h447.78c16.932 0 30.6 13.668 30.6 30.6V459zm41.82-81.6c0 5.712-4.488 10.2-10.2 10.2h-11.22V204H561c5.712 0 10.2 4.488 10.2 10.2v163.2z"/><path d="M384.132 186.66c-4.08-4.08-10.404-4.08-14.484 0l-94.86 94.86-94.656-94.86c-4.08-4.08-10.404-4.08-14.484 0s-4.08 10.404 0 14.484l94.86 94.86-94.86 94.86c-4.08 4.08-4.08 10.404 0 14.484 2.04 2.04 4.692 3.06 7.14 3.06s5.304-1.02 7.14-3.06l94.86-94.86 94.86 94.86c2.04 2.04 4.692 3.06 7.14 3.06s5.304-1.02 7.14-3.06c4.08-4.08 4.08-10.404 0-14.484L289.272 295.8l94.86-94.86c3.876-3.876 3.876-10.404 0-14.28z"/></svg>