<svg xmlns="http://www.w3.org/2000/svg" viewBox="0 0 599.964 599.964"><path d="M310.182 90.78V10.2c0-5.712-4.488-10.2-10.2-10.2s-10.2 4.488-10.2 10.2v80.58c-34.476 4.896-61.2 34.68-61.2 70.584s26.724 65.688 61.2 70.584v357.816c0 5.712 4.488 10.2 10.2 10.2s10.2-4.488 10.2-10.2V231.948c34.476-4.896 61.2-34.68 61.2-70.584s-26.724-65.688-61.2-70.584zm-10.2 121.584c-28.152 0-51-22.848-51-51s22.848-51 51-51 51 22.848 51 51-22.848 51-51 51z"/><path d="M299.982 125.664c-19.584 0-35.7 16.116-35.7 35.7 0 2.856 2.244 5.1 5.1 5.1s5.1-2.244 5.1-5.1c0-14.076 11.424-25.5 25.5-25.5 2.856 0 5.1-2.244 5.1-5.1 0-2.856-2.244-5.1-5.1-5.1zM575.382 446.964c0-35.904-26.724-65.688-61.2-70.584V18.564c0-5.712-4.488-10.2-10.2-10.2s-10.2 4.488-10.2 10.2V376.38c-34.476 4.896-61.2 34.68-61.2 70.584s26.724 65.688 61.2 70.584v72.216c0 5.712 4.488 10.2 10.2 10.2s10.2-4.488 10.2-10.2v-72.216c34.476-4.896 61.2-34.68 61.2-70.584zm-71.4 51c-28.152 0-51-22.848-51-51s22.848-51 51-51 51 22.848 51 51-22.848 51-51 51z"/><path d="M503.982 411.264c-19.584 0-35.7 16.116-35.7 35.7 0 2.856 2.244 5.1 5.1 5.1s5.1-2.244 5.1-5.1c0-14.076 11.424-25.5 25.5-25.5 2.856 0 5.1-2.244 5.1-5.1s-2.244-5.1-5.1-5.1zM106.182 376.38V18.564c0-5.712-4.488-10.2-10.2-10.2-5.712 0-10.2 4.488-10.2 10.2V376.38c-34.476 4.896-61.2 34.68-61.2 70.584s26.724 65.688 61.2 70.584v72.216c0 5.712 4.488 10.2 10.2 10.2 5.712 0 10.2-4.488 10.2-10.2v-72.216c34.476-4.896 61.2-34.68 61.2-70.584s-26.724-65.688-61.2-70.584zm-10.2 121.584c-28.152 0-51-22.848-51-51s22.848-51 51-51 51 22.848 51 51-22.848 51-51 51z"/><path d="M95.982 411.264c-19.584 0-35.7 16.116-35.7 35.7 0 2.856 2.244 5.1 5.1 5.1 2.856 0 5.1-2.244 5.1-5.1 0-14.076 11.424-25.5 25.5-25.5 2.856 0 5.1-2.244 5.1-5.1s-2.244-5.1-5.1-5.1z"/></svg>