<svg xmlns="http://www.w3.org/2000/svg" viewBox="0 0 591.6 591.6"><path d="M415.752 287.232l-204.204-132.6c-3.06-2.04-7.14-2.244-10.404-.408-3.264 1.836-5.304 5.304-5.304 8.976v265.2c0 3.672 2.04 7.14 5.304 8.976 1.428.816 3.264 1.224 4.896 1.224 2.04 0 3.876-.612 5.508-1.632l204.204-132.6c2.856-1.836 4.692-5.1 4.692-8.568-.204-3.468-1.836-6.732-4.692-8.568zm-199.512 122.4V181.968L391.476 295.8 216.24 409.632z"/><path d="M221.34 216.036l134.232 91.596c.816.612 1.836.816 2.856.816 1.632 0 3.264-.816 4.284-2.244 1.632-2.244 1.02-5.508-1.428-7.14l-134.232-91.596c-2.244-1.632-5.508-1.02-7.14 1.428-1.632 2.448-1.02 5.508 1.428 7.14z"/><path d="M540.6 40.8H51c-28.152 0-51 22.848-51 51v408c0 28.152 22.848 51 51 51h489.6c28.152 0 51-22.848 51-51v-408c0-28.152-22.848-51-51-51zm30.6 459c0 16.932-13.668 30.6-30.6 30.6H51c-16.932 0-30.6-13.668-30.6-30.6v-408c0-16.932 13.668-30.6 30.6-30.6h489.6c16.932 0 30.6 13.668 30.6 30.6v408z"/><path d="M122.4 112.2H61.2c-11.22 0-20.4 9.18-20.4 20.4v40.8c0 11.22 9.18 20.4 20.4 20.4h61.2c11.22 0 20.4-9.18 20.4-20.4v-40.8c0-11.22-9.18-20.4-20.4-20.4zm-61.2 61.2v-40.8h61.2v40.8H61.2zM122.4 255H61.2c-11.22 0-20.4 9.18-20.4 20.4v40.8c0 11.22 9.18 20.4 20.4 20.4h61.2c11.22 0 20.4-9.18 20.4-20.4v-40.8c0-11.22-9.18-20.4-20.4-20.4zm-61.2 61.2v-40.8h61.2v40.8H61.2zM122.4 397.8H61.2c-11.22 0-20.4 9.18-20.4 20.4V459c0 11.22 9.18 20.4 20.4 20.4h61.2c11.22 0 20.4-9.18 20.4-20.4v-40.8c0-11.22-9.18-20.4-20.4-20.4zM61.2 459v-40.8h61.2V459H61.2zM530.4 112.2h-61.2c-11.22 0-20.4 9.18-20.4 20.4v40.8c0 11.22 9.18 20.4 20.4 20.4h61.2c11.22 0 20.4-9.18 20.4-20.4v-40.8c0-11.22-9.18-20.4-20.4-20.4zm-61.2 61.2v-40.8h61.2v40.8h-61.2zM530.4 255h-61.2c-11.22 0-20.4 9.18-20.4 20.4v40.8c0 11.22 9.18 20.4 20.4 20.4h61.2c11.22 0 20.4-9.18 20.4-20.4v-40.8c0-11.22-9.18-20.4-20.4-20.4zm-61.2 61.2v-40.8h61.2v40.8h-61.2zM530.4 397.8h-61.2c-11.22 0-20.4 9.18-20.4 20.4V459c0 11.22 9.18 20.4 20.4 20.4h61.2c11.22 0 20.4-9.18 20.4-20.4v-40.8c0-11.22-9.18-20.4-20.4-20.4zM469.2 459v-40.8h61.2V459h-61.2z"/></svg>