<svg xmlns="http://www.w3.org/2000/svg" viewBox="0 0 453.492 453.492"><path d="M159.923 113.424c-23.052 49.98-17.34 92.616 17.952 137.904 1.02 1.224 2.448 2.04 4.08 2.04 1.02 0 2.244-.408 3.06-1.02 2.244-1.632 2.652-4.896.816-7.14-33.25-42.636-38.147-80.784-16.727-127.5 1.224-2.652 0-5.508-2.448-6.732-2.448-1.224-5.508 0-6.732 2.448z"/><path d="M450.215 118.524c-4.08-4.08-10.404-4.08-14.484 0l-100.98 100.98-100.98-100.98 100.98-100.98c4.08-4.08 4.08-10.404 0-14.484s-10.403-4.08-14.483 0l-100.98 100.98L168.9 53.652c-1.837-1.836-4.49-3.06-7.14-3.06s-5.305 1.02-7.14 3.06c-65.28 65.28-67.525 169.728-6.937 237.864l-.204.204L3.25 435.948c-4.08 4.08-4.08 10.404 0 14.484 2.04 2.04 4.693 3.06 7.14 3.06s5.305-1.02 7.14-3.06l144.23-144.228.203-.204c31.824 28.356 72.216 43.86 115.26 43.86 46.308 0 89.76-17.952 122.604-50.796 4.08-4.08 4.08-10.404 0-14.484l-50.388-50.388 100.98-100.98c3.875-4.284 3.875-10.812-.205-14.688zM277.02 329.256c-40.8 0-79.357-15.912-108.12-44.88-57.325-57.324-59.57-148.92-6.937-208.896l215.832 215.832c-27.744 24.48-63.24 37.944-100.776 37.944z"/></svg>