<svg xmlns="http://www.w3.org/2000/svg" viewBox="0 0 591.6 591.6"><path d="M102 244.8c-28.152 0-51 22.848-51 51 0 2.856 2.244 5.1 5.1 5.1 2.856 0 5.1-2.244 5.1-5.1 0-22.44 18.36-40.8 40.8-40.8 2.856 0 5.1-2.244 5.1-5.1s-2.244-5.1-5.1-5.1z"/><path d="M489.6 387.6c-36.312 0-68.136 18.972-86.292 47.532-.204 0-.204-.204-.408-.204L197.676 332.316c-.204 0-.204-.204-.408-.204 4.284-11.22 6.732-23.46 6.732-36.312 0-12.852-2.448-25.092-6.732-36.312.204 0 .204-.204.408-.204L402.9 156.672c.204 0 .204-.204.408-.204C421.464 185.028 453.288 204 489.6 204c56.304 0 102-45.696 102-102S545.904 0 489.6 0s-102 45.696-102 102c0 12.852 2.448 25.092 6.732 36.312-.204 0-.204 0-.408.204L188.7 241.128c-.204 0-.204.204-.408.204-18.156-28.56-49.98-47.532-86.292-47.532-56.304 0-102 45.696-102 102s45.696 102 102 102c36.312 0 68.136-18.972 86.292-47.532.204 0 .204.204.408.204l205.224 102.612c.204 0 .204.204.408.204-4.284 11.22-6.732 23.46-6.732 36.312 0 56.304 45.696 102 102 102s102-45.696 102-102-45.696-102-102-102zm0-367.2c45.084 0 81.6 36.516 81.6 81.6s-36.516 81.6-81.6 81.6c-45.084 0-81.6-36.516-81.6-81.6s36.516-81.6 81.6-81.6zM102 377.4c-45.084 0-81.6-36.516-81.6-81.6s36.516-81.6 81.6-81.6 81.6 36.516 81.6 81.6-36.516 81.6-81.6 81.6zm387.6 193.8c-45.084 0-81.6-36.516-81.6-81.6 0-45.084 36.516-81.6 81.6-81.6 45.084 0 81.6 36.516 81.6 81.6 0 45.084-36.516 81.6-81.6 81.6z"/><path d="M489.6 438.6c-28.152 0-51 22.848-51 51 0 2.856 2.244 5.1 5.1 5.1s5.1-2.244 5.1-5.1c0-22.44 18.36-40.8 40.8-40.8 2.856 0 5.1-2.244 5.1-5.1s-2.244-5.1-5.1-5.1zM443.7 107.1c2.856 0 5.1-2.244 5.1-5.1 0-22.44 18.36-40.8 40.8-40.8 2.856 0 5.1-2.244 5.1-5.1s-2.244-5.1-5.1-5.1c-28.152 0-51 22.848-51 51 0 2.856 2.244 5.1 5.1 5.1z"/></svg>