<svg xmlns="http://www.w3.org/2000/svg" viewBox="0 0 591.6 591.6"><path d="M295.8 0c-5.712 0-10.2 4.488-10.2 10.2v102c0 5.712 4.488 10.2 10.2 10.2s10.2-4.488 10.2-10.2v-102C306 4.488 301.512 0 295.8 0zM295.8 469.2c-5.712 0-10.2 4.488-10.2 10.2v102c0 5.712 4.488 10.2 10.2 10.2s10.2-4.488 10.2-10.2v-102c0-5.712-4.488-10.2-10.2-10.2zM581.4 285.6h-102c-5.712 0-10.2 4.488-10.2 10.2s4.488 10.2 10.2 10.2h102c5.712 0 10.2-4.488 10.2-10.2s-4.488-10.2-10.2-10.2zM122.4 295.8c0-5.712-4.488-10.2-10.2-10.2h-102c-5.712 0-10.2 4.488-10.2 10.2S4.488 306 10.2 306h102c5.712 0 10.2-4.488 10.2-10.2zM432.888 418.404c-4.08-4.08-10.404-4.08-14.484 0s-4.08 10.404 0 14.484l72.216 72.216c2.04 2.04 4.692 3.06 7.14 3.06 2.448 0 5.304-1.02 7.14-3.06 4.08-4.08 4.08-10.404 0-14.484l-72.012-72.216zM100.98 86.7c-4.08-4.08-10.404-4.08-14.484 0s-4.08 10.404 0 14.484l72.216 72.216c2.04 2.04 4.692 3.06 7.14 3.06s5.304-1.02 7.14-3.06c4.08-4.08 4.08-10.404 0-14.484L100.98 86.7zM158.712 418.404L86.496 490.62c-4.08 4.08-4.08 10.404 0 14.484 2.04 2.04 4.692 3.06 7.14 3.06s5.304-1.02 7.14-3.06l72.216-72.216c4.08-4.08 4.08-10.404 0-14.484-3.876-3.876-10.2-3.876-14.28 0zM425.544 176.256c2.652 0 5.304-1.02 7.14-3.06L504.9 100.98c4.08-4.08 4.08-10.404 0-14.484s-10.404-4.08-14.484 0L418.2 158.712c-4.08 4.08-4.08 10.404 0 14.484 2.244 2.04 4.896 3.06 7.344 3.06z"/></svg>