<svg xmlns="http://www.w3.org/2000/svg" viewBox="0 0 520.2 520.2"><path d="M260.1 142.8c39.372 0 71.4-32.028 71.4-71.4S299.472 0 260.1 0s-71.4 32.028-71.4 71.4 32.028 71.4 71.4 71.4zm0-122.4c28.152 0 51 22.848 51 51s-22.848 51-51 51-51-22.848-51-51 22.848-51 51-51z"/><path d="M229.5 76.5c2.856 0 5.1-2.244 5.1-5.1 0-14.076 11.424-25.5 25.5-25.5 2.856 0 5.1-2.244 5.1-5.1s-2.244-5.1-5.1-5.1c-19.584 0-35.7 16.116-35.7 35.7 0 2.856 2.244 5.1 5.1 5.1zM260.1 188.7c-39.372 0-71.4 32.028-71.4 71.4s32.028 71.4 71.4 71.4 71.4-32.028 71.4-71.4-32.028-71.4-71.4-71.4zm0 122.4c-28.152 0-51-22.848-51-51s22.848-51 51-51 51 22.848 51 51-22.848 51-51 51z"/><path d="M260.1 224.4c-19.584 0-35.7 16.116-35.7 35.7 0 2.856 2.244 5.1 5.1 5.1s5.1-2.244 5.1-5.1c0-14.076 11.424-25.5 25.5-25.5 2.856 0 5.1-2.244 5.1-5.1s-2.244-5.1-5.1-5.1zM260.1 377.4c-39.372 0-71.4 32.028-71.4 71.4s32.028 71.4 71.4 71.4 71.4-32.028 71.4-71.4-32.028-71.4-71.4-71.4zm0 122.4c-28.152 0-51-22.848-51-51s22.848-51 51-51 51 22.848 51 51-22.848 51-51 51z"/><path d="M260.1 413.1c-19.584 0-35.7 16.116-35.7 35.7 0 2.856 2.244 5.1 5.1 5.1s5.1-2.244 5.1-5.1c0-14.076 11.424-25.5 25.5-25.5 2.856 0 5.1-2.244 5.1-5.1s-2.244-5.1-5.1-5.1z"/></svg>