<svg xmlns="http://www.w3.org/2000/svg" viewBox="0 0 591.6 591.6"><path d="M541.008 213.792c-20.4-20.4-44.88-35.088-71.808-43.248-.612-45.492-18.564-87.924-50.592-119.952C385.764 17.952 342.312 0 295.8 0s-89.964 17.952-122.808 50.592c-32.028 32.028-49.776 74.664-50.592 119.952-26.928 8.16-51.408 22.848-71.808 43.248C17.952 246.432 0 290.088 0 336.6s17.952 89.964 50.592 122.808C83.232 492.048 126.888 510 173.4 510c5.712 0 10.2-4.488 10.2-10.2s-4.488-10.2-10.2-10.2c-84.456 0-153-68.544-153-153s68.544-153 153-153 153 68.544 153 153c0 5.712 4.488 10.2 10.2 10.2s10.2-4.488 10.2-10.2c0-95.676-77.724-173.4-173.4-173.4-1.836 0-3.876 0-5.712.204C176.664 95.472 234.6 43.86 303.96 43.86c2.856 0 5.1-2.244 5.1-5.1s-2.244-5.1-5.1-5.1c-75.276 0-137.904 56.508-146.676 130.356-4.896.408-9.588 1.02-14.28 1.836C146.88 84.864 213.996 20.4 295.8 20.4s148.92 64.668 152.796 145.452c-9.996-1.836-19.992-2.652-30.396-2.652-5.712 0-10.2 4.488-10.2 10.2s4.488 10.2 10.2 10.2c84.456 0 153 68.544 153 153s-68.544 153-153 153c-5.712 0-10.2 4.488-10.2 10.2s4.488 10.2 10.2 10.2c46.512 0 89.964-17.952 122.808-50.592 32.64-32.64 50.592-76.296 50.592-122.808s-17.952-90.168-50.592-122.808z"/><path d="M181.56 196.86c-81.396 0-147.696 66.3-147.696 147.696 0 2.856 2.244 5.1 5.1 5.1s5.1-2.244 5.1-5.1c0-75.888 61.812-137.496 137.496-137.496 2.856 0 5.1-2.244 5.1-5.1s-2.244-5.1-5.1-5.1zM362.712 430.032l-61.2-40.8c-.204-.204-.612-.204-.816-.408-.204-.204-.612-.408-1.02-.408-.204-.204-.612-.204-.816-.204h-.204s-.612-.204-.816-.204c-.408 0-.612 0-1.02-.204H294.984c-.408 0-.612 0-1.02.204-.204 0-.612.204-.816.204h-.204c-.204 0-.612.204-.816.204-.204.204-.612.204-.816.408-.204.204-.612.204-.816.408l-61.2 40.8c-4.692 3.06-5.916 9.384-2.856 14.076 2.04 2.856 5.1 4.488 8.568 4.488 2.04 0 3.876-.612 5.712-1.632l45.288-30.192V581.4c0 5.712 4.488 10.2 10.2 10.2s10.2-4.488 10.2-10.2V416.772l45.288 30.192c1.836 1.224 3.672 1.632 5.712 1.632 3.264 0 6.528-1.632 8.568-4.488 2.652-4.692 1.428-11.016-3.264-14.076z"/></svg>