<svg xmlns="http://www.w3.org/2000/svg" viewBox="0 0 557.264 557.264"><path d="M278.632 319.432c-39.372 0-71.4 32.028-71.4 71.4s32.028 71.4 71.4 71.4 71.4-32.028 71.4-71.4-32.028-71.4-71.4-71.4zm0 122.4c-28.152 0-51-22.848-51-51s22.848-51 51-51 51 22.848 51 51-22.848 51-51 51z"/><path d="M278.632 355.132c-19.584 0-35.7 16.116-35.7 35.7 0 2.856 2.244 5.1 5.1 5.1s5.1-2.244 5.1-5.1c0-14.076 11.424-25.5 25.5-25.5 2.856 0 5.1-2.244 5.1-5.1s-2.244-5.1-5.1-5.1zM278.632 212.128c-81.192 0-154.428 51.204-182.172 127.5-1.836 5.304.816 11.22 6.12 13.056 5.304 1.836 11.22-.816 13.056-6.12 24.888-68.34 90.372-114.036 162.996-114.036s138.108 45.9 162.996 114.036c1.428 4.08 5.508 6.732 9.588 6.732 1.224 0 2.244-.204 3.468-.612 5.304-1.836 7.956-7.752 6.12-13.056-27.744-76.092-100.98-127.5-182.172-127.5z"/><path d="M556.684 289.648C514.252 173.164 402.46 95.032 278.632 95.032S43.012 173.164.58 289.648c-1.836 5.304.816 11.22 6.12 13.056 5.304 1.836 11.22-.816 13.056-6.12C59.332 188.26 163.372 115.432 278.632 115.432s219.3 72.828 258.876 181.152c1.428 4.08 5.508 6.732 9.588 6.732 1.224 0 2.244-.204 3.468-.612 5.304-1.836 7.956-7.752 6.12-13.056z"/></svg>