<?xml version="1.0" encoding="iso-8859-1"?>
<!-- Generator: Adobe Illustrator 18.1.1, SVG Export Plug-In . SVG Version: 6.00 Build 0)  -->
<svg version="1.1" id="Capa_1" xmlns="http://www.w3.org/2000/svg" xmlns:xlink="http://www.w3.org/1999/xlink" x="0px" y="0px"
	 viewBox="0 0 591.54 591.54" style="enable-background:new 0 0 591.54 591.54;" xml:space="preserve">
<g>
	<g>
		<path d="M591.384,477.538l-81.6-428.4c-0.612-3.468-3.06-6.324-6.528-7.752c-3.264-1.224-7.14-0.612-9.792,1.632l-489.6,387.6
			c-3.468,2.856-4.896,7.752-3.06,11.832c1.632,4.284,6.12,6.732,10.608,6.324l177.48-19.788l78.132,117.3
			c1.836,2.652,4.692,4.284,7.956,4.488c0.204,0,0.408,0,0.612,0c3.06,0,5.916-1.428,7.752-3.672l97.716-117.3l197.472,59.364
			c3.468,1.02,7.14,0.204,9.792-2.244C590.772,484.474,591.996,481.006,591.384,477.538z M448.38,104.626L195.42,408.178
			c-0.612,0-1.224-0.204-1.632-0.204c-0.408,0-0.816,0-1.224,0L44.256,424.498L448.38,104.626z M369.636,411.646l-93.228,111.996
			l-72.828-109.14L486.324,75.046L375.348,408.178C373.104,408.586,371.064,409.81,369.636,411.646z M385.548,410.014
			L495.096,81.166l73.032,383.724L385.548,410.014z"/>
		<path d="M492.444,170.926c-2.856,0.612-4.692,3.264-4.08,5.916l48.552,259.08c0.408,2.448,2.652,4.08,5.1,4.08
			c0.408,0,0.612,0,1.02,0c2.856-0.612,4.692-3.264,4.08-5.916l-48.552-259.08C497.952,172.15,495.3,170.314,492.444,170.926z"/>
	</g>
</g>
<g>
</g>
<g>
</g>
<g>
</g>
<g>
</g>
<g>
</g>
<g>
</g>
<g>
</g>
<g>
</g>
<g>
</g>
<g>
</g>
<g>
</g>
<g>
</g>
<g>
</g>
<g>
</g>
<g>
</g>
</svg>
