<?xml version="1.0" encoding="iso-8859-1"?>
<!-- Generator: Adobe Illustrator 18.1.1, SVG Export Plug-In . SVG Version: 6.00 Build 0)  -->
<svg version="1.1" id="Capa_1" xmlns="http://www.w3.org/2000/svg" xmlns:xlink="http://www.w3.org/1999/xlink" x="0px" y="0px"
	 viewBox="0 0 591.6 591.6" style="enable-background:new 0 0 591.6 591.6;" xml:space="preserve">
<g>
	<g>
		<path d="M155.244,489.6H28.356C12.648,489.6,0,503.268,0,520.2V561c0,16.932,12.648,30.6,28.356,30.6h126.888
			c15.708,0,28.356-13.668,28.356-30.6v-40.8C183.6,503.268,170.952,489.6,155.244,489.6z M163.2,561c0,5.508-3.672,10.2-7.956,10.2
			H28.356c-4.284,0-7.956-4.692-7.956-10.2v-40.8c0-5.508,3.672-10.2,7.956-10.2h126.888c4.284,0,7.956,4.692,7.956,10.2V561z"/>
		<path d="M155.244,367.2H28.356C12.648,367.2,0,380.868,0,397.8v40.8c0,16.932,12.648,30.6,28.356,30.6h126.888
			c15.708,0,28.356-13.668,28.356-30.6v-40.8C183.6,380.868,170.952,367.2,155.244,367.2z M163.2,438.6
			c0,5.508-3.672,10.2-7.956,10.2H28.356c-4.284,0-7.956-4.692-7.956-10.2v-40.8c0-5.508,3.672-10.2,7.956-10.2h126.888
			c4.284,0,7.956,4.692,7.956,10.2V438.6z"/>
		<path d="M155.244,244.8H28.356C12.648,244.8,0,258.468,0,275.4v40.8c0,16.932,12.648,30.6,28.356,30.6h126.888
			c15.708,0,28.356-13.668,28.356-30.6v-40.8C183.6,258.468,170.952,244.8,155.244,244.8z M163.2,316.2
			c0,5.508-3.672,10.2-7.956,10.2H28.356c-4.284,0-7.956-4.692-7.956-10.2v-40.8c0-5.508,3.672-10.2,7.956-10.2h126.888
			c4.284,0,7.956,4.692,7.956,10.2V316.2z"/>
		<path d="M155.244,122.4H28.356C12.648,122.4,0,136.068,0,153v40.8c0,16.932,12.648,30.6,28.356,30.6h126.888
			c15.708,0,28.356-13.668,28.356-30.6V153C183.6,136.068,170.952,122.4,155.244,122.4z M163.2,193.8c0,5.508-3.672,10.2-7.956,10.2
			H28.356c-4.284,0-7.956-4.692-7.956-10.2V153c0-5.508,3.672-10.2,7.956-10.2h126.888c4.284,0,7.956,4.692,7.956,10.2V193.8z"/>
		<path d="M359.244,489.6H232.356c-15.708,0-28.356,13.668-28.356,30.6V561c0,16.932,12.648,30.6,28.356,30.6h126.888
			c15.708,0,28.356-13.668,28.356-30.6v-40.8C387.6,503.268,374.952,489.6,359.244,489.6z M367.2,561c0,5.508-3.672,10.2-7.956,10.2
			H232.356c-4.284,0-7.956-4.692-7.956-10.2v-40.8c0-5.508,3.672-10.2,7.956-10.2h126.888c4.284,0,7.956,4.692,7.956,10.2V561z"/>
		<path d="M359.244,367.2H232.356c-15.708,0-28.356,13.668-28.356,30.6v40.8c0,16.932,12.648,30.6,28.356,30.6h126.888
			c15.708,0,28.356-13.668,28.356-30.6v-40.8C387.6,380.868,374.952,367.2,359.244,367.2z M367.2,438.6
			c0,5.508-3.672,10.2-7.956,10.2H232.356c-4.284,0-7.956-4.692-7.956-10.2v-40.8c0-5.508,3.672-10.2,7.956-10.2h126.888
			c4.284,0,7.956,4.692,7.956,10.2V438.6z"/>
		<path d="M563.244,489.6H436.356c-15.708,0-28.356,13.668-28.356,30.6V561c0,16.932,12.648,30.6,28.356,30.6h126.888
			c15.708,0,28.356-13.668,28.356-30.6v-40.8C591.6,503.268,578.952,489.6,563.244,489.6z M571.2,561c0,5.508-3.672,10.2-7.956,10.2
			H436.356c-4.284,0-7.956-4.692-7.956-10.2v-40.8c0-5.508,3.672-10.2,7.956-10.2h126.888c4.284,0,7.956,4.692,7.956,10.2V561z"/>
		<path d="M563.244,367.2H436.356c-15.708,0-28.356,13.668-28.356,30.6v40.8c0,16.932,12.648,30.6,28.356,30.6h126.888
			c15.708,0,28.356-13.668,28.356-30.6v-40.8C591.6,380.868,578.952,367.2,563.244,367.2z M571.2,438.6
			c0,5.508-3.672,10.2-7.956,10.2H436.356c-4.284,0-7.956-4.692-7.956-10.2v-40.8c0-5.508,3.672-10.2,7.956-10.2h126.888
			c4.284,0,7.956,4.692,7.956,10.2V438.6z"/>
		<path d="M563.244,244.8H436.356c-15.708,0-28.356,13.668-28.356,30.6v40.8c0,16.932,12.648,30.6,28.356,30.6h126.888
			c15.708,0,28.356-13.668,28.356-30.6v-40.8C591.6,258.468,578.952,244.8,563.244,244.8z M571.2,316.2
			c0,5.508-3.672,10.2-7.956,10.2H436.356c-4.284,0-7.956-4.692-7.956-10.2v-40.8c0-5.508,3.672-10.2,7.956-10.2h126.888
			c4.284,0,7.956,4.692,7.956,10.2V316.2z"/>
		<path d="M563.244,122.4H436.356C420.648,122.4,408,136.068,408,153v40.8c0,16.932,12.648,30.6,28.356,30.6h126.888
			c15.708,0,28.356-13.668,28.356-30.6V153C591.6,136.068,578.952,122.4,563.244,122.4z M571.2,193.8c0,5.508-3.672,10.2-7.956,10.2
			H436.356c-4.284,0-7.956-4.692-7.956-10.2V153c0-5.508,3.672-10.2,7.956-10.2h126.888c4.284,0,7.956,4.692,7.956,10.2V193.8z"/>
		<path d="M563.244,0H436.356C420.648,0,408,13.668,408,30.6v40.8c0,16.932,12.648,30.6,28.356,30.6h126.888
			c15.708,0,28.356-13.668,28.356-30.6V30.6C591.6,13.668,578.952,0,563.244,0z M571.2,71.4c0,5.508-3.672,10.2-7.956,10.2H436.356
			c-4.284,0-7.956-4.692-7.956-10.2V30.6c0-5.508,3.672-10.2,7.956-10.2h126.888c4.284,0,7.956,4.692,7.956,10.2V71.4z"/>
		<path d="M153,151.98H30.6c-2.856,0-5.1,2.244-5.1,5.1s2.244,5.1,5.1,5.1H153c2.856,0,5.1-2.244,5.1-5.1S155.856,151.98,153,151.98
			z"/>
		<path d="M357,396.78H234.6c-2.856,0-5.1,2.244-5.1,5.1s2.244,5.1,5.1,5.1H357c2.856,0,5.1-2.244,5.1-5.1
			S359.856,396.78,357,396.78z"/>
		<path d="M561,29.58H438.6c-2.856,0-5.1,2.244-5.1,5.1s2.244,5.1,5.1,5.1H561c2.856,0,5.1-2.244,5.1-5.1S563.856,29.58,561,29.58z"
			/>
	</g>
</g>
<g>
</g>
<g>
</g>
<g>
</g>
<g>
</g>
<g>
</g>
<g>
</g>
<g>
</g>
<g>
</g>
<g>
</g>
<g>
</g>
<g>
</g>
<g>
</g>
<g>
</g>
<g>
</g>
<g>
</g>
</svg>
