<?xml version="1.0" encoding="iso-8859-1"?>
<!-- Generator: Adobe Illustrator 18.1.1, SVG Export Plug-In . SVG Version: 6.00 Build 0)  -->
<svg version="1.1" id="Capa_1" xmlns="http://www.w3.org/2000/svg" xmlns:xlink="http://www.w3.org/1999/xlink" x="0px" y="0px"
	 viewBox="0 0 591.6 591.6" style="enable-background:new 0 0 591.6 591.6;" xml:space="preserve">
<g>
	<g>
		<path d="M295.8,102c5.712,0,10.2-4.488,10.2-10.2V10.2C306,4.488,301.512,0,295.8,0s-10.2,4.488-10.2,10.2v81.6
			C285.6,97.512,290.088,102,295.8,102z"/>
		<path d="M295.8,489.6c-5.712,0-10.2,4.488-10.2,10.2v81.6c0,5.712,4.488,10.2,10.2,10.2s10.2-4.488,10.2-10.2v-81.6
			C306,494.088,301.512,489.6,295.8,489.6z"/>
		<path d="M581.4,285.6h-81.6c-5.712,0-10.2,4.488-10.2,10.2s4.488,10.2,10.2,10.2h81.6c5.712,0,10.2-4.488,10.2-10.2
			S587.112,285.6,581.4,285.6z"/>
		<path d="M102,295.8c0-5.712-4.488-10.2-10.2-10.2H10.2c-5.712,0-10.2,4.488-10.2,10.2S4.488,306,10.2,306h81.6
			C97.512,306,102,301.512,102,295.8z"/>
		<path d="M447.168,432.888c-4.08-4.08-10.404-4.08-14.484,0c-4.08,4.08-4.08,10.404,0,14.484l57.732,57.732
			c2.04,2.04,4.692,3.06,7.14,3.06s5.304-1.02,7.14-3.06c4.08-4.08,4.08-10.404,0-14.484L447.168,432.888z"/>
		<path d="M144.432,158.712c2.04,2.04,4.692,3.06,7.14,3.06s5.304-1.02,7.14-3.06c4.08-4.08,4.08-10.404,0-14.484L100.98,86.7
			c-4.08-4.08-10.404-4.08-14.484,0s-4.08,10.404,0,14.484L144.432,158.712z"/>
		<path d="M144.432,432.888L86.7,490.62c-4.08,4.08-4.08,10.404,0,14.484c2.04,2.04,4.692,3.06,7.14,3.06
			c2.652,0,5.304-1.02,7.14-3.06l57.732-57.732c4.08-4.08,4.08-10.404,0-14.484C154.836,428.808,148.308,428.808,144.432,432.888z"
			/>
		<path d="M440.028,161.772c2.652,0,5.304-1.02,7.14-3.06L504.9,100.98c4.08-4.08,4.08-10.404,0-14.484
			c-4.08-4.08-10.404-4.08-14.484,0l-57.732,57.732c-4.08,4.08-4.08,10.404,0,14.484
			C434.928,160.752,437.376,161.772,440.028,161.772z"/>
		<path d="M295.8,142.8c-84.456,0-153,68.544-153,153s68.544,153,153,153s153-68.544,153-153S380.256,142.8,295.8,142.8z
			 M295.8,428.4c-73.032,0-132.6-59.568-132.6-132.6s59.568-132.6,132.6-132.6s132.6,59.568,132.6,132.6S368.832,428.4,295.8,428.4z
			"/>
		<path d="M303.96,186.66c-64.668,0-117.3,52.632-117.3,117.3c0,2.856,2.244,5.1,5.1,5.1s5.1-2.244,5.1-5.1
			c0-58.956,48.144-107.1,107.1-107.1c2.856,0,5.1-2.244,5.1-5.1S306.816,186.66,303.96,186.66z"/>
	</g>
</g>
<g>
</g>
<g>
</g>
<g>
</g>
<g>
</g>
<g>
</g>
<g>
</g>
<g>
</g>
<g>
</g>
<g>
</g>
<g>
</g>
<g>
</g>
<g>
</g>
<g>
</g>
<g>
</g>
<g>
</g>
</svg>
