<?xml version="1.0" encoding="iso-8859-1"?>
<!-- Generator: Adobe Illustrator 18.1.1, SVG Export Plug-In . SVG Version: 6.00 Build 0)  -->
<svg version="1.1" id="Capa_1" xmlns="http://www.w3.org/2000/svg" xmlns:xlink="http://www.w3.org/1999/xlink" x="0px" y="0px"
	 viewBox="0 0 591.6 591.6" style="enable-background:new 0 0 591.6 591.6;" xml:space="preserve">
<g>
	<g>
		<path d="M588.093,247.248l-285.6-244.8c-3.876-3.264-9.384-3.264-13.26,0l-285.6,244.8c-3.264,2.856-4.488,7.344-2.856,11.22
			c1.632,3.876,5.1,6.732,9.384,6.732h71.4v275.4c0,0.816,0,1.428,0.204,2.244c6.732,30.6,25.704,48.756,50.796,48.756h81.6
			c5.712,0,10.2-4.488,10.2-10.2V420.852c4.488-7.14,24.48-33.252,71.4-33.252c47.124,0,66.708,26.112,71.4,33.252V581.4
			c0,5.712,4.488,10.2,10.2,10.2h81.6c28.152,0,51-22.848,51-51V265.2h71.4c4.284,0,8.16-2.652,9.588-6.732
			C592.377,254.388,591.153,250.104,588.093,247.248z M499.761,244.8c-5.712,0-10.2,4.488-10.2,10.2v285.6
			c0,16.932-13.668,30.6-30.6,30.6h-71.4v-153c0-1.632-0.408-3.06-1.02-4.488c-1.02-2.04-24.072-46.512-90.78-46.512
			s-89.76,44.472-90.78,46.512c-0.612,1.428-1.02,3.06-1.02,4.488v153h-71.4c-20.604,0-28.152-21.42-30.6-31.824V255
			c0-5.712-4.488-10.2-10.2-10.2h-54.06l258.06-221.136L553.821,244.8H499.761z"/>
		<path d="M244.761,193.8c0,28.152,22.848,51,51,51s51-22.848,51-51s-22.848-51-51-51S244.761,165.648,244.761,193.8z
			 M326.361,193.8c0,16.932-13.668,30.6-30.6,30.6s-30.6-13.668-30.6-30.6s13.668-30.6,30.6-30.6S326.361,176.868,326.361,193.8z"/>
		<path d="M274.341,197.88c0,2.856,2.244,5.1,5.1,5.1s5.1-2.244,5.1-5.1c0-8.364,6.936-15.3,15.3-15.3c2.856,0,5.1-2.244,5.1-5.1
			s-2.244-5.1-5.1-5.1C285.765,172.38,274.341,183.804,274.341,197.88z"/>
	</g>
</g>
<g>
</g>
<g>
</g>
<g>
</g>
<g>
</g>
<g>
</g>
<g>
</g>
<g>
</g>
<g>
</g>
<g>
</g>
<g>
</g>
<g>
</g>
<g>
</g>
<g>
</g>
<g>
</g>
<g>
</g>
</svg>
