<?xml version="1.0" encoding="iso-8859-1"?>
<!-- Generator: Adobe Illustrator 18.1.1, SVG Export Plug-In . SVG Version: 6.00 Build 0)  -->
<svg version="1.1" id="Capa_1" xmlns="http://www.w3.org/2000/svg" xmlns:xlink="http://www.w3.org/1999/xlink" x="0px" y="0px"
	 viewBox="0 0 592.008 592.008" style="enable-background:new 0 0 592.008 592.008;" xml:space="preserve">
<g>
	<g>
		<path d="M295.8,224.604c-39.372,0-71.4,32.028-71.4,71.4s32.028,71.4,71.4,71.4s71.4-32.028,71.4-71.4
			S335.172,224.604,295.8,224.604z M295.8,347.004c-28.152,0-51-22.848-51-51s22.848-51,51-51s51,22.848,51,51
			S323.952,347.004,295.8,347.004z"/>
		<path d="M295.8,260.304c-19.584,0-35.7,16.116-35.7,35.7c0,2.856,2.244,5.1,5.1,5.1s5.1-2.244,5.1-5.1
			c0-14.076,11.424-25.5,25.5-25.5c2.856,0,5.1-2.244,5.1-5.1S298.656,260.304,295.8,260.304z"/>
		<path d="M584.664,268.26l-37.944-12.444c-2.652-17.136-7.14-34.068-13.464-50.388l26.52-29.58
			c2.856-3.264,3.468-8.16,1.224-11.832L542.844,132.6c-2.244-3.876-6.528-5.712-11.016-4.896l-38.964,8.16
			c-11.016-13.464-23.46-25.908-36.924-36.72l8.16-38.964c0.816-4.284-1.02-8.772-4.896-11.016l-31.212-18.36
			c-3.876-2.244-8.568-1.632-11.832,1.224l-29.58,26.52c-16.32-6.12-33.252-10.608-50.388-13.464L323.748,7.14
			c-1.428-4.08-5.508-6.936-9.792-6.936h-36.312c-4.488,0-8.364,2.856-9.792,6.936l-12.24,37.944
			c-17.136,2.652-34.068,7.14-50.388,13.464l-29.784-26.52c-3.264-2.856-8.16-3.468-11.832-1.224L132.192,48.96
			c-3.876,2.244-5.712,6.528-4.896,11.016l8.16,38.964c-13.464,11.016-25.908,23.46-36.72,36.924l-38.964-8.16
			c-4.284-0.816-8.772,1.02-11.016,4.896L30.6,163.812c-2.244,3.876-1.632,8.568,1.224,11.832l26.52,29.58
			c-6.12,16.32-10.608,33.252-13.464,50.592L6.936,268.26C2.856,269.484,0,273.36,0,277.848v36.312c0,4.488,2.856,8.364,6.936,9.792
			l37.944,12.444c2.652,17.136,7.344,34.068,13.464,50.388l-26.52,29.58c-2.856,3.264-3.468,8.16-1.224,11.832l18.156,31.416
			c2.244,3.876,6.528,5.712,11.016,4.896l38.964-8.16c11.016,13.464,23.46,25.908,36.924,36.72l-8.16,38.964
			c-0.816,4.284,1.02,8.772,4.896,11.016l31.416,18.156c3.876,2.244,8.568,1.632,11.832-1.224l29.58-26.52
			c16.32,6.12,33.252,10.608,50.592,13.464l12.444,37.944c1.428,4.284,5.304,6.936,9.792,6.936h36.312
			c4.488,0,8.364-2.856,9.792-6.936l12.444-37.944c17.136-2.652,34.068-7.14,50.388-13.464l29.58,26.52
			c3.264,2.856,8.16,3.468,11.832,1.224l31.416-18.156c3.876-2.244,5.712-6.528,4.896-11.016l-8.16-38.964
			c13.464-11.016,25.908-23.46,36.72-36.924l38.964,8.16c4.284,0.816,8.772-1.02,11.016-4.896l18.156-31.416
			c2.244-3.876,1.632-8.568-1.224-11.832l-26.52-29.58c6.12-16.32,10.608-33.252,13.464-50.388l37.944-12.444
			c4.284-1.428,6.936-5.304,6.936-9.792v-36.312C591.6,273.36,588.744,269.484,584.664,268.26z M571.2,306.816l-33.66,11.016
			c-5.1,0-9.384,3.876-9.996,8.976c-2.652,20.196-7.752,39.984-15.504,58.752c-1.836,4.692-0.204,9.792,4.08,12.444l23.664,26.52
			l-10.812,18.564l-34.68-7.344c-4.488-2.448-9.996-1.428-13.056,2.652c-12.444,16.116-26.724,30.6-42.84,43.044
			c-4.08,3.06-5.1,8.568-2.652,13.056l7.344,34.68l-18.564,10.812l-26.52-23.664c-2.652-4.284-7.956-6.12-12.648-4.08
			c-18.768,7.752-38.556,13.056-58.548,15.708c-5.1,0.612-8.772,4.896-8.976,9.996l-11.016,33.66h-21.42l-11.016-33.66
			c0-5.1-3.876-9.384-8.976-9.996c-20.196-2.652-39.984-7.752-58.752-15.504c-4.692-1.836-9.996-0.204-12.444,4.08l-26.52,23.664
			l-18.564-10.812l7.344-34.68c2.448-4.488,1.428-9.996-2.652-13.056c-16.116-12.24-30.6-26.724-43.044-42.84
			c-3.06-4.08-8.568-5.1-13.056-2.652l-34.884,7.344L52.02,424.932l23.664-26.52c4.284-2.652,6.12-7.956,4.08-12.648
			c-7.752-18.768-13.056-38.556-15.708-58.548c-0.612-5.1-4.896-8.772-9.996-8.772L20.4,306.816v-21.42l33.66-11.016
			c5.1,0,9.384-3.876,9.996-8.976c2.652-20.196,7.752-39.984,15.504-58.752c1.836-4.692,0.204-9.792-4.08-12.444l-23.664-26.52
			l10.812-18.564l34.884,7.344c4.488,2.448,9.996,1.428,13.056-2.652c12.444-16.116,26.724-30.6,42.84-43.044
			c4.08-3.06,5.1-8.568,2.652-13.056l-7.344-34.68l18.564-10.812l26.52,23.664c2.652,4.284,7.956,6.12,12.648,4.08
			c18.768-7.752,38.556-13.056,58.548-15.708c5.1-0.612,8.772-4.896,8.976-9.996l11.016-33.66h21.42l11.016,33.66
			c0,5.1,3.876,9.384,8.976,9.996c20.196,2.652,39.984,7.752,58.752,15.504c4.692,1.836,9.792,0.204,12.444-4.08l26.52-23.664
			l18.564,10.812l-7.344,34.68c-2.448,4.488-1.428,9.996,2.652,13.056c16.116,12.444,30.6,26.724,43.044,42.84
			c3.06,4.08,8.568,5.1,13.056,2.652l34.884-7.344l10.812,18.564L516.12,193.8c-4.284,2.652-6.12,7.956-4.08,12.648
			c7.752,18.768,13.056,38.556,15.708,58.752c0.612,5.1,4.896,8.772,9.996,8.976l33.66,11.016v21.624H571.2z"/>
	</g>
</g>
<g>
</g>
<g>
</g>
<g>
</g>
<g>
</g>
<g>
</g>
<g>
</g>
<g>
</g>
<g>
</g>
<g>
</g>
<g>
</g>
<g>
</g>
<g>
</g>
<g>
</g>
<g>
</g>
<g>
</g>
</svg>
