<?xml version="1.0" encoding="iso-8859-1"?>
<!-- Generator: Adobe Illustrator 18.1.1, SVG Export Plug-In . SVG Version: 6.00 Build 0)  -->
<svg version="1.1" id="Capa_1" xmlns="http://www.w3.org/2000/svg" xmlns:xlink="http://www.w3.org/1999/xlink" x="0px" y="0px"
	 viewBox="0 0 591.6 591.6" style="enable-background:new 0 0 591.6 591.6;" xml:space="preserve">
<g>
	<g>
		<path d="M258.876,123.216c-3.876-1.632-8.16-0.612-11.016,2.244l-33.66,33.456L139.74,84.66c-4.08-4.08-10.404-4.08-14.484,0
			l-40.8,40.8c-4.08,4.08-4.08,10.404,0,14.484l74.46,74.256l-33.66,33.66c-2.856,2.856-3.876,7.344-2.244,11.016
			c1.632,3.876,5.304,6.324,9.384,6.324h122.4c5.712,0,10.2-4.488,10.2-10.2V132.6C265.2,128.52,262.752,124.848,258.876,123.216z
			 M244.8,244.8h-87.516l23.46-23.46c4.08-4.08,4.08-10.404,0-14.484l-74.46-74.256l26.316-26.316l74.46,74.46
			c4.08,4.08,10.404,4.08,14.484,0l23.256-23.46V244.8z"/>
		<path d="M466.14,84.66c-1.836-1.836-4.488-3.06-7.14-3.06l0,0c-2.652,0-5.304,1.02-7.14,3.06l-74.46,74.256l-33.66-33.66
			c-2.856-2.856-7.344-3.876-11.016-2.244c-3.876,1.632-6.324,5.304-6.324,9.384v122.4c0,5.712,4.488,10.2,10.2,10.2H459l0,0
			c5.712,0,10.2-4.488,10.2-10.2c0-3.06-1.428-5.916-3.468-7.752L432.684,214.2l74.256-74.46c4.08-4.08,3.876-10.404,0-14.484
			L466.14,84.66z M411.06,207.06c-4.08,4.08-3.876,10.404,0,14.484l23.46,23.46H346.8v-87.72l23.46,23.46
			c1.836,1.836,4.488,3.06,7.14,3.06l0,0c2.652,0,5.304-1.02,7.14-3.06l74.46-74.46l26.316,26.316L411.06,207.06z"/>
		<path d="M255,326.4H132.6c-4.08,0-7.752,2.448-9.384,6.324c-1.632,3.876-0.612,8.16,2.244,11.016l33.456,33.66l-74.46,74.46
			c-4.08,4.08-4.08,10.404,0,14.484l40.8,40.8c2.04,2.04,4.692,3.06,7.14,3.06c2.448,0,5.304-1.02,7.14-3.06l74.46-74.46
			l33.66,33.66c2.856,2.856,7.344,3.876,11.016,2.244c3.876-1.632,6.324-5.304,6.324-9.384v-122.4
			C265.2,330.888,260.712,326.4,255,326.4z M244.8,434.316l-23.46-23.46c-4.08-4.08-10.404-4.08-14.484,0l-74.256,74.46L106.284,459
			l74.46-74.46c4.08-4.08,4.08-10.404,0-14.484l-23.46-23.256H244.8V434.316z"/>
		<path d="M432.684,377.4l33.66-33.66c2.856-2.856,3.876-7.344,2.244-11.016c-1.632-3.876-5.304-6.324-9.384-6.324h-122.4
			c-5.712,0-10.2,4.488-10.2,10.2V459c0,4.08,2.448,7.752,6.324,9.384s8.16,0.612,11.016-2.244l33.66-33.66l74.256,74.46
			c1.836,1.836,4.488,3.06,7.14,3.06l0,0c2.652,0,5.304-1.02,7.14-3.06l40.8-40.8c4.08-4.08,4.08-10.404,0-14.484L432.684,377.4z
			 M459,485.316l-74.256-74.46c-1.836-1.836-4.488-3.06-7.14-3.06l0,0c-2.652,0-5.304,1.02-7.14,3.06l-23.664,23.46V346.8h87.516
			l-23.46,23.46c-4.08,4.08-4.08,10.404,0,14.484l74.256,74.46L459,485.316z"/>
		<path d="M540.6,0H51C22.848,0,0,22.848,0,51v489.6c0,28.152,22.848,51,51,51h489.6c28.152,0,51-22.848,51-51V51
			C591.6,22.848,568.752,0,540.6,0z M571.2,540.6c0,16.932-13.668,30.6-30.6,30.6H51c-16.932,0-30.6-13.668-30.6-30.6V51
			c0-16.932,13.668-30.6,30.6-30.6h489.6c16.932,0,30.6,13.668,30.6,30.6V540.6z"/>
	</g>
</g>
<g>
</g>
<g>
</g>
<g>
</g>
<g>
</g>
<g>
</g>
<g>
</g>
<g>
</g>
<g>
</g>
<g>
</g>
<g>
</g>
<g>
</g>
<g>
</g>
<g>
</g>
<g>
</g>
<g>
</g>
</svg>
