<?xml version="1.0" encoding="iso-8859-1"?>
<!-- Generator: Adobe Illustrator 18.1.1, SVG Export Plug-In . SVG Version: 6.00 Build 0)  -->
<svg version="1.1" id="Capa_1" xmlns="http://www.w3.org/2000/svg" xmlns:xlink="http://www.w3.org/1999/xlink" x="0px" y="0px"
	 viewBox="0 0 581.092 581.092" style="enable-background:new 0 0 581.092 581.092;" xml:space="preserve">
<g>
	<g>
		<path d="M453.696,489.65c0-8.364,6.936-15.3,15.3-15.3c2.856,0,5.1-2.244,5.1-5.1s-2.244-5.1-5.1-5.1
			c-14.076,0-25.5,11.424-25.5,25.5c0,2.856,2.244,5.1,5.1,5.1S453.696,492.506,453.696,489.65z"/>
		<path d="M243.168,457.214l47.94-79.764h198.288c4.08,0,7.956-2.448,9.384-6.324l81.6-204c1.224-3.06,0.816-6.324-0.816-9.18
			c-1.632-2.652-4.488-4.488-7.752-4.896l-466.14-40.596l-65.076-48.96c0-0.816,0.204-1.632,0.204-2.448
			c0-11.22-9.18-20.4-20.4-20.4S0,49.826,0,61.046s9.18,20.4,20.4,20.4c2.856,0,5.508-0.612,7.956-1.632l64.872,48.756l80.58,241.74
			c1.428,4.08,5.304,6.936,9.588,6.936h84.048l-40.188,66.912c-6.936-3.672-14.892-5.712-23.256-5.712c-28.152,0-51,22.848-51,51
			c0,28.152,22.848,51,51,51c24.684,0,45.288-17.544,49.98-40.8h165.24c4.692,23.256,25.296,40.8,49.98,40.8
			c28.152,0,51-22.848,51-51c0-28.152-22.848-51-51-51c-24.684,0-45.288,17.544-49.98,40.8H253.98
			C252.144,471.086,248.268,463.538,243.168,457.214z M116.484,133.874l440.028,38.352L482.664,357.05h-291.72L116.484,133.874z
			 M468.996,459.05c16.932,0,30.6,13.668,30.6,30.6s-13.668,30.6-30.6,30.6c-16.932,0-30.6-13.668-30.6-30.6
			S452.064,459.05,468.996,459.05z M203.796,520.25c-16.932,0-30.6-13.668-30.6-30.6s13.668-30.6,30.6-30.6s30.6,13.668,30.6,30.6
			S220.728,520.25,203.796,520.25z"/>
		<path d="M203.796,464.15c-14.076,0-25.5,11.424-25.5,25.5c0,2.856,2.244,5.1,5.1,5.1s5.1-2.244,5.1-5.1
			c0-8.364,6.936-15.3,15.3-15.3c2.856,0,5.1-2.244,5.1-5.1S206.652,464.15,203.796,464.15z"/>
		<path d="M306.204,175.286l-150.96-13.056c-1.632-0.204-3.468,0.612-4.488,1.836c-1.02,1.428-1.428,3.06-0.816,4.692l32.64,97.92
			c0.612,2.04,2.652,3.468,4.896,3.468c0.612,0,1.02,0,1.632-0.204c2.652-0.816,4.08-3.876,3.264-6.528l-30.192-90.372
			l143.208,12.444c2.856,0.204,5.304-1.836,5.508-4.692C311.1,178.142,309.06,175.694,306.204,175.286z"/>
	</g>
</g>
<g>
</g>
<g>
</g>
<g>
</g>
<g>
</g>
<g>
</g>
<g>
</g>
<g>
</g>
<g>
</g>
<g>
</g>
<g>
</g>
<g>
</g>
<g>
</g>
<g>
</g>
<g>
</g>
<g>
</g>
</svg>
