<?xml version="1.0" encoding="iso-8859-1"?>
<!-- Generator: Adobe Illustrator 18.1.1, SVG Export Plug-In . SVG Version: 6.00 Build 0)  -->
<svg version="1.1" id="Capa_1" xmlns="http://www.w3.org/2000/svg" xmlns:xlink="http://www.w3.org/1999/xlink" x="0px" y="0px"
	 viewBox="0 0 591.6 591.6" style="enable-background:new 0 0 591.6 591.6;" xml:space="preserve">
<g>
	<g>
		<path d="M540.6,81.6H51c-28.152,0-51,22.848-51,51V459c0,28.152,22.848,51,51,51h489.6c28.152,0,51-22.848,51-51V132.6
			C591.6,104.448,568.752,81.6,540.6,81.6z M20.4,204h550.8v81.6H20.4V204z M51,102h489.6c16.932,0,30.6,13.668,30.6,30.6v51H20.4
			v-51C20.4,115.668,34.068,102,51,102z M540.6,489.6H51c-16.932,0-30.6-13.668-30.6-30.6V306h550.8v153
			C571.2,475.932,557.532,489.6,540.6,489.6z"/>
		<path d="M520.2,448.8H397.8c-5.712,0-10.2,4.488-10.2,10.2s4.488,10.2,10.2,10.2h122.4c5.712,0,10.2-4.488,10.2-10.2
			S525.912,448.8,520.2,448.8z"/>
		<path d="M357,448.8H234.6c-5.712,0-10.2,4.488-10.2,10.2s4.488,10.2,10.2,10.2H357c5.712,0,10.2-4.488,10.2-10.2
			S362.712,448.8,357,448.8z"/>
		<path d="M51,137.7h489.6c2.856,0,5.1-2.244,5.1-5.1s-2.244-5.1-5.1-5.1H51c-2.856,0-5.1,2.244-5.1,5.1S48.144,137.7,51,137.7z"/>
		<path d="M520.2,408H234.6c-5.712,0-10.2,4.488-10.2,10.2s4.488,10.2,10.2,10.2h285.6c5.712,0,10.2-4.488,10.2-10.2
			S525.912,408,520.2,408z"/>
	</g>
</g>
<g>
</g>
<g>
</g>
<g>
</g>
<g>
</g>
<g>
</g>
<g>
</g>
<g>
</g>
<g>
</g>
<g>
</g>
<g>
</g>
<g>
</g>
<g>
</g>
<g>
</g>
<g>
</g>
<g>
</g>
</svg>
