<?xml version="1.0" encoding="iso-8859-1"?>
<!-- Generator: Adobe Illustrator 18.1.1, SVG Export Plug-In . SVG Version: 6.00 Build 0)  -->
<svg version="1.1" id="Capa_1" xmlns="http://www.w3.org/2000/svg" xmlns:xlink="http://www.w3.org/1999/xlink" x="0px" y="0px"
	 viewBox="0 0 591.6 591.6" style="enable-background:new 0 0 591.6 591.6;" xml:space="preserve">
<g>
	<g>
		<path d="M300.9,40.8c0-2.856-2.244-5.1-5.1-5.1c-19.584,0-35.7,16.116-35.7,35.7c0,2.856,2.244,5.1,5.1,5.1s5.1-2.244,5.1-5.1
			c0-14.076,11.424-25.5,25.5-25.5C298.656,45.9,300.9,43.656,300.9,40.8z"/>
		<path d="M260.1,520.2c0,2.856,2.244,5.1,5.1,5.1s5.1-2.244,5.1-5.1c0-14.076,11.424-25.5,25.5-25.5c2.856,0,5.1-2.244,5.1-5.1
			c0-2.856-2.244-5.1-5.1-5.1C276.216,484.5,260.1,500.616,260.1,520.2z"/>
		<path d="M35.7,520.2c0,2.856,2.244,5.1,5.1,5.1s5.1-2.244,5.1-5.1c0-14.076,11.424-25.5,25.5-25.5c2.856,0,5.1-2.244,5.1-5.1
			c0-2.856-2.244-5.1-5.1-5.1C51.816,484.5,35.7,500.616,35.7,520.2z"/>
		<path d="M530.4,449.616V295.8c0-5.712-4.488-10.2-10.2-10.2H306V141.984c34.476-4.896,61.2-34.68,61.2-70.584
			c0-39.372-32.028-71.4-71.4-71.4s-71.4,32.028-71.4,71.4c0,35.904,26.724,65.688,61.2,70.584V285.6H71.4
			c-5.712,0-10.2,4.488-10.2,10.2v153.816C26.724,454.512,0,484.296,0,520.2c0,39.372,32.028,71.4,71.4,71.4s71.4-32.028,71.4-71.4
			c0-35.904-26.724-65.688-61.2-70.584V306h204v143.616c-34.476,4.896-61.2,34.68-61.2,70.584c0,39.372,32.028,71.4,71.4,71.4
			s71.4-32.028,71.4-71.4c0-35.904-26.724-65.688-61.2-70.584V306h204v143.616c-34.476,4.896-61.2,34.68-61.2,70.584
			c0,39.372,32.028,71.4,71.4,71.4c39.372,0,71.4-32.028,71.4-71.4C591.6,484.296,564.876,454.512,530.4,449.616z M244.8,71.4
			c0-28.152,22.848-51,51-51s51,22.848,51,51s-22.848,51-51,51S244.8,99.552,244.8,71.4z M122.4,520.2c0,28.152-22.848,51-51,51
			s-51-22.848-51-51c0-28.152,22.848-51,51-51S122.4,492.048,122.4,520.2z M346.8,520.2c0,28.152-22.848,51-51,51s-51-22.848-51-51
			c0-28.152,22.848-51,51-51S346.8,492.048,346.8,520.2z M520.2,571.2c-28.152,0-51-22.848-51-51c0-28.152,22.848-51,51-51
			c28.152,0,51,22.848,51,51C571.2,548.352,548.352,571.2,520.2,571.2z"/>
		<path d="M520.2,484.5c-19.584,0-35.7,16.116-35.7,35.7c0,2.856,2.244,5.1,5.1,5.1c2.856,0,5.1-2.244,5.1-5.1
			c0-14.076,11.424-25.5,25.5-25.5c2.856,0,5.1-2.244,5.1-5.1C525.3,486.744,523.056,484.5,520.2,484.5z"/>
	</g>
</g>
<g>
</g>
<g>
</g>
<g>
</g>
<g>
</g>
<g>
</g>
<g>
</g>
<g>
</g>
<g>
</g>
<g>
</g>
<g>
</g>
<g>
</g>
<g>
</g>
<g>
</g>
<g>
</g>
<g>
</g>
</svg>
