<?xml version="1.0" encoding="iso-8859-1"?>
<!-- Generator: Adobe Illustrator 18.1.1, SVG Export Plug-In . SVG Version: 6.00 Build 0)  -->
<svg version="1.1" id="Capa_1" xmlns="http://www.w3.org/2000/svg" xmlns:xlink="http://www.w3.org/1999/xlink" x="0px" y="0px"
	 viewBox="0 0 591.498 591.498" style="enable-background:new 0 0 591.498 591.498;" xml:space="preserve">
<g>
	<g>
		<path d="M588.897,289.017c-93.432-103.836-191.964-156.468-293.148-156.468S96.033,185.181,2.601,289.017
			c-3.468,3.876-3.468,9.792,0,13.668c93.432,103.632,191.964,156.264,293.148,156.264s199.716-52.632,293.148-156.468
			C592.365,298.605,592.365,292.893,588.897,289.017z M295.749,438.549c-92.82,0-184.416-47.94-271.728-142.8
			c87.516-94.86,178.908-142.8,271.728-142.8s184.416,47.94,271.728,142.8C480.165,390.609,388.569,438.549,295.749,438.549z"/>
		<path d="M295.749,183.549c-61.812,0-112.2,50.388-112.2,112.2s50.388,112.2,112.2,112.2s112.2-50.388,112.2-112.2
			S357.561,183.549,295.749,183.549z M295.749,387.549c-50.592,0-91.8-41.208-91.8-91.8s41.208-91.8,91.8-91.8
			s91.8,41.208,91.8,91.8S346.341,387.549,295.749,387.549z"/>
		<path d="M300.237,222.309c-0.204-2.856-2.856-4.896-5.712-4.488c-41.616,4.488-74.052,37.944-77.112,79.56
			c-0.204,2.856,1.836,5.304,4.692,5.508c0.204,0,0.204,0,0.408,0c2.652,0,4.896-2.04,5.1-4.692
			c2.856-36.72,31.416-66.3,68.136-70.38C298.605,227.613,300.645,224.961,300.237,222.309z"/>
		<circle cx="295.749" cy="295.749" r="20.4"/>
	</g>
</g>
<g>
</g>
<g>
</g>
<g>
</g>
<g>
</g>
<g>
</g>
<g>
</g>
<g>
</g>
<g>
</g>
<g>
</g>
<g>
</g>
<g>
</g>
<g>
</g>
<g>
</g>
<g>
</g>
<g>
</g>
</svg>
