<?xml version="1.0" encoding="iso-8859-1"?>
<!-- Generator: Adobe Illustrator 18.1.1, SVG Export Plug-In . SVG Version: 6.00 Build 0)  -->
<svg version="1.1" id="Capa_1" xmlns="http://www.w3.org/2000/svg" xmlns:xlink="http://www.w3.org/1999/xlink" x="0px" y="0px"
	 viewBox="0 0 576.504 576.504" style="enable-background:new 0 0 576.504 576.504;" xml:space="preserve">
<g>
	<g>
		<path d="M461.652,173.4c0-95.676-77.724-173.4-173.4-173.4s-173.4,77.724-173.4,173.4c0,52.836,23.868,100.368,61.404,132.192
			l20.4,175.032c3.06,25.704,19.38,44.676,41.412,48.96c2.04,15.912,8.976,26.316,15.096,32.436
			c9.384,9.384,21.828,14.484,35.292,14.484c23.052,0,46.512-16.116,50.388-46.92c21.828-4.284,38.352-23.256,41.412-48.96
			l20.4-175.032C437.784,273.564,461.652,226.236,461.652,173.4z M135.252,173.4c0-84.456,68.544-153,153-153s153,68.544,153,153
			c0,70.584-48.144,130.356-113.424,147.696c20.808-26.928,54.468-76.704,46.92-108.12c-2.856-11.628-13.26-24.276-25.296-24.276
			c-6.936,0-12.648,5.916-17.952,11.832c-3.264,3.672-7.956,8.568-10.608,8.568c-2.856,0-8.772-5.1-12.852-8.976
			c-6.732-5.916-13.056-11.424-19.788-11.424s-13.056,5.508-19.788,11.424c-4.284,3.672-9.996,8.976-12.852,8.976
			c-2.652,0-7.14-4.896-10.608-8.568c-5.304-5.916-11.016-11.832-17.952-11.832c-12.036,0-22.644,12.648-25.296,24.276
			c-7.344,31.416,26.112,81.192,46.92,108.12C183.396,303.552,135.252,243.984,135.252,173.4z M264.384,324.36
			c-22.032-26.928-59.364-80.376-52.632-109.14c1.836-7.752,8.772-16.524,15.504-16.524c2.652,0,7.14,4.896,10.608,8.568
			c5.304,5.916,11.016,11.832,17.952,11.832c6.732,0,13.056-5.508,19.788-11.424c4.284-3.672,9.996-8.976,12.852-8.976
			c2.856,0,8.772,5.1,12.852,8.976c6.732,5.916,13.056,11.424,19.788,11.424c6.936,0,12.648-5.916,17.952-11.832
			c3.264-3.672,7.956-8.568,10.608-8.568c6.528,0,13.668,8.772,15.504,16.524c7.344,31.212-35.292,87.516-52.836,109.14
			c-7.752,1.224-15.708,1.836-23.868,1.836C280.092,326.4,272.136,325.584,264.384,324.36z M288.252,555.9
			c-12.852,0-25.908-7.956-29.58-25.5h59.16C314.16,547.74,301.104,555.9,288.252,555.9z M359.652,478.176
			c-1.836,15.3-12.036,31.824-30.6,31.824h-81.6c-18.564,0-28.968-16.524-30.6-31.824l-18.156-156.468
			c26.112,15.912,56.916,25.092,89.76,25.092s63.444-9.18,89.76-25.092L359.652,478.176z"/>
		<path d="M186.252,158.1c2.856,0,5.1-2.244,5.1-5.1c0-42.228,34.272-76.5,76.5-76.5c2.856,0,5.1-2.244,5.1-5.1s-2.244-5.1-5.1-5.1
			c-47.736,0-86.7,38.964-86.7,86.7C181.152,155.652,183.396,158.1,186.252,158.1z"/>
		<path d="M326.808,433.908l-81.6,40.8c-2.448,1.224-3.468,4.284-2.244,6.936c0.816,1.836,2.652,2.856,4.488,2.856
			c0.816,0,1.632-0.204,2.244-0.612l81.6-40.8c2.448-1.224,3.468-4.284,2.244-6.936
			C332.316,433.704,329.256,432.684,326.808,433.908z"/>
		<path d="M326.808,393.108l-81.6,40.8c-2.448,1.224-3.468,4.284-2.244,6.936c0.816,1.836,2.652,2.856,4.488,2.856
			c0.816,0,1.632-0.204,2.244-0.612l81.6-40.8c2.448-1.224,3.468-4.284,2.244-6.936
			C332.316,392.904,329.256,391.884,326.808,393.108z"/>
		<path d="M242.964,400.044c0.816,1.836,2.652,2.856,4.488,2.856c0.816,0,1.632-0.204,2.244-0.612l81.6-40.8
			c2.448-1.224,3.468-4.284,2.244-6.936c-1.224-2.448-4.284-3.468-6.936-2.244l-81.6,40.8
			C242.556,394.332,241.536,397.392,242.964,400.044z"/>
	</g>
</g>
<g>
</g>
<g>
</g>
<g>
</g>
<g>
</g>
<g>
</g>
<g>
</g>
<g>
</g>
<g>
</g>
<g>
</g>
<g>
</g>
<g>
</g>
<g>
</g>
<g>
</g>
<g>
</g>
<g>
</g>
</svg>
