<?xml version="1.0" encoding="iso-8859-1"?>
<!-- Generator: Adobe Illustrator 18.1.1, SVG Export Plug-In . SVG Version: 6.00 Build 0)  -->
<svg version="1.1" id="Capa_1" xmlns="http://www.w3.org/2000/svg" xmlns:xlink="http://www.w3.org/1999/xlink" x="0px" y="0px"
	 viewBox="0 0 591.6 591.6" style="enable-background:new 0 0 591.6 591.6;" xml:space="preserve">
<g>
	<g>
		<path d="M561,183.6h-11.22v-51c0-28.152-22.848-51-51-51H51c-28.152,0-51,22.848-51,51V459c0,28.152,22.848,51,51,51h447.78
			c28.152,0,51-22.848,51-51v-51H561c16.932,0,30.6-13.668,30.6-30.6V214.2C591.6,197.268,577.932,183.6,561,183.6z M529.38,459
			c0,16.932-13.668,30.6-30.6,30.6H51c-16.932,0-30.6-13.668-30.6-30.6V132.6c0-16.932,13.668-30.6,30.6-30.6h447.78
			c16.932,0,30.6,13.668,30.6,30.6V459z M571.2,377.4c0,5.712-4.488,10.2-10.2,10.2h-11.22V204H561c5.712,0,10.2,4.488,10.2,10.2
			V377.4z"/>
		<path d="M485.112,348.84L281.724,165.648c-3.06-2.652-7.344-3.468-11.016-1.836c-3.672,1.632-6.12,5.304-6.12,9.384v89.556
			L72.828,224.4c-4.488-0.816-8.976,1.224-11.016,5.508c-2.04,4.284-1.02,9.18,2.244,12.24l204,183.6
			c1.836,1.632,4.284,2.652,6.732,2.652c1.428,0,2.856-0.204,4.08-0.816c3.672-1.632,6.12-5.304,6.12-9.384v-89.556l191.76,38.352
			c0.816,0.204,1.428,0.204,2.244,0.204c5.508,0,9.996-4.692,9.996-10.2C489.192,353.736,487.56,350.88,485.112,348.84z
			 M276.828,306.204c-3.06-0.612-6.12,0.204-8.568,2.04c-2.448,2.04-3.672,4.896-3.672,7.956v79.152L105.264,251.94l167.484,33.456
			c3.06,0.612,6.12-0.204,8.568-2.04c2.448-1.836,3.672-4.896,3.672-7.956v-79.152L444.312,339.66L276.828,306.204z"/>
		<path d="M292.536,238.68l102,81.6c1.02,0.816,2.04,1.02,3.264,1.02c1.428,0,3.06-0.612,4.08-1.836
			c1.836-2.244,1.428-5.508-0.816-7.14l-102-81.6c-2.244-1.836-5.508-1.428-7.14,0.816
			C290.088,233.58,290.496,236.844,292.536,238.68z"/>
		<path d="M258.264,352.92l-102-81.6c-2.244-1.836-5.508-1.428-7.14,0.816c-1.836,2.244-1.428,5.508,0.816,7.14l102,81.6
			c1.02,0.816,2.04,1.02,3.264,1.02c1.428,0,3.06-0.612,4.08-1.836C260.712,358.02,260.304,354.756,258.264,352.92z"/>
	</g>
</g>
<g>
</g>
<g>
</g>
<g>
</g>
<g>
</g>
<g>
</g>
<g>
</g>
<g>
</g>
<g>
</g>
<g>
</g>
<g>
</g>
<g>
</g>
<g>
</g>
<g>
</g>
<g>
</g>
<g>
</g>
</svg>
