<?xml version="1.0" encoding="iso-8859-1"?>
<!-- Generator: Adobe Illustrator 18.1.1, SVG Export Plug-In . SVG Version: 6.00 Build 0)  -->
<svg version="1.1" id="Capa_1" xmlns="http://www.w3.org/2000/svg" xmlns:xlink="http://www.w3.org/1999/xlink" x="0px" y="0px"
	 viewBox="0 0 491.442 491.442" style="enable-background:new 0 0 491.442 491.442;" xml:space="preserve">
<g>
	<g>
		<path d="M476.544,58.143l-43.248-43.248c-9.588-9.588-22.44-14.892-36.108-14.892s-26.52,5.304-36.108,14.892L231.336,144.639
			c-19.788,19.788-19.788,52.224,0,72.216l14.484,14.484l-14.484,14.484l-14.484-14.484c-9.588-9.588-22.44-14.892-36.108-14.892
			c-13.668,0-26.52,5.304-36.108,14.892L14.892,361.083C5.304,370.671,0,383.523,0,397.191s5.304,26.52,14.892,36.108l43.248,43.248
			c9.588,9.588,22.44,14.892,36.108,14.892s26.52-5.304,36.108-14.892L260.1,346.803c9.588-9.588,14.892-22.44,14.892-36.108
			s-5.304-26.52-14.892-36.108l-14.484-14.484l14.484-14.484l14.484,14.484c9.588,9.588,22.44,14.892,36.108,14.892
			s26.52-5.304,36.108-14.892l129.744-129.744c9.588-9.588,14.892-22.44,14.892-36.108C491.64,80.583,486.336,67.731,476.544,58.143
			z M245.82,288.867c5.712,5.712,8.976,13.464,8.976,21.624s-3.264,15.912-8.976,21.624L116.076,461.859
			c-5.712,5.712-13.464,8.976-21.624,8.976s-15.912-3.264-21.624-8.976L29.58,418.611c-5.712-5.712-8.976-13.464-8.976-21.624
			s3.264-15.912,8.976-21.624l129.744-129.744c5.712-5.712,13.464-8.976,21.624-8.976s15.912,3.264,21.624,8.976l14.484,14.484
			l-50.388,50.388c-4.08,4.08-4.08,10.404,0,14.484c2.04,2.04,4.692,3.06,7.14,3.06c2.652,0,5.304-1.02,7.14-3.06l50.388-50.388
			L245.82,288.867z M462.264,115.875L332.316,245.619c-5.712,5.712-13.464,8.976-21.624,8.976s-15.912-3.264-21.624-8.976
			l-14.484-14.484l50.388-50.388c4.08-4.08,4.08-10.404,0-14.484c-4.08-4.08-10.404-4.08-14.484,0L260.1,216.651l-14.484-14.484
			c-11.832-11.832-11.832-31.416,0-43.248L375.36,29.175c5.712-5.712,13.464-8.976,21.624-8.976s15.912,3.264,21.624,8.976
			l43.248,43.248c5.712,5.712,8.976,13.464,8.976,21.624C471.24,102.411,467.976,109.959,462.264,115.875z"/>
		<path d="M83.64,364.551c-2.04-2.04-5.304-2.04-7.14,0l-28.764,28.764c-1.02,1.02-1.428,2.244-1.428,3.672
			c0,1.428,0.612,2.652,1.428,3.672L76.5,429.423c1.02,1.02,2.244,1.428,3.672,1.428s2.652-0.408,3.672-1.428
			c2.04-2.04,2.04-5.304,0-7.14l-25.296-25.296l25.296-25.296C85.476,369.855,85.476,366.591,83.64,364.551z"/>
		<path d="M415.344,61.611c-2.04-2.04-5.304-2.04-7.14,0c-2.04,2.04-2.04,5.304,0,7.14L433.5,94.047l-25.296,25.296
			c-2.04,2.04-2.04,5.304,0,7.14c1.02,1.02,2.244,1.428,3.672,1.428c1.428,0,2.652-0.408,3.672-1.428l28.764-28.764
			c2.04-2.04,2.04-5.304,0-7.14L415.344,61.611z"/>
	</g>
</g>
<g>
</g>
<g>
</g>
<g>
</g>
<g>
</g>
<g>
</g>
<g>
</g>
<g>
</g>
<g>
</g>
<g>
</g>
<g>
</g>
<g>
</g>
<g>
</g>
<g>
</g>
<g>
</g>
<g>
</g>
</svg>
