<?xml version="1.0" encoding="iso-8859-1"?>
<!-- Generator: Adobe Illustrator 18.1.1, SVG Export Plug-In . SVG Version: 6.00 Build 0)  -->
<svg version="1.1" id="Capa_1" xmlns="http://www.w3.org/2000/svg" xmlns:xlink="http://www.w3.org/1999/xlink" x="0px" y="0px"
	 viewBox="0 0 591.6 591.6" style="enable-background:new 0 0 591.6 591.6;" xml:space="preserve">
<g>
	<g>
		<path d="M540.6,224.371h-51v-30.6c0-5.712-4.488-10.2-10.2-10.2s-10.2,4.488-10.2,10.2v30.6H122.4v-30.6
			c0-68.34,40.188-130.356,102.612-158.304s135.456-16.524,186.456,28.968c4.284,3.672,10.608,3.468,14.484-0.816
			c3.672-4.284,3.468-10.608-0.816-14.484C368.22-1.457,286.416-14.309,216.648,16.903C147.084,47.911,102,117.475,102,193.771v30.6
			H51c-28.152,0-51,22.848-51,51v265.2c0,28.152,22.848,51,51,51h489.6c28.152,0,51-22.848,51-51v-265.2
			C591.6,247.219,568.752,224.371,540.6,224.371z M571.2,540.571c0,16.932-13.668,30.6-30.6,30.6H51
			c-16.932,0-30.6-13.668-30.6-30.6v-265.2c0-16.932,13.668-30.6,30.6-30.6h489.6c16.932,0,30.6,13.668,30.6,30.6V540.571z"/>
		<path d="M295.8,285.571c-29.376,0-56.1,18.36-66.708,45.9c-9.996,26.316-3.672,55.692,15.504,73.44v74.46
			c0,18.156,9.792,35.088,25.5,44.268c7.752,4.488,16.524,6.732,25.5,6.732s17.748-2.448,25.5-6.732
			c15.708-9.18,25.5-25.908,25.5-44.064v-74.46c19.176-17.748,25.704-47.124,15.504-73.44
			C351.9,303.931,325.176,285.571,295.8,285.571z M330.48,392.059c-2.448,1.836-3.876,4.896-3.876,8.16v79.356
			c0,10.812-5.916,21.012-15.3,26.52c-9.384,5.304-21.216,5.304-30.6,0c-9.384-5.508-15.3-15.504-15.3-26.52v-79.356
			c0-3.06-1.428-6.12-3.876-8.16c-15.096-11.832-20.604-33.66-13.056-53.448c7.548-19.584,26.724-32.64,47.532-32.64
			c21.012,0,40.188,13.056,47.532,32.64C350.88,358.399,345.576,380.227,330.48,392.059z"/>
		<path d="M132.6,270.271H51c-2.856,0-5.1,2.244-5.1,5.1v81.6c0,2.856,2.244,5.1,5.1,5.1s5.1-2.244,5.1-5.1v-76.5h76.5
			c2.856,0,5.1-2.244,5.1-5.1S135.456,270.271,132.6,270.271z"/>
	</g>
</g>
<g>
</g>
<g>
</g>
<g>
</g>
<g>
</g>
<g>
</g>
<g>
</g>
<g>
</g>
<g>
</g>
<g>
</g>
<g>
</g>
<g>
</g>
<g>
</g>
<g>
</g>
<g>
</g>
<g>
</g>
</svg>
