<?xml version="1.0" encoding="iso-8859-1"?>
<!-- Generator: Adobe Illustrator 18.1.1, SVG Export Plug-In . SVG Version: 6.00 Build 0)  -->
<svg version="1.1" id="Capa_1" xmlns="http://www.w3.org/2000/svg" xmlns:xlink="http://www.w3.org/1999/xlink" x="0px" y="0px"
	 viewBox="0 0 591.6 591.6" style="enable-background:new 0 0 591.6 591.6;" xml:space="preserve">
<g>
	<g>
		<path d="M576.708,176.307c-0.612-0.612-1.224-1.02-1.836-1.428L301.308,3.519c-3.264-2.04-7.548-2.04-10.812,0L16.728,174.879
			c-0.612,0.408-1.224,0.816-1.836,1.428C5.304,185.895,0,198.747,0,212.211v326.4c0,28.152,22.848,51,51,51h489.6
			c28.152,0,51-22.848,51-51v-326.4C591.6,198.747,586.296,185.895,576.708,176.307z M295.8,24.327l257.04,160.752L295.8,370.923
			L38.76,185.079L295.8,24.327z M571.2,538.611c0,16.932-13.668,30.6-30.6,30.6h-40.596l-97.716-175.848
			c-1.428-2.448-4.488-3.264-6.936-2.04c-2.448,1.428-3.264,4.488-2.04,6.936l94.86,170.952H103.224l94.86-170.952
			c1.428-2.448,0.408-5.508-2.04-6.936c-2.448-1.428-5.508-0.408-6.936,2.04L91.596,569.211H51c-16.932,0-30.6-13.668-30.6-30.6
			v-326.4c0-4.692,1.02-9.18,3.06-13.26c0.408,0.408,0.816,0.816,1.224,1.02l265.2,191.76c1.836,1.224,3.876,1.836,5.916,1.836
			c2.04,0,4.284-0.612,5.916-1.836l265.2-191.76c0.408-0.408,0.816-0.612,1.224-1.02c2.04,4.08,3.06,8.568,3.06,13.26V538.611z"/>
	</g>
</g>
<g>
</g>
<g>
</g>
<g>
</g>
<g>
</g>
<g>
</g>
<g>
</g>
<g>
</g>
<g>
</g>
<g>
</g>
<g>
</g>
<g>
</g>
<g>
</g>
<g>
</g>
<g>
</g>
<g>
</g>
</svg>
