<?xml version="1.0" encoding="iso-8859-1"?>
<!-- Generator: Adobe Illustrator 18.1.1, SVG Export Plug-In . SVG Version: 6.00 Build 0)  -->
<svg version="1.1" id="Capa_1" xmlns="http://www.w3.org/2000/svg" xmlns:xlink="http://www.w3.org/1999/xlink" x="0px" y="0px"
	 viewBox="0 0 591.6 591.6" style="enable-background:new 0 0 591.6 591.6;" xml:space="preserve">
<g>
	<g>
		<path d="M112.2,239.7c-31.008,0-56.1,25.092-56.1,56.1c0,2.856,2.244,5.1,5.1,5.1s5.1-2.244,5.1-5.1
			c0-25.296,20.604-45.9,45.9-45.9c2.856,0,5.1-2.244,5.1-5.1C117.3,241.944,115.056,239.7,112.2,239.7z"/>
		<path d="M479.4,183.6c-61.812,0-112.2,50.388-112.2,112.2c0,37.944,18.972,71.4,47.736,91.8H176.664
			c28.968-20.4,47.736-53.856,47.736-91.8c0-61.812-50.388-112.2-112.2-112.2S0,233.988,0,295.8S50.388,408,112.2,408h367.2
			c61.812,0,112.2-50.388,112.2-112.2S541.212,183.6,479.4,183.6z M20.4,295.8c0-50.592,41.208-91.8,91.8-91.8
			s91.8,41.208,91.8,91.8s-41.208,91.8-91.8,91.8S20.4,346.392,20.4,295.8z M479.4,387.6c-50.592,0-91.8-41.208-91.8-91.8
			s41.208-91.8,91.8-91.8c50.592,0,91.8,41.208,91.8,91.8S529.992,387.6,479.4,387.6z"/>
		<path d="M479.4,239.7c-31.008,0-56.1,25.092-56.1,56.1c0,2.856,2.244,5.1,5.1,5.1s5.1-2.244,5.1-5.1
			c0-25.296,20.604-45.9,45.9-45.9c2.856,0,5.1-2.244,5.1-5.1C484.5,241.944,482.256,239.7,479.4,239.7z"/>
	</g>
</g>
<g>
</g>
<g>
</g>
<g>
</g>
<g>
</g>
<g>
</g>
<g>
</g>
<g>
</g>
<g>
</g>
<g>
</g>
<g>
</g>
<g>
</g>
<g>
</g>
<g>
</g>
<g>
</g>
<g>
</g>
</svg>
