<?xml version="1.0" encoding="iso-8859-1"?>
<!-- Generator: Adobe Illustrator 18.1.1, SVG Export Plug-In . SVG Version: 6.00 Build 0)  -->
<svg version="1.1" id="Capa_1" xmlns="http://www.w3.org/2000/svg" xmlns:xlink="http://www.w3.org/1999/xlink" x="0px" y="0px"
	 viewBox="0 0 591.6 591.6" style="enable-background:new 0 0 591.6 591.6;" xml:space="preserve">
<g>
	<g>
		<path d="M415.752,287.232l-204.204-132.6c-3.06-2.04-7.14-2.244-10.404-0.408c-3.264,1.836-5.304,5.304-5.304,8.976v265.2
			c0,3.672,2.04,7.14,5.304,8.976c1.428,0.816,3.264,1.224,4.896,1.224c2.04,0,3.876-0.612,5.508-1.632l204.204-132.6
			c2.856-1.836,4.692-5.1,4.692-8.568C420.24,292.332,418.608,289.068,415.752,287.232z M216.24,409.632V181.968L391.476,295.8
			L216.24,409.632z"/>
		<path d="M221.34,216.036l134.232,91.596c0.816,0.612,1.836,0.816,2.856,0.816c1.632,0,3.264-0.816,4.284-2.244
			c1.632-2.244,1.02-5.508-1.428-7.14l-134.232-91.596c-2.244-1.632-5.508-1.02-7.14,1.428
			C218.28,211.344,218.892,214.404,221.34,216.036z"/>
		<path d="M540.6,40.8H51c-28.152,0-51,22.848-51,51v408c0,28.152,22.848,51,51,51h489.6c28.152,0,51-22.848,51-51v-408
			C591.6,63.648,568.752,40.8,540.6,40.8z M571.2,499.8c0,16.932-13.668,30.6-30.6,30.6H51c-16.932,0-30.6-13.668-30.6-30.6v-408
			c0-16.932,13.668-30.6,30.6-30.6h489.6c16.932,0,30.6,13.668,30.6,30.6V499.8z"/>
		<path d="M122.4,112.2H61.2c-11.22,0-20.4,9.18-20.4,20.4v40.8c0,11.22,9.18,20.4,20.4,20.4h61.2c11.22,0,20.4-9.18,20.4-20.4
			v-40.8C142.8,121.38,133.62,112.2,122.4,112.2z M61.2,173.4v-40.8h61.2v40.8H61.2z"/>
		<path d="M122.4,255H61.2c-11.22,0-20.4,9.18-20.4,20.4v40.8c0,11.22,9.18,20.4,20.4,20.4h61.2c11.22,0,20.4-9.18,20.4-20.4v-40.8
			C142.8,264.18,133.62,255,122.4,255z M61.2,316.2v-40.8h61.2v40.8H61.2z"/>
		<path d="M122.4,397.8H61.2c-11.22,0-20.4,9.18-20.4,20.4V459c0,11.22,9.18,20.4,20.4,20.4h61.2c11.22,0,20.4-9.18,20.4-20.4v-40.8
			C142.8,406.98,133.62,397.8,122.4,397.8z M61.2,459v-40.8h61.2V459H61.2z"/>
		<path d="M530.4,112.2h-61.2c-11.22,0-20.4,9.18-20.4,20.4v40.8c0,11.22,9.18,20.4,20.4,20.4h61.2c11.22,0,20.4-9.18,20.4-20.4
			v-40.8C550.8,121.38,541.62,112.2,530.4,112.2z M469.2,173.4v-40.8h61.2v40.8H469.2z"/>
		<path d="M530.4,255h-61.2c-11.22,0-20.4,9.18-20.4,20.4v40.8c0,11.22,9.18,20.4,20.4,20.4h61.2c11.22,0,20.4-9.18,20.4-20.4v-40.8
			C550.8,264.18,541.62,255,530.4,255z M469.2,316.2v-40.8h61.2v40.8H469.2z"/>
		<path d="M530.4,397.8h-61.2c-11.22,0-20.4,9.18-20.4,20.4V459c0,11.22,9.18,20.4,20.4,20.4h61.2c11.22,0,20.4-9.18,20.4-20.4
			v-40.8C550.8,406.98,541.62,397.8,530.4,397.8z M469.2,459v-40.8h61.2V459H469.2z"/>
	</g>
</g>
<g>
</g>
<g>
</g>
<g>
</g>
<g>
</g>
<g>
</g>
<g>
</g>
<g>
</g>
<g>
</g>
<g>
</g>
<g>
</g>
<g>
</g>
<g>
</g>
<g>
</g>
<g>
</g>
<g>
</g>
</svg>
