<?xml version="1.0" encoding="iso-8859-1"?>
<!-- Generator: Adobe Illustrator 18.1.1, SVG Export Plug-In . SVG Version: 6.00 Build 0)  -->
<svg version="1.1" id="Capa_1" xmlns="http://www.w3.org/2000/svg" xmlns:xlink="http://www.w3.org/1999/xlink" x="0px" y="0px"
	 viewBox="0 0 591.6 591.6" style="enable-background:new 0 0 591.6 591.6;" xml:space="preserve">
<g>
	<g>
		<path d="M295.582,102c-50.592,0-91.8,41.208-91.8,91.8s41.208,91.8,91.8,91.8s91.8-41.208,91.8-91.8S346.174,102,295.582,102z
			 M295.582,265.2c-39.372,0-71.4-32.028-71.4-71.4s32.028-71.4,71.4-71.4s71.4,32.028,71.4,71.4S334.954,265.2,295.582,265.2z"/>
		<path d="M295.582,147.9c-25.296,0-45.9,20.604-45.9,45.9c0,2.856,2.244,5.1,5.1,5.1c2.856,0,5.1-2.244,5.1-5.1
			c0-19.584,16.116-35.7,35.7-35.7c2.856,0,5.1-2.244,5.1-5.1S298.438,147.9,295.582,147.9z"/>
		<path d="M430.222,44.472C391.87,15.912,344.134,0,295.786,0S199.702,15.912,161.35,44.472
			c-38.352,28.764-63.036,65.892-73.644,110.772c-9.588,40.596-7.752,88.944,5.508,143.412
			c25.092,103.02,188.292,282.132,195.228,289.68c1.836,2.04,4.692,3.264,7.548,3.264s5.508-1.224,7.548-3.264
			c6.936-7.548,170.136-186.66,195.636-291.516C526.102,185.844,502.234,98.736,430.222,44.472z M479.182,291.924
			c-21.42,87.312-150.756,237.252-183.396,274.176c-32.844-36.924-161.976-186.456-182.988-272.34
			c-25.908-106.692-6.12-182.784,60.588-232.764C208.27,34.68,251.722,20.4,295.786,20.4s87.312,14.28,122.196,40.392
			C500.194,122.604,496.522,220.524,479.182,291.924z"/>
		<path d="M254.986,465.12c-42.228-54.672-94.656-122.808-106.08-170.136c-6.12-25.5-9.792-49.776-10.812-72.012
			c-1.02-23.052,0.816-44.676,5.508-64.26c0.612-2.652-1.02-5.508-3.876-6.12c-2.652-0.612-5.508,1.02-6.12,3.876
			c-4.896,20.4-6.732,43.044-5.712,67.116c1.02,22.848,4.692,47.736,11.22,73.848c11.628,49.368,62.628,115.464,107.712,173.808
			l6.732,8.772c1.02,1.224,2.448,2.04,4.08,2.04c1.02,0,2.244-0.408,3.06-1.02c2.244-1.632,2.652-4.896,1.02-7.14L254.986,465.12z"
			/>
	</g>
</g>
<g>
</g>
<g>
</g>
<g>
</g>
<g>
</g>
<g>
</g>
<g>
</g>
<g>
</g>
<g>
</g>
<g>
</g>
<g>
</g>
<g>
</g>
<g>
</g>
<g>
</g>
<g>
</g>
<g>
</g>
</svg>
