<?xml version="1.0" encoding="iso-8859-1"?>
<!-- Generator: Adobe Illustrator 18.1.1, SVG Export Plug-In . SVG Version: 6.00 Build 0)  -->
<svg version="1.1" id="Capa_1" xmlns="http://www.w3.org/2000/svg" xmlns:xlink="http://www.w3.org/1999/xlink" x="0px" y="0px"
	 viewBox="0 0 591.6 591.6" style="enable-background:new 0 0 591.6 591.6;" xml:space="preserve">
<g>
	<g>
		<path d="M295.8,0C132.6,0,0,132.6,0,295.8s132.6,295.8,295.8,295.8S591.6,459,591.6,295.8S459,0,295.8,0z M295.8,571.2
			c-151.776,0-275.4-123.624-275.4-275.4S144.024,20.4,295.8,20.4s275.4,123.624,275.4,275.4S447.576,571.2,295.8,571.2z"/>
		<path d="M161.16,229.5c-2.856,0-5.1,2.244-5.1,5.1V357c0,2.856,2.244,5.1,5.1,5.1s5.1-2.244,5.1-5.1V234.6
			C166.26,231.744,164.016,229.5,161.16,229.5z"/>
		<path d="M497.76,286.824l-197.268-102c-3.06-1.632-6.936-1.428-9.996,0.408s-4.896,5.1-4.896,8.772v65.076l-148.512-74.46
			c-3.06-1.632-6.936-1.428-9.996,0.408c-3.06,1.836-4.896,5.1-4.896,8.772v204c0,3.468,1.836,6.732,4.896,8.772
			c1.632,1.02,3.468,1.428,5.304,1.428c1.632,0,3.06-0.408,4.488-1.02l148.512-74.256V397.8c0,3.468,1.836,6.936,4.896,8.772
			c1.632,1.02,3.468,1.428,5.304,1.428c1.632,0,3.264-0.408,4.692-1.224l197.268-102c3.468-1.836,5.508-5.304,5.508-8.976
			S501.024,288.456,497.76,286.824z M142.8,381.276V210.324l142.8,71.4v28.152L142.8,381.276z M306,381.072V316.2v-40.8v-64.872
			L470.832,295.8L306,381.072z"/>
		<path d="M324.36,362.1c2.856,0,5.1-2.244,5.1-5.1V234.6c0-2.856-2.244-5.1-5.1-5.1s-5.1,2.244-5.1,5.1V357
			C319.26,359.856,321.504,362.1,324.36,362.1z"/>
	</g>
</g>
<g>
</g>
<g>
</g>
<g>
</g>
<g>
</g>
<g>
</g>
<g>
</g>
<g>
</g>
<g>
</g>
<g>
</g>
<g>
</g>
<g>
</g>
<g>
</g>
<g>
</g>
<g>
</g>
<g>
</g>
</svg>
