<?xml version="1.0" encoding="iso-8859-1"?>
<!-- Generator: Adobe Illustrator 18.1.1, SVG Export Plug-In . SVG Version: 6.00 Build 0)  -->
<svg version="1.1" id="Capa_1" xmlns="http://www.w3.org/2000/svg" xmlns:xlink="http://www.w3.org/1999/xlink" x="0px" y="0px"
	 viewBox="0 0 591.6 591.6" style="enable-background:new 0 0 591.6 591.6;" xml:space="preserve">
<g>
	<g>
		<path d="M418.2,0H173.4c-28.152,0-51,22.848-51,51v489.6c0,28.152,22.848,51,51,51h244.8c28.152,0,51-22.848,51-51V51
			C469.2,22.848,446.352,0,418.2,0z M173.4,20.4h244.8c16.932,0,30.6,13.668,30.6,30.6v402.9h-306V51
			C142.8,34.068,156.468,20.4,173.4,20.4z M418.2,571.2H173.4c-16.932,0-30.6-13.668-30.6-30.6v-76.5h306v76.5
			C448.8,557.532,435.132,571.2,418.2,571.2z"/>
		<circle cx="295.8" cy="520.2" r="20.4"/>
		<path d="M173.4,178.5c2.856,0,5.1-2.244,5.1-5.1V56.1H255c2.856,0,5.1-2.244,5.1-5.1s-2.244-5.1-5.1-5.1h-81.6
			c-2.856,0-5.1,2.244-5.1,5.1v122.4C168.3,176.256,170.544,178.5,173.4,178.5z"/>
	</g>
</g>
<g>
</g>
<g>
</g>
<g>
</g>
<g>
</g>
<g>
</g>
<g>
</g>
<g>
</g>
<g>
</g>
<g>
</g>
<g>
</g>
<g>
</g>
<g>
</g>
<g>
</g>
<g>
</g>
<g>
</g>
</svg>
