<?xml version="1.0" encoding="iso-8859-1"?>
<!-- Generator: Adobe Illustrator 18.1.1, SVG Export Plug-In . SVG Version: 6.00 Build 0)  -->
<svg version="1.1" id="Capa_1" xmlns="http://www.w3.org/2000/svg" xmlns:xlink="http://www.w3.org/1999/xlink" x="0px" y="0px"
	 viewBox="0 0 612 792" style="enable-background:new 0 0 612 792;" xml:space="preserve">
<path d="M31.645,385.452h232.058c17.51,0,31.644-14.345,31.644-31.644V121.749c0-17.51-14.135-31.644-31.644-31.644H31.645
	C14.135,90.105,0,104.24,0,121.749v232.058C0,371.317,14.135,385.452,31.645,385.452z M21.097,121.749
	c0-5.907,4.641-10.548,10.548-10.548h232.058c5.907,0,10.548,4.641,10.548,10.548v232.058c0,5.907-4.641,10.548-10.548,10.548
	H31.645c-5.907,0-10.548-4.641-10.548-10.548V121.749z M47.467,206.134v-63.289c0-2.953,2.32-5.274,5.274-5.274h63.289
	c2.953,0,5.274,2.321,5.274,5.274s-2.32,5.274-5.274,5.274H58.015v58.014c0,2.742-2.321,5.274-5.274,5.274
	C49.787,211.408,47.467,209.088,47.467,206.134z M316.443,185.038c0-5.907,4.641-10.548,10.548-10.548h274.25
	c5.907,0,10.548,4.641,10.548,10.548c0,5.907-4.641,10.548-10.548,10.548h-274.25C321.084,195.586,316.443,190.945,316.443,185.038z
	 M316.443,290.519c0-5.907,4.641-10.548,10.548-10.548h274.25c5.907,0,10.548,4.641,10.548,10.548s-4.641,10.548-10.548,10.548
	h-274.25C321.084,301.067,316.443,296.426,316.443,290.519z M316.443,237.778c0-5.907,4.641-10.548,10.548-10.548h274.25
	c5.907,0,10.548,4.641,10.548,10.548c0,5.907-4.641,10.548-10.548,10.548h-274.25C321.084,248.326,316.443,243.685,316.443,237.778z
	 M580.356,406.548H348.298c-17.51,0-31.644,14.134-31.644,31.644V670.25c0,17.51,14.135,31.644,31.644,31.644h232.058
	c17.299,0,31.644-14.345,31.644-31.644V438.192C612,420.682,597.866,406.548,580.356,406.548z M590.904,670.25
	c0,5.907-4.641,10.548-10.548,10.548H348.298c-5.907,0-10.548-4.641-10.548-10.548V438.192c0-5.907,4.641-10.548,10.548-10.548v0
	h232.058c5.907,0,10.548,4.641,10.548,10.548V670.25z M437.746,459.288c0,2.953-2.32,5.274-5.274,5.274h-58.015v58.014
	c0,2.742-2.321,5.274-5.274,5.274c-2.953,0-5.274-2.321-5.274-5.274v-63.288c0-2.953,2.32-5.274,5.274-5.274h63.288
	C435.425,454.014,437.746,456.335,437.746,459.288z M295.558,501.481c0,5.907-4.852,10.548-10.548,10.548H10.759
	c-5.907,0-10.548-4.641-10.548-10.548c0-5.907,4.641-10.548,10.548-10.548h274.25C290.916,490.933,295.558,495.574,295.558,501.481z
	 M295.558,554.221c0,5.907-4.852,10.548-10.548,10.548H10.759c-5.907,0-10.548-4.641-10.548-10.548
	c0-5.907,4.641-10.548,10.548-10.548h274.25C290.916,543.673,295.558,548.314,295.558,554.221z M295.558,606.962
	c0,5.907-4.852,10.548-10.548,10.548H10.759c-5.907,0-10.548-4.641-10.548-10.548c0-5.907,4.641-10.548,10.548-10.548h274.25
	C290.916,596.414,295.558,601.055,295.558,606.962z"/>
</svg>
