<?xml version="1.0" encoding="iso-8859-1"?>
<!-- Generator: Adobe Illustrator 18.1.1, SVG Export Plug-In . SVG Version: 6.00 Build 0)  -->
<svg version="1.1" id="Capa_1" xmlns="http://www.w3.org/2000/svg" xmlns:xlink="http://www.w3.org/1999/xlink" x="0px" y="0px"
	 viewBox="0 0 479.4 479.4" style="enable-background:new 0 0 479.4 479.4;" xml:space="preserve">
<g>
	<g>
		<path d="M193.8,66.3c-36.516,0-66.3,29.58-66.3,66.3c0,2.856,2.244,5.1,5.1,5.1s5.1-2.244,5.1-5.1c0-31.008,25.092-56.1,56.1-56.1
			c2.856,0,5.1-2.244,5.1-5.1S196.656,66.3,193.8,66.3z"/>
		<path d="M377.4,285.6c-12.24,0-23.052,5.304-30.6,13.872c-7.548-8.568-18.36-13.872-30.6-13.872
			c-12.24,0-23.052,5.304-30.6,13.872c-7.548-8.568-18.36-13.872-30.6-13.872c-7.344,0-14.484,2.04-20.4,5.508V258.06
			c1.224,0,2.244-0.204,3.468-0.612C290.904,238.68,326.4,188.496,326.4,132.6C326.4,59.568,266.832,0,193.8,0
			S61.2,59.568,61.2,132.6c0,56.1,35.496,106.08,88.332,124.848c1.224,0.408,2.244,0.612,3.468,0.612V469.2
			c0,5.712,4.488,10.2,10.2,10.2s10.2-4.488,10.2-10.2V204c0-11.22,9.18-20.4,20.4-20.4c11.22,0,20.4,9.18,20.4,20.4v163.2
			c0,5.712,4.488,10.2,10.2,10.2s10.2-4.488,10.2-10.2v-40.8c0-11.22,9.18-20.4,20.4-20.4s20.4,9.18,20.4,20.4v40.8
			c0,5.712,4.488,10.2,10.2,10.2s10.2-4.488,10.2-10.2v-40.8c0-11.22,9.18-20.4,20.4-20.4s20.4,9.18,20.4,20.4v40.8
			c0,5.712,4.488,10.2,10.2,10.2s10.2-4.488,10.2-10.2v-40.8c0-11.22,9.18-20.4,20.4-20.4s20.4,9.18,20.4,20.4v142.8
			c0,5.712,4.488,10.2,10.2,10.2s10.2-4.488,10.2-10.2V326.4C418.2,303.756,399.84,285.6,377.4,285.6z M193.8,163.2
			c-22.44,0-40.8,18.36-40.8,40.8v33.048c-42.84-16.728-71.4-58.14-71.4-104.448c0-61.812,50.388-112.2,112.2-112.2
			S306,70.788,306,132.6c0,46.104-28.56,87.72-71.4,104.448V204C234.6,181.356,216.24,163.2,193.8,163.2z"/>
	</g>
</g>
<g>
</g>
<g>
</g>
<g>
</g>
<g>
</g>
<g>
</g>
<g>
</g>
<g>
</g>
<g>
</g>
<g>
</g>
<g>
</g>
<g>
</g>
<g>
</g>
<g>
</g>
<g>
</g>
<g>
</g>
</svg>
