<svg xmlns="http://www.w3.org/2000/svg" viewBox="0 0 550.8 550.8"><path d="M479.4 408h-51V142.8h51c39.372 0 71.4-32.028 71.4-71.4S518.772 0 479.4 0 408 32.028 408 71.4v51H142.8v-51C142.8 32.028 110.772 0 71.4 0S0 32.028 0 71.4s32.028 71.4 71.4 71.4h51V408h-51C32.028 408 0 440.028 0 479.4s32.028 71.4 71.4 71.4 71.4-32.028 71.4-71.4v-51H408v51c0 39.372 32.028 71.4 71.4 71.4s71.4-32.028 71.4-71.4-32.028-71.4-71.4-71.4zm-51-336.6c0-28.152 22.848-51 51-51s51 22.848 51 51-22.848 51-51 51h-51v-51zm-306 408c0 28.152-22.848 51-51 51s-51-22.848-51-51 22.848-51 51-51h51v51zm0-357h-51c-28.152 0-51-22.848-51-51s22.848-51 51-51 51 22.848 51 51v51zM408 408H142.8V142.8H408V408zm71.4 122.4c-28.152 0-51-22.848-51-51v-51h51c28.152 0 51 22.848 51 51s-22.848 51-51 51z"/><path d="M35.7 479.4c0 2.856 2.244 5.1 5.1 5.1s5.1-2.244 5.1-5.1c0-14.076 11.424-25.5 25.5-25.5 2.856 0 5.1-2.244 5.1-5.1s-2.244-5.1-5.1-5.1c-19.584 0-35.7 16.116-35.7 35.7zM71.4 35.7c-19.584 0-35.7 16.116-35.7 35.7 0 2.856 2.244 5.1 5.1 5.1s5.1-2.244 5.1-5.1c0-14.076 11.424-25.5 25.5-25.5 2.856 0 5.1-2.244 5.1-5.1s-2.244-5.1-5.1-5.1zM484.5 40.8c0-2.856-2.244-5.1-5.1-5.1-19.584 0-35.7 16.116-35.7 35.7 0 2.856 2.244 5.1 5.1 5.1s5.1-2.244 5.1-5.1c0-14.076 11.424-25.5 25.5-25.5 2.856 0 5.1-2.244 5.1-5.1zM479.4 443.7c-19.584 0-35.7 16.116-35.7 35.7 0 2.856 2.244 5.1 5.1 5.1s5.1-2.244 5.1-5.1c0-14.076 11.424-25.5 25.5-25.5 2.856 0 5.1-2.244 5.1-5.1s-2.244-5.1-5.1-5.1z"/></svg>