<svg xmlns="http://www.w3.org/2000/svg" viewBox="0 0 591.6 591.6"><path d="M581.4 530.4h-74.052L346.392 7.14C344.964 2.856 341.088 0 336.6 0H255c-4.488 0-8.364 2.856-9.792 7.14L84.252 530.4H10.2c-5.712 0-10.2 4.488-10.2 10.2v40.8c0 5.712 4.488 10.2 10.2 10.2h571.2c5.712 0 10.2-4.488 10.2-10.2v-40.8c0-5.712-4.488-10.2-10.2-10.2zM232.764 117.3h126.072l28.152 91.8h-182.58l28.356-91.8zm-31.416 102h188.904l28.152 91.8H172.992l28.356-91.8zm-31.416 102h251.736l28.152 91.8H141.78l28.152-91.8zm-31.416 102h314.568l28.152 91.8H110.364l28.152-91.8zM262.548 20.4h66.504l26.724 86.7H235.824l26.724-86.7zM571.2 571.2H20.4v-20.4h71.4c4.488 0 8.364-2.856 9.792-7.14l5.712-18.36H484.5l5.712 18.36c1.224 4.284 5.304 7.14 9.792 7.14h71.4v20.4h-.204z"/></svg>