<svg xmlns="http://www.w3.org/2000/svg" viewBox="0 0 591.6 591.6"><path d="M540.6 40.8H510V10.2C510 4.488 505.512 0 499.8 0s-10.2 4.488-10.2 10.2v30.6H408V10.2C408 4.488 403.512 0 397.8 0s-10.2 4.488-10.2 10.2v30.6H306V10.2C306 4.488 301.512 0 295.8 0s-10.2 4.488-10.2 10.2v30.6H204V10.2C204 4.488 199.512 0 193.8 0s-10.2 4.488-10.2 10.2v30.6H102V10.2C102 4.488 97.512 0 91.8 0S81.6 4.488 81.6 10.2v30.6H51c-28.152 0-51 23.052-51 51v448.8c0 28.152 22.848 51 51 51h489.6c28.152 0 51-22.848 51-51V91.8c0-27.948-22.848-51-51-51zM51 61.2h30.6v30.6c0 5.712 4.488 10.2 10.2 10.2S102 97.512 102 91.8V61.2h81.6v30.6c0 5.712 4.488 10.2 10.2 10.2S204 97.512 204 91.8V61.2h81.6v30.6c0 5.712 4.488 10.2 10.2 10.2S306 97.512 306 91.8V61.2h81.6v30.6c0 5.712 4.488 10.2 10.2 10.2S408 97.512 408 91.8V61.2h81.6v30.6c0 5.712 4.488 10.2 10.2 10.2S510 97.512 510 91.8V61.2h30.6c16.932 0 30.6 13.668 30.6 30.6v91.8H20.4V91.8c0-16.728 13.668-30.6 30.6-30.6zm489.6 510H51c-16.932 0-30.6-13.668-30.6-30.6V204h550.8v336.6c0 16.932-13.668 30.6-30.6 30.6z"/><path d="M204 510c33.66 0 61.2-27.54 61.2-61.2V306c0-33.66-27.54-61.2-61.2-61.2s-61.2 27.54-61.2 61.2v142.8c0 33.864 27.54 61.2 61.2 61.2zm-40.8-204c0-22.44 18.36-40.8 40.8-40.8s40.8 18.36 40.8 40.8v142.8c0 22.44-18.36 40.8-40.8 40.8s-40.8-18.36-40.8-40.8V306zM336.6 489.6c-5.712 0-10.2 4.488-10.2 10.2s4.488 10.2 10.2 10.2h102c5.712 0 10.2-4.488 10.2-10.2s-4.488-10.2-10.2-10.2H408V255c0-.612 0-1.428-.204-2.04 0-.204-.204-.612-.204-.816 0-.408-.204-.612-.408-1.02s-.408-.612-.612-1.02c-.204-.204-.204-.612-.408-.816-.816-1.02-1.632-2.04-2.856-2.856-.204-.204-.612-.204-.816-.408-.408-.204-.612-.408-1.02-.612-.408-.204-.612-.204-1.02-.408-.204 0-.612-.204-.816-.204-.612-.204-1.224-.204-1.836-.204-.612 0-1.224 0-1.836.204-.408 0-.612.204-.816.204-.408 0-.612.204-1.02.408s-.612.408-1.02.612c-.204.204-.612.204-.816.408-.612.408-1.02.816-1.632 1.224l-61.2 61.2c-4.08 4.08-4.08 10.404 0 14.484 2.04 2.04 4.692 3.06 7.14 3.06 2.448 0 5.304-1.02 7.14-3.06l43.86-43.86V489.6h-51zM540.6 535.5H51c-2.856 0-5.1 2.244-5.1 5.1 0 2.856 2.244 5.1 5.1 5.1h489.6c2.856 0 5.1-2.244 5.1-5.1 0-2.856-2.244-5.1-5.1-5.1z"/><path d="M183.6 306c0-11.22 9.18-20.4 20.4-20.4 2.856 0 5.1-2.244 5.1-5.1s-2.244-5.1-5.1-5.1c-16.932 0-30.6 13.668-30.6 30.6 0 2.856 2.244 5.1 5.1 5.1s5.1-2.244 5.1-5.1zM51 158.1h489.6c2.856 0 5.1-2.244 5.1-5.1s-2.244-5.1-5.1-5.1H51c-2.856 0-5.1 2.244-5.1 5.1s2.244 5.1 5.1 5.1z"/></svg>