<svg xmlns="http://www.w3.org/2000/svg" viewBox="0 0 593.64 593.64"><path d="M541.02 130.152l-.407-.408c-20.604-29.988-46.716-56.1-76.704-76.704l-.41-.408C414.54 18.156 356.81 0 296.834 0S179.125 18.156 130.165 52.632l-.408.408c-30.192 20.604-56.1 46.512-76.908 76.704l-.41.408c-69.767 99.756-69.767 233.58.205 333.336l.408.408c20.604 29.988 46.716 56.1 76.704 76.704l.408.408c49.164 34.476 106.692 52.632 166.668 52.632S414.54 575.484 463.5 541.008l.41-.408c29.987-20.604 56.1-46.716 76.703-76.704l.408-.408c69.973-99.756 69.973-233.58 0-333.336zM296.834 572.22c-55.692 0-107.508-16.524-150.756-45.084l35.088-49.98c34.476 22.848 74.256 34.884 115.668 34.884s81.396-12.036 115.668-34.884l35.09 49.98c-43.25 28.56-95.065 45.084-150.757 45.084zm0-81.6c-106.896 0-193.8-86.904-193.8-193.8s86.904-193.8 193.8-193.8 193.8 86.904 193.8 193.8-86.904 193.8-193.8 193.8zm-275.4-193.8c0-55.692 16.524-107.508 45.084-150.756l49.98 35.088c-46.308 69.768-46.308 161.568 0 231.54l-49.98 35.088c-28.56-43.452-45.084-95.268-45.084-150.96zm275.4-275.4c55.692 0 107.508 16.524 150.756 45.084l-35.09 49.98C378.026 93.636 338.246 81.6 296.834 81.6c-41.412 0-81.396 12.036-115.668 34.884l-35.088-49.98c43.248-28.56 95.064-45.084 150.756-45.084zM477.17 181.152l49.98-35.088c28.56 43.248 45.083 95.064 45.083 150.756S555.71 404.328 527.15 447.576l-49.98-35.088c46.307-69.768 46.307-161.568 0-231.336zm44.267-43.452l-50.184 35.088c-13.872-19.38-31.008-36.516-50.388-50.388l35.088-50.184c25.296 17.952 47.532 40.188 65.484 65.484zM137.713 72.216L172.8 122.4c-19.38 13.872-36.515 31.008-50.387 50.388L72.23 137.7c17.95-25.296 40.187-47.532 65.483-65.484zM72.23 455.94l50.183-35.088c13.872 19.38 31.008 36.516 50.388 50.388l-35.087 50.184c-25.296-17.952-47.532-40.188-65.484-65.484zm383.723 65.484l-35.088-50.184c19.38-13.872 36.516-31.008 50.388-50.388l50.184 35.088c-17.952 25.296-40.188 47.532-65.484 65.484z"/></svg>