<svg xmlns="http://www.w3.org/2000/svg" viewBox="0 0 491.442 491.442"><path d="M476.544 58.143l-43.248-43.248C423.708 5.307 410.856.003 397.188.003s-26.52 5.304-36.108 14.892L231.336 144.64c-19.788 19.787-19.788 52.223 0 72.215l14.484 14.484-14.484 14.483-14.484-14.484c-9.588-9.59-22.44-14.893-36.108-14.893-13.668 0-26.52 5.304-36.108 14.892L14.892 361.082C5.304 370.67 0 383.523 0 397.19s5.304 26.52 14.892 36.11l43.248 43.247c9.588 9.588 22.44 14.892 36.108 14.892s26.52-5.305 36.108-14.893L260.1 346.803c9.588-9.588 14.892-22.44 14.892-36.108s-5.304-26.52-14.892-36.108l-14.484-14.484L260.1 245.62l14.484 14.483c9.588 9.588 22.44 14.892 36.108 14.892s26.52-5.304 36.108-14.892L476.544 130.36c9.588-9.59 14.892-22.44 14.892-36.11.204-13.667-5.1-26.52-14.892-36.107zM245.82 288.867c5.712 5.712 8.976 13.464 8.976 21.624s-3.264 15.913-8.976 21.625L116.076 461.86c-5.712 5.71-13.464 8.975-21.624 8.975s-15.912-3.264-21.624-8.976L29.58 418.61c-5.712-5.71-8.976-13.463-8.976-21.623s3.264-15.912 8.976-21.624L159.324 245.62c5.712-5.713 13.464-8.977 21.624-8.977s15.912 3.264 21.624 8.976l14.484 14.483-50.388 50.388c-4.08 4.08-4.08 10.405 0 14.485 2.04 2.04 4.692 3.06 7.14 3.06 2.652 0 5.304-1.02 7.14-3.06l50.388-50.388 14.484 14.28zm216.444-172.992L332.316 245.62c-5.712 5.71-13.464 8.975-21.624 8.975s-15.912-3.264-21.624-8.976l-14.484-14.485 50.388-50.388c4.08-4.08 4.08-10.404 0-14.484s-10.404-4.08-14.484 0L260.1 216.65l-14.484-14.483c-11.832-11.832-11.832-31.416 0-43.248L375.36 29.174c5.712-5.712 13.464-8.976 21.624-8.976s15.912 3.263 21.624 8.975l43.248 43.248c5.712 5.712 8.976 13.464 8.976 21.624.408 8.364-2.856 15.912-8.568 21.828z"/><path d="M83.64 364.55c-2.04-2.04-5.304-2.04-7.14 0l-28.764 28.765c-1.02 1.02-1.428 2.244-1.428 3.672s.612 2.652 1.428 3.672L76.5 429.422c1.02 1.02 2.244 1.428 3.672 1.428s2.652-.407 3.672-1.427c2.04-2.04 2.04-5.304 0-7.14l-25.296-25.296 25.296-25.296c1.632-1.835 1.632-5.1-.204-7.14zM415.344 61.61c-2.04-2.04-5.304-2.04-7.14 0-2.04 2.04-2.04 5.305 0 7.14L433.5 94.048l-25.296 25.296c-2.04 2.04-2.04 5.304 0 7.14 1.02 1.02 2.244 1.428 3.672 1.428s2.652-.407 3.672-1.427l28.764-28.764c2.04-2.04 2.04-5.305 0-7.14l-28.968-28.97z"/></svg>