<svg xmlns="http://www.w3.org/2000/svg" viewBox="0 0 612 612"><path d="M81.964 0c-42.184 0-76.5 34.316-76.5 76.5S39.78 153 81.964 153c42.184 0 76.5-34.316 76.5-76.5 0-42.185-34.316-76.5-76.5-76.5zm0 131.142c-30.163 0-54.643-24.48-54.643-54.643S51.8 21.855 81.965 21.855s54.643 24.48 54.643 54.643-24.48 54.642-54.643 54.642zm5.464-87.428c0 3.06-2.404 5.464-5.464 5.464-15.08 0-27.32 12.24-27.32 27.32 0 2.842-2.405 5.465-5.465 5.465s-5.465-2.404-5.465-5.464c0-20.984 17.267-38.25 38.25-38.25 3.06 0 5.463 2.404 5.463 5.464zM81.964 229.5c-42.184 0-76.5 34.316-76.5 76.5s34.315 76.5 76.5 76.5c42.184 0 76.5-34.316 76.5-76.5 0-42.185-34.316-76.5-76.5-76.5zm0 131.143c-30.163 0-54.643-24.48-54.643-54.643s24.48-54.643 54.644-54.643 54.643 24.48 54.643 54.643-24.48 54.643-54.643 54.643zm5.464-87.43c0 3.06-2.404 5.465-5.464 5.465-15.08 0-27.32 12.24-27.32 27.32 0 2.842-2.405 5.465-5.465 5.465s-5.465-2.404-5.465-5.464c0-20.984 17.267-38.25 38.25-38.25 3.06 0 5.463 2.404 5.463 5.464zM81.964 459c-42.184 0-76.5 34.316-76.5 76.5S39.78 612 81.964 612c42.184 0 76.5-34.316 76.5-76.5 0-42.185-34.316-76.5-76.5-76.5zm0 131.143c-30.163 0-54.643-24.48-54.643-54.643s24.48-54.643 54.644-54.643 54.643 24.48 54.643 54.643-24.48 54.643-54.643 54.643zm5.464-87.43c0 3.06-2.404 5.465-5.464 5.465-15.08 0-27.32 12.24-27.32 27.32 0 2.842-2.405 5.465-5.465 5.465s-5.465-2.404-5.465-5.464c0-20.984 17.267-38.25 38.25-38.25 3.06 0 5.463 2.404 5.463 5.464zM267.75 153h262.286c42.184 0 76.5-34.316 76.5-76.5S572.22 0 530.036 0H267.75c-42.184 0-76.5 34.316-76.5 76.5s34.316 76.5 76.5 76.5zm0-131.143h262.286c30.163 0 54.643 24.48 54.643 54.643s-24.48 54.643-54.644 54.643H267.75c-30.163 0-54.643-24.48-54.643-54.643s24.48-54.643 54.643-54.643zM530.036 229.5H267.75c-42.184 0-76.5 34.316-76.5 76.5s34.316 76.5 76.5 76.5h262.286c42.184 0 76.5-34.316 76.5-76.5 0-42.185-34.316-76.5-76.5-76.5zm0 131.142H267.75c-30.163 0-54.643-24.48-54.643-54.643s24.48-54.644 54.643-54.644h262.286c30.163 0 54.643 24.48 54.643 54.643s-24.48 54.642-54.644 54.642zm0 98.358H267.75c-42.184 0-76.5 34.316-76.5 76.5s34.316 76.5 76.5 76.5h262.286c42.184 0 76.5-34.316 76.5-76.5 0-42.185-34.316-76.5-76.5-76.5zm0 131.143H267.75c-30.163 0-54.643-24.48-54.643-54.643s24.48-54.643 54.643-54.643h262.286c30.163 0 54.643 24.48 54.643 54.643s-24.48 54.643-54.644 54.643zM229.5 76.5c0-20.983 17.267-38.25 38.25-38.25 3.06 0 5.464 2.404 5.464 5.464s-2.404 5.464-5.464 5.464c-15.08 0-27.32 12.24-27.32 27.32 0 2.842-2.405 5.465-5.465 5.465S229.5 79.56 229.5 76.5zm43.714 196.714c0 3.06-2.404 5.464-5.464 5.464-15.08 0-27.32 12.24-27.32 27.32 0 2.843-2.405 5.465-5.465 5.465S229.5 309.06 229.5 306c0-20.983 17.267-38.25 38.25-38.25 3.06 0 5.464 2.404 5.464 5.464zm0 229.5c0 3.06-2.404 5.464-5.464 5.464-15.08 0-27.32 12.24-27.32 27.32 0 2.842-2.405 5.465-5.465 5.465s-5.464-2.404-5.464-5.464c0-20.984 17.268-38.25 38.25-38.25 3.06 0 5.464 2.404 5.464 5.464zM568.286 535.5c0 20.983-17.267 38.25-38.25 38.25-3.06 0-5.464-2.404-5.464-5.464s2.404-5.464 5.464-5.464c15.08 0 27.32-12.24 27.32-27.32 0-3.06 2.405-5.465 5.465-5.465s5.466 2.403 5.466 5.463zM524.57 109.285c0-3.06 2.405-5.464 5.465-5.464 15.08 0 27.32-12.24 27.32-27.32 0-3.06 2.405-5.464 5.465-5.464s5.464 2.404 5.464 5.464c0 20.983-17.267 38.25-38.25 38.25-3.058 0-5.463-2.405-5.463-5.465zM568.287 306c0 20.983-17.267 38.25-38.25 38.25-3.06 0-5.464-2.404-5.464-5.464s2.404-5.464 5.464-5.464c15.08 0 27.32-12.24 27.32-27.32 0-3.06 2.405-5.465 5.465-5.465s5.466 2.403 5.466 5.463z"/></svg>