<svg xmlns="http://www.w3.org/2000/svg" viewBox="0 0 591.6 591.6"><path d="M540.6 224.37h-51v-30.6c0-5.71-4.488-10.2-10.2-10.2s-10.2 4.49-10.2 10.2v30.6H122.4v-30.6c0-68.34 40.188-130.355 102.612-158.303s135.456-16.524 186.456 28.968c4.284 3.672 10.608 3.468 14.484-.816 3.672-4.285 3.468-10.61-.816-14.485C368.22-1.457 286.416-14.31 216.648 16.903 147.084 47.91 102 117.475 102 193.77v30.6H51c-28.152 0-51 22.85-51 51v265.2c0 28.153 22.848 51 51 51h489.6c28.152 0 51-22.847 51-51v-265.2c0-28.15-22.848-51-51-51zm30.6 316.2c0 16.933-13.668 30.6-30.6 30.6H51c-16.932 0-30.6-13.667-30.6-30.6v-265.2c0-16.93 13.668-30.6 30.6-30.6h489.6c16.932 0 30.6 13.67 30.6 30.6v265.2z"/><path d="M295.8 285.57c-29.376 0-56.1 18.36-66.708 45.9-9.996 26.317-3.672 55.693 15.504 73.44v74.46c0 18.157 9.792 35.09 25.5 44.27 7.752 4.487 16.524 6.73 25.5 6.73s17.748-2.447 25.5-6.73c15.708-9.18 25.5-25.91 25.5-44.065v-74.46c19.176-17.748 25.704-47.124 15.504-73.44-10.2-27.744-36.924-46.104-66.3-46.104zm34.68 106.49c-2.448 1.835-3.876 4.895-3.876 8.16v79.355c0 10.812-5.916 21.012-15.3 26.52-9.384 5.304-21.216 5.304-30.6 0-9.384-5.508-15.3-15.504-15.3-26.52V400.22c0-3.06-1.428-6.12-3.876-8.16-15.096-11.833-20.604-33.66-13.056-53.45 7.548-19.583 26.724-32.64 47.532-32.64 21.012 0 40.188 13.057 47.532 32.64 7.344 19.79 2.04 41.617-13.056 53.45zM132.6 270.27H51c-2.856 0-5.1 2.245-5.1 5.1v81.6c0 2.857 2.244 5.1 5.1 5.1s5.1-2.243 5.1-5.1v-76.5h76.5c2.856 0 5.1-2.243 5.1-5.1s-2.244-5.1-5.1-5.1z"/></svg>