<svg xmlns="http://www.w3.org/2000/svg" viewBox="0 0 591.192 591.192"><path d="M259.896 519.588c0 2.856 2.244 5.1 5.1 5.1s5.1-2.244 5.1-5.1c0-14.076 11.424-25.5 25.5-25.5 2.856 0 5.1-2.244 5.1-5.1s-2.244-5.1-5.1-5.1c-19.584 0-35.7 16.116-35.7 35.7z"/><path d="M570.996 131.988c0-39.372-32.028-71.4-71.4-71.4s-71.4 32.028-71.4 71.4c0 35.904 26.52 65.688 61.2 70.584-2.04 107.508-39.78 116.076-91.596 128.112-29.376 6.732-62.22 14.28-91.8 40.8V121.176h51c5.304 0 9.588-4.284 9.588-9.588 0-2.04-.612-4.08-1.836-5.508L303.756 4.692C302.124 1.836 298.86 0 295.596 0s-6.528 1.836-8.16 4.692l-61.2 102c-1.836 2.856-1.836 6.528-.204 9.588 1.632 3.06 4.896 4.896 8.364 4.896h51v311.712c-29.58-26.52-62.424-34.068-91.8-40.8-51.612-11.832-89.352-20.604-91.596-127.296h40.596c11.22 0 20.4-9.18 20.4-20.4v-102c0-11.22-9.18-20.4-20.4-20.4h-102c-11.22 0-20.4 9.18-20.4 20.4v102c0 11.22 9.18 20.4 20.4 20.4H81.6c2.652 123.012 53.652 134.844 107.508 147.288 29.376 6.732 59.568 13.668 86.292 39.372-29.376 8.772-51 36.108-51 68.34 0 39.372 32.028 71.4 71.4 71.4s71.4-32.028 71.4-71.4c0-35.904-26.724-65.688-61.2-70.584v-48.144c29.172-34.68 63.24-42.636 96.492-50.184 54.06-12.444 105.06-24.276 107.508-147.9 34.272-5.1 60.996-34.884 60.996-70.992zm-275.4-103.836l44.472 74.052h-88.74l44.268-74.052zm-255 114.036h102v102h-102v-102zm306 377.4c0 28.152-22.848 51-51 51s-51-22.848-51-51 22.848-51 51-51 51 22.848 51 51zm153-336.6c-28.152 0-51-22.848-51-51s22.848-51 51-51 51 22.848 51 51-22.848 51-51 51z"/><path d="M499.596 96.288c-19.584 0-35.7 16.116-35.7 35.7 0 2.856 2.244 5.1 5.1 5.1s5.1-2.244 5.1-5.1c0-14.076 11.424-25.5 25.5-25.5 2.856 0 5.1-2.244 5.1-5.1s-2.244-5.1-5.1-5.1zM298.248 54.264c-2.448-1.428-5.508-.816-6.936 1.632l-20.4 32.64c-1.428 2.448-.816 5.508 1.632 6.936.816.612 1.836.816 2.652.816 1.632 0 3.264-.816 4.284-2.448l20.4-32.64c1.632-2.244.816-5.508-1.632-6.936zM95.676 151.368h-40.8c-2.856 0-5.1 2.244-5.1 5.1v40.8c0 2.856 2.244 5.1 5.1 5.1 2.856 0 5.1-2.244 5.1-5.1v-35.7h35.7c2.856 0 5.1-2.244 5.1-5.1s-2.244-5.1-5.1-5.1z"/></svg>