<svg xmlns="http://www.w3.org/2000/svg" viewBox="0 0 591.6 591.6"><path d="M112.2 239.7c-31.008 0-56.1 25.092-56.1 56.1 0 2.856 2.244 5.1 5.1 5.1s5.1-2.244 5.1-5.1c0-25.296 20.604-45.9 45.9-45.9 2.856 0 5.1-2.244 5.1-5.1 0-2.856-2.244-5.1-5.1-5.1z"/><path d="M479.4 183.6c-61.812 0-112.2 50.388-112.2 112.2 0 37.944 18.972 71.4 47.736 91.8H176.664c28.968-20.4 47.736-53.856 47.736-91.8 0-61.812-50.388-112.2-112.2-112.2S0 233.988 0 295.8 50.388 408 112.2 408h367.2c61.812 0 112.2-50.388 112.2-112.2s-50.388-112.2-112.2-112.2zm-459 112.2c0-50.592 41.208-91.8 91.8-91.8s91.8 41.208 91.8 91.8-41.208 91.8-91.8 91.8-91.8-41.208-91.8-91.8zm459 91.8c-50.592 0-91.8-41.208-91.8-91.8s41.208-91.8 91.8-91.8 91.8 41.208 91.8 91.8-41.208 91.8-91.8 91.8z"/><path d="M479.4 239.7c-31.008 0-56.1 25.092-56.1 56.1 0 2.856 2.244 5.1 5.1 5.1s5.1-2.244 5.1-5.1c0-25.296 20.604-45.9 45.9-45.9 2.856 0 5.1-2.244 5.1-5.1 0-2.856-2.244-5.1-5.1-5.1z"/></svg>