<svg xmlns="http://www.w3.org/2000/svg" viewBox="0 0 591.6 591.6"><path d="M448.8 357V234.6c0-5.712-4.488-10.2-10.2-10.2s-10.2 4.488-10.2 10.2V357c0 73.032-59.568 132.6-132.6 132.6S163.2 430.032 163.2 357V234.6c0-5.712-4.488-10.2-10.2-10.2s-10.2 4.488-10.2 10.2V357c0 80.988 63.24 147.288 142.8 152.592V571.2h-91.8c-5.712 0-10.2 4.488-10.2 10.2s4.488 10.2 10.2 10.2h204c5.712 0 10.2-4.488 10.2-10.2s-4.488-10.2-10.2-10.2H306v-61.608c79.56-5.304 142.8-71.808 142.8-152.592z"/><path d="M295.8 448.8c50.592 0 91.8-41.208 91.8-91.8V91.8c0-50.592-41.208-91.8-91.8-91.8S204 41.208 204 91.8V357c0 50.592 41.208 91.8 91.8 91.8zm-71.4-357c0-39.372 32.028-71.4 71.4-71.4s71.4 32.028 71.4 71.4V357c0 39.372-32.028 71.4-71.4 71.4s-71.4-32.028-71.4-71.4V91.8z"/><path d="M249.492 232.764c2.856 0 5.1-2.244 5.1-5.1v-122.4c0-27.132 22.032-49.368 49.368-49.368 2.856 0 5.1-2.244 5.1-5.1s-2.244-5.1-5.1-5.1c-32.844 0-59.568 26.724-59.568 59.568v122.4c0 2.856 2.244 5.1 5.1 5.1z"/></svg>