<svg xmlns="http://www.w3.org/2000/svg" viewBox="0 0 590.352 590.352"><path d="M577.818 511.404l-102-61.2c-2.856-1.836-6.528-1.836-9.588-.204-3.06 1.632-4.896 4.896-4.896 8.364v15.3c-67.728-1.632-117.3-35.7-159.936-109.548-1.428-2.448-4.488-3.264-6.936-1.836s-3.264 4.488-1.836 6.936c44.676 77.316 96.9 113.016 168.912 114.648v25.5c-74.256-1.836-142.8-42.432-180.132-107.1-18.768-32.436-28.764-69.564-28.764-107.1s9.996-74.664 28.764-107.1c37.128-64.464 105.876-105.06 179.928-107.1v51c0 3.468 1.836 6.528 4.896 8.364 1.428.816 3.06 1.224 4.692 1.224 1.632 0 3.468-.408 4.896-1.428l102-61.2c2.856-1.632 4.692-4.896 4.692-8.16 0-3.264-1.836-6.528-4.692-8.16l-102-61.2c-2.856-1.836-6.528-1.836-9.588-.204-3.06 1.632-4.896 4.896-4.896 8.364v51c-81.396 1.836-156.876 46.512-197.676 117.3-8.976 15.504-16.116 31.824-21.216 48.96-5.1-16.932-12.24-33.456-21.216-48.96-41.82-72.42-119.544-117.3-203.184-117.3-5.712 0-10.2 4.488-10.2 10.2s4.488 10.2 10.2 10.2c76.296 0 147.288 41.004 185.436 107.1 18.768 32.436 28.764 69.564 28.764 107.1s-9.996 74.664-28.764 107.1c-38.148 66.096-109.14 107.1-185.436 107.1-5.712 0-10.2 4.488-10.2 10.2s4.488 10.2 10.2 10.2c83.64 0 161.364-44.88 203.184-117.3 8.976-15.504 16.116-31.824 21.216-48.96 5.1 16.932 12.24 33.456 21.216 48.96 40.8 70.788 116.28 115.26 197.676 117.3v51c0 3.468 1.836 6.528 4.896 8.364 1.428.816 3.06 1.224 4.692 1.224 1.632 0 3.468-.408 4.896-1.428l102-61.2c2.856-1.632 4.692-4.896 4.692-8.16 0-3.264-1.836-6.528-4.692-8.16zM480.51 26.292l73.848 44.472-74.052 44.472V26.292h.204zm0 537.744v-88.74l74.052 44.472-74.052 44.268z"/><path d="M179.202 225.804c.816 1.836 2.652 3.06 4.692 3.06.612 0 1.428-.204 2.04-.408 2.652-1.224 3.672-4.08 2.652-6.732-25.908-57.324-92.82-115.26-170.544-115.26-2.856 0-5.1 2.244-5.1 5.1s2.244 5.1 5.1 5.1c73.44 0 136.68 54.876 161.16 109.14z"/></svg>