<svg xmlns="http://www.w3.org/2000/svg" viewBox="0 0 612 612"><path d="M263.793 0H31.655C14.14 0 0 14.14 0 31.656v232.138c0 17.516 14.14 31.655 31.655 31.655h232.138c17.516 0 31.655-14.352 31.655-31.656V31.656C295.448 14.14 281.308 0 263.793 0zm10.552 263.794c0 5.91-4.643 10.552-10.552 10.552H31.655c-5.91 0-10.552-4.643-10.552-10.552V31.656c0-5.91 4.643-10.552 10.552-10.552h232.138c5.91 0 10.552 4.643 10.552 10.552v232.138zM580.345 0H348.207c-17.516 0-31.655 14.14-31.655 31.655v232.138c0 17.516 14.14 31.655 31.655 31.655h232.138c17.516 0 31.655-14.35 31.655-31.655V31.656C612 14.14 597.86 0 580.345 0zm10.55 263.794c0 5.91-4.642 10.552-10.55 10.552H348.206c-5.91 0-10.552-4.643-10.552-10.552V31.656c0-5.91 4.643-10.552 10.552-10.552h232.138c5.91 0 10.552 4.643 10.552 10.552v232.138zm-327.102 52.758H31.655C14.14 316.552 0 330.692 0 348.207v232.138C0 597.86 14.14 612 31.655 612h232.138c17.516 0 31.655-14.35 31.655-31.655V348.207c0-17.516-14.14-31.655-31.655-31.655zm10.552 263.793c0 5.91-4.643 10.552-10.552 10.552H31.655c-5.91 0-10.552-4.643-10.552-10.552V348.207c0-5.91 4.643-10.552 10.552-10.552h232.138c5.91 0 10.552 4.643 10.552 10.552v232.138zm306-263.793H348.207c-17.516 0-31.655 14.14-31.655 31.655v232.138c0 17.516 14.14 31.655 31.655 31.655h232.138C597.86 612 612 597.65 612 580.345V348.207c0-17.516-14.14-31.655-31.655-31.655zm10.55 263.793c0 5.91-4.642 10.552-10.55 10.552H348.206c-5.91 0-10.552-4.643-10.552-10.552V348.207c0-5.91 4.643-10.552 10.552-10.552h232.138c5.91 0 10.552 4.643 10.552 10.552v232.138zM121.346 52.76c0 2.953-2.32 5.275-5.276 5.275H58.033v58.034c0 2.74-2.32 5.275-5.276 5.275-2.954 0-5.276-2.32-5.276-5.276V52.76c0-2.955 2.32-5.277 5.276-5.277h63.31c2.955 0 5.277 2.322 5.277 5.276zm316.55 0c0 2.953-2.32 5.275-5.275 5.275h-58.034v58.034c0 2.74-2.32 5.275-5.276 5.275-2.954 0-5.276-2.32-5.276-5.276V52.76c0-2.955 2.32-5.277 5.276-5.277h63.31c2.955 0 5.276 2.322 5.276 5.276zm-316.55 316.55c0 2.955-2.32 5.277-5.276 5.277H58.033v58.034c0 2.743-2.32 5.277-5.276 5.277-2.954 0-5.276-2.32-5.276-5.276v-63.31c0-2.953 2.32-5.275 5.276-5.275h63.31c2.955 0 5.277 2.32 5.277 5.276zm316.55 0c0 2.955-2.32 5.277-5.275 5.277h-58.034v58.034c0 2.743-2.32 5.277-5.276 5.277-2.954 0-5.276-2.32-5.276-5.276v-63.31c0-2.953 2.32-5.275 5.276-5.275h63.31c2.955 0 5.276 2.32 5.276 5.276z"/></svg>