<svg xmlns="http://www.w3.org/2000/svg" viewBox="0 0 612 792"><path d="M31.645 385.452h232.058c17.51 0 31.644-14.345 31.644-31.644v-232.06c0-17.51-14.135-31.643-31.644-31.643H31.645C14.135 90.105 0 104.24 0 121.75v232.057c0 17.51 14.135 31.645 31.645 31.645zM21.097 121.75c0-5.908 4.64-10.55 10.548-10.55h232.058c5.907 0 10.548 4.642 10.548 10.55v232.057c0 5.907-4.64 10.548-10.547 10.548H31.645c-5.907 0-10.548-4.64-10.548-10.548V121.75zm26.37 84.384v-63.29c0-2.952 2.32-5.273 5.274-5.273h63.29c2.953 0 5.274 2.322 5.274 5.275s-2.32 5.274-5.274 5.274H58.015v58.013c0 2.742-2.32 5.274-5.274 5.274-2.953 0-5.273-2.32-5.273-5.273zm268.976-21.096c0-5.907 4.64-10.548 10.548-10.548h274.25c5.908 0 10.55 4.64 10.55 10.548 0 5.907-4.642 10.548-10.55 10.548H326.99c-5.906 0-10.547-4.64-10.547-10.548zm0 105.48c0-5.906 4.64-10.547 10.548-10.547h274.25c5.908 0 10.55 4.642 10.55 10.55s-4.642 10.547-10.55 10.547H326.99c-5.906 0-10.547-4.64-10.547-10.548zm0-52.74c0-5.907 4.64-10.548 10.548-10.548h274.25c5.908 0 10.55 4.64 10.55 10.548 0 5.907-4.642 10.548-10.55 10.548H326.99c-5.906 0-10.547-4.64-10.547-10.548zm263.913 168.77H348.298c-17.51 0-31.644 14.134-31.644 31.644V670.25c0 17.51 14.135 31.644 31.644 31.644h232.058c17.3 0 31.644-14.345 31.644-31.644V438.192c0-17.51-14.134-31.644-31.644-31.644zm10.548 263.702c0 5.907-4.64 10.548-10.548 10.548H348.298c-5.907 0-10.548-4.64-10.548-10.548V438.192c0-5.907 4.64-10.548 10.548-10.548h232.058c5.907 0 10.548 4.64 10.548 10.548V670.25zM437.746 459.288c0 2.953-2.32 5.274-5.274 5.274h-58.015v58.014c0 2.742-2.32 5.274-5.274 5.274-2.953 0-5.274-2.32-5.274-5.274v-63.288c0-2.953 2.32-5.274 5.273-5.274h63.288c2.955 0 5.276 2.32 5.276 5.274zM295.558 501.48c0 5.908-4.852 10.55-10.548 10.55H10.76c-5.908 0-10.55-4.642-10.55-10.55 0-5.906 4.642-10.547 10.55-10.547h274.25c5.906 0 10.548 4.64 10.548 10.548zm0 52.74c0 5.908-4.852 10.55-10.548 10.55H10.76c-5.908 0-10.55-4.642-10.55-10.55 0-5.906 4.642-10.547 10.55-10.547h274.25c5.906 0 10.548 4.64 10.548 10.548zm0 52.742c0 5.907-4.852 10.548-10.548 10.548H10.76c-5.908 0-10.55-4.64-10.55-10.548 0-5.907 4.642-10.548 10.55-10.548h274.25c5.906 0 10.548 4.64 10.548 10.548z"/></svg>