<svg xmlns="http://www.w3.org/2000/svg" viewBox="0 0 571.2 571.2"><path d="M45.9 290.7c2.856 0 5.1-2.244 5.1-5.1 0-14.076 11.424-25.5 25.5-25.5 2.856 0 5.1-2.244 5.1-5.1s-2.244-5.1-5.1-5.1c-19.584 0-35.7 16.116-35.7 35.7 0 2.856 2.244 5.1 5.1 5.1z"/><path d="M76.5 357h244.8c39.372 0 71.4-32.028 71.4-71.4s-32.028-71.4-71.4-71.4H76.5c-39.372 0-71.4 32.028-71.4 71.4S37.128 357 76.5 357zm0-122.4h244.8c28.152 0 51 22.848 51 51s-22.848 51-51 51H76.5c-28.152 0-51-22.848-51-51s22.848-51 51-51zM45.9 76.5c2.856 0 5.1-2.244 5.1-5.1 0-14.076 11.424-25.5 25.5-25.5 2.856 0 5.1-2.244 5.1-5.1s-2.244-5.1-5.1-5.1c-19.584 0-35.7 16.116-35.7 35.7 0 2.856 2.244 5.1 5.1 5.1z"/><path d="M76.5 142.8h418.2c39.372 0 71.4-32.028 71.4-71.4S534.072 0 494.7 0H76.5C37.128 0 5.1 32.028 5.1 71.4s32.028 71.4 71.4 71.4zm0-122.4h418.2c28.152 0 51 22.848 51 51s-22.848 51-51 51H76.5c-28.152 0-51-22.848-51-51s22.848-51 51-51z"/><path d="M494.7 107.1c19.584 0 35.7-16.116 35.7-35.7 0-2.856-2.244-5.1-5.1-5.1-2.856 0-5.1 2.244-5.1 5.1 0 14.076-11.424 25.5-25.5 25.5-2.856 0-5.1 2.244-5.1 5.1s2.244 5.1 5.1 5.1zM76.5 464.1c-19.584 0-35.7 16.116-35.7 35.7 0 2.856 2.244 5.1 5.1 5.1 2.856 0 5.1-2.244 5.1-5.1 0-14.076 11.424-25.5 25.5-25.5 2.856 0 5.1-2.244 5.1-5.1s-2.244-5.1-5.1-5.1z"/><path d="M494.7 428.4H76.5c-39.372 0-71.4 32.028-71.4 71.4 0 39.372 32.028 71.4 71.4 71.4h418.2c39.372 0 71.4-32.028 71.4-71.4s-32.028-71.4-71.4-71.4zm0 122.4H76.5c-28.152 0-51-22.848-51-51s22.848-51 51-51h418.2c28.152 0 51 22.848 51 51s-22.848 51-51 51z"/><path d="M525.3 494.7c-2.856 0-5.1 2.244-5.1 5.1 0 14.076-11.424 25.5-25.5 25.5-2.856 0-5.1 2.244-5.1 5.1 0 2.856 2.244 5.1 5.1 5.1 19.584 0 35.7-16.116 35.7-35.7 0-2.856-2.244-5.1-5.1-5.1z"/></svg>