<svg xmlns="http://www.w3.org/2000/svg" viewBox="0 0 591.628 591.628"><path d="M589.264 248.69c-1.836-2.448-4.896-3.876-7.956-3.876H505.42l-96.288-154.02c11.628-9.384 19.176-23.664 19.176-39.78 0-28.152-22.848-51-51-51s-51 22.848-51 51 22.848 51 51 51c4.692 0 9.18-.612 13.668-1.836l90.372 144.636h-371.28l90.372-144.636c4.284 1.224 8.976 1.836 13.668 1.836 28.152 0 51-22.848 51-51s-22.848-51-51-51-51 22.848-51 51c0 16.116 7.548 30.396 19.176 39.78l-96.288 154.02H10.108c-3.06 0-6.12 1.428-7.956 3.876-1.836 2.448-2.652 5.712-1.836 8.772l81.6 326.4c1.224 4.488 5.304 7.752 9.996 7.752h408c4.692 0 8.772-3.264 9.996-7.752l81.6-326.4c.408-3.06-.204-6.324-2.244-8.772zM346.708 51.014c0-16.932 13.668-30.6 30.6-30.6s30.6 13.668 30.6 30.6-13.668 30.6-30.6 30.6-30.6-13.668-30.6-30.6zm-132.6-30.6c16.932 0 30.6 13.668 30.6 30.6s-13.668 30.6-30.6 30.6-30.6-13.668-30.6-30.6 13.668-30.6 30.6-30.6zm277.644 550.8H99.664l-76.5-306h545.088l-76.5 306z"/><path d="M197.788 60.194c2.856 0 5.1-2.244 5.1-5.1 0-8.364 6.936-15.3 15.3-15.3 2.856 0 5.1-2.244 5.1-5.1 0-2.856-2.244-5.1-5.1-5.1-14.076 0-25.5 11.424-25.5 25.5 0 2.856 2.244 5.1 5.1 5.1zM381.388 29.594c-14.076 0-25.5 11.424-25.5 25.5 0 2.856 2.244 5.1 5.1 5.1s5.1-2.244 5.1-5.1c0-8.364 6.936-15.3 15.3-15.3 2.856 0 5.1-2.244 5.1-5.1 0-2.856-2.244-5.1-5.1-5.1zM76.204 294.386c-.816-2.652-3.468-4.284-6.324-3.672-2.652.816-4.284 3.468-3.672 6.324l61.2 224.4c.612 2.244 2.652 3.672 4.896 3.672.408 0 .816 0 1.428-.204 2.652-.816 4.284-3.468 3.672-6.324l-61.2-224.196zM454.012 518.786c-.816 2.652.816 5.508 3.672 6.324.408.204.816.204 1.428.204 2.244 0 4.284-1.428 4.896-3.672l61.2-224.4c.816-2.652-.816-5.508-3.672-6.324-2.652-.816-5.508.816-6.324 3.672l-61.2 224.196zM157.804 294.386c-.816-2.652-3.468-4.284-6.324-3.672-2.652.816-4.284 3.468-3.672 6.324l61.2 224.4c.612 2.244 2.652 3.672 4.896 3.672.408 0 .816 0 1.428-.204 2.652-.816 4.284-3.468 3.672-6.324l-61.2-224.196zM439.936 290.918c-2.652-.816-5.508.816-6.324 3.672l-61.2 224.4c-.816 2.652.816 5.508 3.672 6.324.408.204.816.204 1.428.204 2.244 0 4.284-1.428 4.896-3.672l61.2-224.4c.612-3.06-1.02-5.712-3.672-6.528z"/></svg>