<svg xmlns="http://www.w3.org/2000/svg" viewBox="0 0 591.804 591.804"><path d="M581.54 285.6h-71.4v-71.4c0-5.712-4.487-10.2-10.2-10.2s-10.2 4.488-10.2 10.2v71.4h-71.4c-5.71 0-10.2 4.488-10.2 10.2s4.49 10.2 10.2 10.2h71.4v71.4c0 5.712 4.49 10.2 10.2 10.2s10.2-4.488 10.2-10.2V306h71.4c5.713 0 10.2-4.488 10.2-10.2s-4.69-10.2-10.2-10.2zM244.125 6.324C242.697 2.448 238.82 0 234.74 0s-7.955 2.652-9.587 6.528l-224.4 571.2c-2.04 5.304.612 11.22 5.712 13.26 5.304 2.04 11.22-.612 13.26-5.712l77.52-197.472H371.83l77.52 197.472c1.63 4.08 5.507 6.528 9.587 6.528 1.224 0 2.448-.204 3.672-.612 5.303-2.04 7.75-7.956 5.71-13.26L244.126 6.324zM105.405 367.2L234.74 37.944 364.078 367.2H105.405z"/><path d="M230.05 112.2l-87.11 221.544c-1.02 2.652.205 5.508 2.857 6.528.612.204 1.224.408 1.836.408 2.04 0 3.876-1.224 4.692-3.264l87.108-221.544c1.02-2.652-.204-5.508-2.856-6.528-2.652-1.224-5.508.204-6.528 2.856zM116.83 414.12c-2.653-1.02-5.51.204-6.53 2.856L46.45 579.36c-1.02 2.652.203 5.508 2.855 6.528.612.204 1.224.408 1.836.408 2.04 0 3.877-1.224 4.693-3.264l63.852-162.384c1.02-2.448-.408-5.508-2.856-6.528z"/></svg>