<svg xmlns="http://www.w3.org/2000/svg" viewBox="0 0 591.6 591.6"><path d="M295.8 0C132.6 0 0 132.6 0 295.8s132.6 295.8 295.8 295.8S591.6 459 591.6 295.8 459 0 295.8 0zm0 571.2c-151.776 0-275.4-123.624-275.4-275.4S144.024 20.4 295.8 20.4s275.4 123.624 275.4 275.4-123.624 275.4-275.4 275.4z"/><path d="M214.2 122.4c-28.152 0-51 22.848-51 51v244.8c0 28.152 22.848 51 51 51s51-22.848 51-51V173.4c0-28.152-22.848-51-51-51zm30.6 295.8c0 16.932-13.668 30.6-30.6 30.6s-30.6-13.668-30.6-30.6V173.4c0-16.932 13.668-30.6 30.6-30.6s30.6 13.668 30.6 30.6v244.8zM377.4 122.4c-28.152 0-51 22.848-51 51v244.8c0 28.152 22.848 51 51 51s51-22.848 51-51V173.4c0-28.152-22.848-51-51-51zM408 418.2c0 16.932-13.668 30.6-30.6 30.6s-30.6-13.668-30.6-30.6V173.4c0-16.932 13.668-30.6 30.6-30.6s30.6 13.668 30.6 30.6v244.8z"/><path d="M201.96 168.3c-2.856 0-5.1 2.244-5.1 5.1v244.8c0 2.856 2.244 5.1 5.1 5.1s5.1-2.244 5.1-5.1V173.4c0-2.856-2.244-5.1-5.1-5.1zM365.16 168.3c-2.856 0-5.1 2.244-5.1 5.1v244.8c0 2.856 2.244 5.1 5.1 5.1s5.1-2.244 5.1-5.1V173.4c0-2.856-2.244-5.1-5.1-5.1z"/></svg>