<svg xmlns="http://www.w3.org/2000/svg" viewBox="0 0 591.6 591.6"><path d="M540.6 224.4h-51v-30.6C489.6 86.904 402.696 0 295.8 0S102 86.904 102 193.8v30.6H51c-28.152 0-51 22.848-51 51v265.2c0 28.152 22.848 51 51 51h489.6c28.152 0 51-22.848 51-51V275.4c0-28.152-22.848-51-51-51zm-418.2-30.6c0-95.676 77.724-173.4 173.4-173.4s173.4 77.724 173.4 173.4v30.6H122.4v-30.6zm448.8 346.8c0 16.932-13.668 30.6-30.6 30.6H51c-16.932 0-30.6-13.668-30.6-30.6V275.4c0-16.932 13.668-30.6 30.6-30.6h489.6c16.932 0 30.6 13.668 30.6 30.6v265.2z"/><path d="M295.8 285.6c-29.376 0-56.1 18.36-66.708 45.9-9.996 26.316-3.672 55.692 15.504 73.44v74.46c0 18.156 9.792 35.088 25.5 44.268 7.752 4.488 16.524 6.732 25.5 6.732s17.748-2.448 25.5-6.732c15.708-9.18 25.5-25.908 25.5-44.064v-74.46c19.176-17.748 25.704-47.124 15.504-73.44-10.2-27.744-36.924-46.104-66.3-46.104zm34.68 106.488c-2.448 1.836-3.876 4.896-3.876 8.16v79.356c0 10.812-5.916 21.012-15.3 26.52-9.384 5.304-21.216 5.304-30.6 0-9.384-5.508-15.3-15.504-15.3-26.52v-79.356c0-3.06-1.428-6.12-3.876-8.16-15.096-11.832-20.604-33.66-13.056-53.448 7.548-19.584 26.724-32.64 47.532-32.64 20.808 0 40.188 13.056 47.532 32.64 7.344 19.788 2.04 41.616-13.056 53.448zM132.6 270.3H51c-2.856 0-5.1 2.244-5.1 5.1V357c0 2.856 2.244 5.1 5.1 5.1s5.1-2.244 5.1-5.1v-76.5h76.5c2.856 0 5.1-2.244 5.1-5.1s-2.244-5.1-5.1-5.1z"/></svg>