<svg xmlns="http://www.w3.org/2000/svg" viewBox="0 0 591.396 591.396"><path d="M495.208 430.032L298.756 295.596 495.208 161.16c2.856-1.836 4.488-5.1 4.488-8.364 0-3.264-1.632-6.528-4.284-8.364l-204-142.8-1.224-.612c-.204 0-.408-.204-.612-.204-.204-.204-.612-.204-1.02-.408-.408 0-.612-.204-1.02-.204h-.612c-.408 0-1.02-.204-1.428-.204h-.612c-.408 0-.816 0-1.224.204-.408 0-.612.204-1.02.204s-.612.204-1.02.204c-.408.204-.612.204-.816.408-.204.204-.612.204-.816.408-.204.204-.612.408-.816.612-.204.204-.612.408-.816.612-.204.204-.612.612-.816 1.02-.204.204-.408.204-.612.408l-.612 1.224c0 .204-.204.408-.204.612-.204.408-.204.612-.408 1.02 0 .408-.204.612-.204 1.02v.612c0 .408-.204 1.02-.204 1.428V279.48L107.608 164.832c-4.692-3.264-11.016-2.04-14.076 2.652-3.264 4.692-2.04 11.016 2.652 14.076l166.668 114.036L96.184 409.632c-4.692 3.264-5.916 9.588-2.652 14.28 2.04 2.856 5.1 4.488 8.364 4.488 2.04 0 4.08-.612 5.712-1.836l167.688-114.648v269.28c0 .408 0 1.02.204 1.428v.612c0 .408.204.612.204 1.02s.204.612.408 1.02c0 .204.204.408.204.612l.612 1.224c.408.408.612.816 1.02 1.224l.204.204c.816.816 1.836 1.428 2.856 2.04.204 0 .204.204.408.204.612.204 1.02.408 1.632.408h.408c.612.204 1.224.204 1.836.204.612 0 1.224 0 1.836-.204.204 0 .408 0 .612-.204.408 0 .816-.204 1.224-.408.204 0 .408-.204.612-.204l1.224-.612c.204 0 .204-.204.408-.204l204-142.8c2.652-1.836 4.284-5.1 4.284-8.364 0-3.468-1.632-6.528-4.284-8.364zm-199.716-157.08V29.58L471.34 152.796 295.492 272.952zm0 288.66V318.24L471.34 438.6 295.492 561.612z"/><path d="M308.14 64.872l131.988 92.412c.816.612 1.836 1.02 2.856 1.02 1.632 0 3.264-.816 4.08-2.244 1.632-2.244 1.02-5.508-1.224-7.14L313.852 56.508c-2.244-1.632-5.508-1.02-7.14 1.224-1.428 2.244-1.02 5.508 1.428 7.14zM308.14 348.636l131.988 92.412c.816.612 1.836 1.02 2.856 1.02 1.632 0 3.264-.816 4.08-2.244 1.632-2.244 1.02-5.508-1.224-7.14l-131.988-92.412c-2.244-1.632-5.508-1.02-7.14 1.224-1.428 2.244-1.02 5.508 1.428 7.14z"/></svg>