<svg xmlns="http://www.w3.org/2000/svg" viewBox="0 0 591.804 591.804"><path d="M388.212 227.562c2.856 0 5.1-2.244 5.1-5.1 0-103.224-84.048-187.272-187.272-187.272-2.856 0-5.1 2.244-5.1 5.1s2.244 5.1 5.1 5.1c97.716 0 177.072 79.356 177.072 177.072 0 2.856 2.244 5.1 5.1 5.1zM222.36 383.214c-97.716 0-177.072-79.356-177.072-177.072 0-2.856-2.244-5.1-5.1-5.1s-5.1 2.244-5.1 5.1c0 103.224 84.048 187.272 187.272 187.272 2.856 0 5.1-2.244 5.1-5.1s-2.244-5.1-5.1-5.1z"/><path d="M588.336 492.354L400.248 320.586C418.2 289.374 428.4 253.062 428.4 214.302c0-118.116-96.084-214.2-214.2-214.2S0 96.186 0 214.302s96.084 214.2 214.2 214.2c40.392 0 78.336-11.22 110.568-30.804l167.484 190.536c1.836 2.04 4.488 3.468 7.344 3.468h.408c2.652 0 5.304-1.02 7.14-3.06l81.6-81.6c2.04-2.04 3.06-4.692 3.06-7.344s-1.428-5.508-3.468-7.344zM20.4 214.302c0-106.896 86.904-193.8 193.8-193.8S408 107.406 408 214.302s-86.904 193.8-193.8 193.8-193.8-86.904-193.8-193.8zM389.028 338.13L529.38 466.242l-64.464 59.976-123.012-139.944c17.952-13.464 33.864-29.784 47.124-48.144zm111.18 228.48l-28.764-32.844 65.484-60.792 29.784 27.132-66.504 66.504z"/></svg>