<svg xmlns="http://www.w3.org/2000/svg" viewBox="0 0 591.753 591.753"><path d="M586.576 82.977l-142.8-81.6c-3.06-1.836-6.936-1.836-10.2 0l-137.7 78.54-137.7-78.54c-3.06-1.836-6.936-1.836-10.2 0l-142.8 81.6c-3.06 1.632-5.1 5.1-5.1 8.772v489.6c0 3.67 1.836 6.935 5.1 8.77 3.06 1.837 6.936 1.837 10.2 0l137.7-78.54 137.7 78.745c3.06 1.836 6.936 1.836 10.2 0l137.7-78.744 137.7 78.745c1.632.816 3.264 1.428 5.1 1.428s3.468-.408 5.1-1.428c3.06-1.836 5.1-5.1 5.1-8.772V91.75c0-3.673-2.04-7.14-5.1-8.773zm-423.3-55.284l122.4 69.972v466.14l-122.4-69.972V27.693zm142.8 69.972l122.4-69.972v466.14l-122.4 69.972V97.665zm-285.6 0l122.4-69.972v466.14l-122.4 69.972V97.665zm550.8 466.14l-122.4-69.972V27.693l122.4 69.972v466.14z"/><path d="M137.165 56.66c-1.428-2.447-4.488-3.263-6.936-1.835l-93.84 53.04c-1.633.816-2.653 2.652-2.653 4.488v163.2c0 2.856 2.244 5.1 5.1 5.1s5.1-2.244 5.1-5.1V115.21l91.188-51.613c2.448-1.428 3.468-4.488 2.04-6.936zM422.764 56.66c-1.428-2.447-4.488-3.263-6.936-1.835l-93.84 53.04c-1.632.816-2.652 2.652-2.652 4.488v163.2c0 2.856 2.244 5.1 5.1 5.1s5.1-2.244 5.1-5.1V115.21l91.188-51.613c2.448-1.428 3.468-4.488 2.04-6.936z"/></svg>