<svg xmlns="http://www.w3.org/2000/svg" viewBox="0 0 591.65 591.65"><path d="M581.425 387.65H389.257l58.956-183.6h133.212c5.712 0 10.2-4.488 10.2-10.2s-4.488-10.2-10.2-10.2H454.74l54.673-170.34c1.632-5.304-1.224-11.016-6.528-12.852-5.304-1.632-11.016 1.224-12.852 6.528L433.32 183.65H230.34l54.673-170.34c1.632-5.304-1.224-11.016-6.528-12.852-5.304-1.632-11.016 1.224-12.852 6.528L208.92 183.65H10.226c-5.712 0-10.2 4.488-10.2 10.2s4.488 10.2 10.2 10.2h192.168l-58.956 183.6H10.225c-5.712 0-10.2 4.488-10.2 10.2s4.488 10.2 10.2 10.2H136.91L82.236 578.39c-1.632 5.304 1.224 11.016 6.528 12.852 1.02.408 2.04.408 3.06.408 4.284 0 8.364-2.856 9.792-7.14l56.712-176.46h202.98l-54.673 170.34c-1.632 5.304 1.224 11.016 6.528 12.852 1.02.408 2.04.408 3.06.408 4.284 0 8.364-2.856 9.792-7.14l56.712-176.46h198.695c5.712 0 10.2-4.488 10.2-10.2s-4.488-10.2-10.2-10.2zm-416.568 0l58.956-183.6h202.98l-58.956 183.6h-202.98z"/><path d="M244.417 221.594c-2.652-.816-5.508.408-6.528 3.264l-48.96 142.8c-.817 2.652.407 5.508 3.263 6.528.612.204 1.02.204 1.632.204 2.04 0 4.08-1.428 4.896-3.468l48.96-142.8c.817-2.652-.61-5.508-3.263-6.528z"/></svg>