<svg xmlns="http://www.w3.org/2000/svg" viewBox="0 0 612.001 612.001"><path d="M559.24 63.31H415.528l-39.04-39.04c-1.9-2.11-4.644-3.166-7.387-3.166H242.48c-2.744 0-5.488 1.266-7.387 3.166l-39.04 39.04H52.758C23.635 63.31 0 86.948 0 116.07v422.07c0 29.122 23.636 52.758 52.76 52.758H559.24c29.123 0 52.76-23.847 52.76-52.76V116.07c-.002-29.123-23.638-52.76-52.76-52.76zm31.657 474.828c0 17.516-14.14 31.655-31.655 31.655H52.76c-17.517 0-31.656-14.14-31.656-31.655V116.07c0-17.516 14.14-31.655 31.655-31.655h147.934c2.743 0 5.487-1.266 7.386-3.166l39.04-39.042h117.97l39.04 39.04c1.9 2.11 4.644 3.167 7.387 3.167H559.24c17.517 0 31.656 14.14 31.656 31.655v422.068zM306 211.035c-75.55 0-137.172 61.622-137.172 137.172S230.45 485.38 306 485.38s137.172-61.622 137.172-137.172S381.55 211.035 306 211.035zm0 253.24c-63.943 0-116.07-52.124-116.07-116.068S242.058 232.14 306 232.14s116.07 52.125 116.07 116.068S369.942 464.276 306 464.276zm5.276-179.38c0 2.955-2.32 5.277-5.276 5.277-32.077 0-58.034 25.957-58.034 58.034 0 2.744-2.32 5.276-5.276 5.276s-5.276-2.32-5.276-5.276c0-37.775 30.81-68.586 68.586-68.586 2.954 0 5.276 2.323 5.276 5.276zM163.552 116.07c0 2.955-2.32 5.276-5.276 5.276H58.034v142.448c0 2.743-2.32 5.276-5.276 5.276-2.954 0-5.276-2.32-5.276-5.276V116.07c0-2.954 2.32-5.276 5.276-5.276h105.517c2.955 0 5.277 2.32 5.277 5.276z"/></svg>