<svg xmlns="http://www.w3.org/2000/svg" viewBox="0 0 591.6 591.6"><path d="M295.8 0C132.6 0 0 132.6 0 295.8s132.6 295.8 295.8 295.8S591.6 459 591.6 295.8 459 0 295.8 0zm0 571.2c-151.776 0-275.4-123.624-275.4-275.4S144.024 20.4 295.8 20.4s275.4 123.624 275.4 275.4-123.624 275.4-275.4 275.4z"/><path d="M428.4 163.2H183.6c-5.712 0-10.2 4.488-10.2 10.2v244.8c0 5.712 4.488 10.2 10.2 10.2h244.8c5.712 0 10.2-4.488 10.2-10.2V173.4c0-5.712-4.488-10.2-10.2-10.2zM418.2 408H193.8V183.6h224.4V408z"/><path d="M212.16 309.06c2.856 0 5.1-2.244 5.1-5.1v-96.9h96.9c2.856 0 5.1-2.244 5.1-5.1s-2.244-5.1-5.1-5.1h-102c-2.856 0-5.1 2.244-5.1 5.1v102c0 2.856 2.244 5.1 5.1 5.1z"/></svg>