<svg xmlns="http://www.w3.org/2000/svg" viewBox="0 0 568.599 568.599"><path d="M565.692 147.21L507.96 89.48c-4.08-4.08-10.404-4.08-14.484 0L241.128 342.03 75.276 176.18c-4.08-4.08-10.404-4.08-14.484 0L3.06 233.91c-4.08 4.08-4.08 10.405 0 14.485L233.784 479.12c1.836 1.835 4.488 3.06 7.14 3.06s5.304-1.02 7.14-3.06l317.628-317.425c3.876-4.08 3.876-10.404 0-14.484zM241.128 457.496L24.684 241.05l43.248-43.247 165.852 165.852c4.08 4.08 10.404 4.08 14.484 0L500.82 111.103l43.248 43.248-302.94 303.145z"/><path d="M497.148 133.543L352.92 277.77c-2.04 2.04-2.04 5.305 0 7.14 1.02 1.02 2.244 1.43 3.672 1.43s2.652-.41 3.672-1.43L500.82 144.356l10.812 10.812c2.04 2.04 5.304 2.04 7.14 0 2.04-2.04 2.04-5.304 0-7.14l-14.484-14.484c-1.02-1.02-2.244-1.428-3.672-1.428s-2.448.408-3.468 1.428z"/></svg>