<svg xmlns="http://www.w3.org/2000/svg" viewBox="0 0 612 612"><path d="M611.9 240.363c0-3.005-1.157-6.01-3.468-8.09L379.626 3.468c-4.622-4.622-11.787-4.622-16.41 0l-89.904 89.905-8.09-8.09c-10.86-10.862-25.422-16.87-40.907-16.87S194.5 74.42 183.407 85.28l-163.4 163.4c-2.08 2.08-3.236 4.623-3.467 7.397L.13 501.293c-.23 3.236.924 6.47 3.467 9.014l40.908 40.908-24.498 24.498c-4.622 4.622-4.622 11.787 0 16.41 2.31 2.31 5.316 3.466 8.09 3.466s6.008-1.156 8.088-3.467l24.498-24.498 40.908 40.908c2.08 2.08 5.086 3.467 8.09 3.467h.693l245.216-16.41c2.772-.23 5.315-1.386 7.395-3.466l163.4-163.4c.693-.693 1.156-1.387 1.85-2.31 18.488-30.97 17.795-59.86-1.85-79.506l-8.09-8.09 89.906-89.904c2.544-2.542 3.7-5.547 3.7-8.55zM509.282 413.008l-159.24 159.24-235.51 15.716-37.21-36.98 24.5-24.498c4.62-4.622 4.62-11.787 0-16.41s-11.788-4.62-16.41 0l-24.5 24.5-37.21-37.21 15.948-235.51L199.817 101.46c6.47-6.47 15.254-10.17 24.498-10.17s18.027 3.7 24.498 10.17l16.41 16.41 245.215 245.215c15.255 15.255 6.242 37.442-1.154 49.923zm-6.934-90.83L289.95 109.78l81.816-81.815 212.397 212.397-81.816 81.816zm-147.282-196.24l32.685-32.684 49.026 49.026-32.686 32.685-49.026-49.026zm130.92 130.74l-49.026-49.026 32.685-32.685 49.026 49.026-32.685 32.685z"/></svg>