<svg xmlns="http://www.w3.org/2000/svg" viewBox="0 0 591.6 591.6"><path d="M561 183.6h-11.22v-51c0-28.152-22.848-51-51-51H51c-28.152 0-51 22.848-51 51V459c0 28.152 22.848 51 51 51h447.78c28.152 0 51-22.848 51-51v-51H561c16.932 0 30.6-13.668 30.6-30.6V214.2c0-16.932-13.668-30.6-30.6-30.6zM529.38 459c0 16.932-13.668 30.6-30.6 30.6H51c-16.932 0-30.6-13.668-30.6-30.6V132.6c0-16.932 13.668-30.6 30.6-30.6h447.78c16.932 0 30.6 13.668 30.6 30.6V459zm41.82-81.6c0 5.712-4.488 10.2-10.2 10.2h-11.22V204H561c5.712 0 10.2 4.488 10.2 10.2v163.2z"/><path d="M155.856 122.4H68.544c-15.3 0-27.744 13.668-27.744 30.6v285.6c0 16.932 12.444 30.6 27.744 30.6h87.516c15.3 0 27.744-13.668 27.744-30.6V153c-.204-16.932-12.648-30.6-27.948-30.6zm7.344 316.2c0 5.508-3.264 10.2-7.344 10.2H68.544c-3.876 0-7.344-4.692-7.344-10.2V153c0-5.508 3.264-10.2 7.344-10.2h87.516c3.876 0 7.344 4.692 7.344 10.2v285.6h-.204z"/><path d="M79.56 147.9c-2.856 0-5.1 2.244-5.1 5.1v285.6c0 2.856 2.244 5.1 5.1 5.1s5.1-2.244 5.1-5.1V153c0-2.856-2.244-5.1-5.1-5.1z"/></svg>