<svg xmlns="http://www.w3.org/2000/svg" viewBox="0 0 592.008 592.008"><path d="M295.8 224.604c-39.372 0-71.4 32.028-71.4 71.4s32.028 71.4 71.4 71.4 71.4-32.028 71.4-71.4-32.028-71.4-71.4-71.4zm0 122.4c-28.152 0-51-22.848-51-51s22.848-51 51-51 51 22.848 51 51-22.848 51-51 51z"/><path d="M295.8 260.304c-19.584 0-35.7 16.116-35.7 35.7 0 2.856 2.244 5.1 5.1 5.1s5.1-2.244 5.1-5.1c0-14.076 11.424-25.5 25.5-25.5 2.856 0 5.1-2.244 5.1-5.1s-2.244-5.1-5.1-5.1z"/><path d="M584.664 268.26l-37.944-12.444c-2.652-17.136-7.14-34.068-13.464-50.388l26.52-29.58c2.856-3.264 3.468-8.16 1.224-11.832L542.844 132.6c-2.244-3.876-6.528-5.712-11.016-4.896l-38.964 8.16c-11.016-13.464-23.46-25.908-36.924-36.72l8.16-38.964c.816-4.284-1.02-8.772-4.896-11.016l-31.212-18.36c-3.876-2.244-8.568-1.632-11.832 1.224l-29.58 26.52c-16.32-6.12-33.252-10.608-50.388-13.464L323.748 7.14C322.32 3.06 318.24.204 313.956.204h-36.312c-4.488 0-8.364 2.856-9.792 6.936l-12.24 37.944c-17.136 2.652-34.068 7.14-50.388 13.464l-29.784-26.52c-3.264-2.856-8.16-3.468-11.832-1.224L132.192 48.96c-3.876 2.244-5.712 6.528-4.896 11.016l8.16 38.964c-13.464 11.016-25.908 23.46-36.72 36.924l-38.964-8.16c-4.284-.816-8.772 1.02-11.016 4.896L30.6 163.812c-2.244 3.876-1.632 8.568 1.224 11.832l26.52 29.58c-6.12 16.32-10.608 33.252-13.464 50.592L6.936 268.26C2.856 269.484 0 273.36 0 277.848v36.312c0 4.488 2.856 8.364 6.936 9.792l37.944 12.444c2.652 17.136 7.344 34.068 13.464 50.388l-26.52 29.58c-2.856 3.264-3.468 8.16-1.224 11.832l18.156 31.416c2.244 3.876 6.528 5.712 11.016 4.896l38.964-8.16c11.016 13.464 23.46 25.908 36.924 36.72l-8.16 38.964c-.816 4.284 1.02 8.772 4.896 11.016l31.416 18.156c3.876 2.244 8.568 1.632 11.832-1.224l29.58-26.52c16.32 6.12 33.252 10.608 50.592 13.464l12.444 37.944c1.428 4.284 5.304 6.936 9.792 6.936h36.312c4.488 0 8.364-2.856 9.792-6.936l12.444-37.944c17.136-2.652 34.068-7.14 50.388-13.464l29.58 26.52c3.264 2.856 8.16 3.468 11.832 1.224l31.416-18.156c3.876-2.244 5.712-6.528 4.896-11.016l-8.16-38.964c13.464-11.016 25.908-23.46 36.72-36.924l38.964 8.16c4.284.816 8.772-1.02 11.016-4.896l18.156-31.416c2.244-3.876 1.632-8.568-1.224-11.832l-26.52-29.58c6.12-16.32 10.608-33.252 13.464-50.388l37.944-12.444c4.284-1.428 6.936-5.304 6.936-9.792v-36.312c-.408-4.284-3.264-8.16-7.344-9.384zM571.2 306.816l-33.66 11.016c-5.1 0-9.384 3.876-9.996 8.976-2.652 20.196-7.752 39.984-15.504 58.752-1.836 4.692-.204 9.792 4.08 12.444l23.664 26.52-10.812 18.564-34.68-7.344c-4.488-2.448-9.996-1.428-13.056 2.652-12.444 16.116-26.724 30.6-42.84 43.044-4.08 3.06-5.1 8.568-2.652 13.056l7.344 34.68-18.564 10.812-26.52-23.664c-2.652-4.284-7.956-6.12-12.648-4.08-18.768 7.752-38.556 13.056-58.548 15.708-5.1.612-8.772 4.896-8.976 9.996l-11.016 33.66h-21.42l-11.016-33.66c0-5.1-3.876-9.384-8.976-9.996-20.196-2.652-39.984-7.752-58.752-15.504-4.692-1.836-9.996-.204-12.444 4.08l-26.52 23.664-18.564-10.812 7.344-34.68c2.448-4.488 1.428-9.996-2.652-13.056-16.116-12.24-30.6-26.724-43.044-42.84-3.06-4.08-8.568-5.1-13.056-2.652l-34.884 7.344-10.812-18.564 23.664-26.52c4.284-2.652 6.12-7.956 4.08-12.648-7.752-18.768-13.056-38.556-15.708-58.548-.612-5.1-4.896-8.772-9.996-8.772L20.4 306.816v-21.42l33.66-11.016c5.1 0 9.384-3.876 9.996-8.976 2.652-20.196 7.752-39.984 15.504-58.752 1.836-4.692.204-9.792-4.08-12.444l-23.664-26.52 10.812-18.564 34.884 7.344c4.488 2.448 9.996 1.428 13.056-2.652 12.444-16.116 26.724-30.6 42.84-43.044 4.08-3.06 5.1-8.568 2.652-13.056l-7.344-34.68 18.564-10.812 26.52 23.664c2.652 4.284 7.956 6.12 12.648 4.08 18.768-7.752 38.556-13.056 58.548-15.708 5.1-.612 8.772-4.896 8.976-9.996l11.016-33.66h21.42l11.016 33.66c0 5.1 3.876 9.384 8.976 9.996 20.196 2.652 39.984 7.752 58.752 15.504 4.692 1.836 9.792.204 12.444-4.08l26.52-23.664 18.564 10.812-7.344 34.68c-2.448 4.488-1.428 9.996 2.652 13.056 16.116 12.444 30.6 26.724 43.044 42.84 3.06 4.08 8.568 5.1 13.056 2.652l34.884-7.344 10.812 18.564-23.664 26.52c-4.284 2.652-6.12 7.956-4.08 12.648 7.752 18.768 13.056 38.556 15.708 58.752.612 5.1 4.896 8.772 9.996 8.976l33.66 11.016v21.624h-.204z"/></svg>