<svg xmlns="http://www.w3.org/2000/svg" viewBox="0 0 510.166 510.166"><path d="M243.263 264.544L149.015 62.788c-2.448-5.1-8.364-7.344-13.464-4.896C50.688 97.468-2.556 183.556.096 277.192s60.792 176.664 147.9 211.14c27.744 11.016 56.916 16.524 86.496 16.524 62.63 0 121.585-24.48 165.853-68.748 4.08-4.08 4.08-10.404 0-14.484l-157.08-157.08zm-8.568 220.116c-27.132 0-53.652-5.1-78.948-15.096-79.56-31.62-132.6-107.304-135.048-192.78-2.45-82.212 42.227-157.896 114.443-195.84l90.372 194.004c.408 1.02 1.224 2.04 2.04 2.856l151.368 151.368c-39.576 35.7-90.372 55.488-144.228 55.488zM506.627 209.26C493.367 133.984 444 69.724 374.64 37.288c-5.1-2.448-11.22-.204-13.465 4.896l-94.86 203.388c-1.836 3.876-1.02 8.568 2.04 11.424l158.712 158.712c1.836 1.836 4.488 3.06 7.14 3.06s5.304-1.02 7.14-3.06c54.06-53.856 78.54-131.172 65.28-206.448zm-72.624 184.824L287.735 247.816 375.047 60.34c58.548 30.804 99.756 86.904 111.18 152.388 11.832 65.484-7.752 132.6-52.224 181.356zM349.955 26.272c-60.18-27.948-129.54-27.948-189.72 0l94.86 203.388 94.86-203.388z"/></svg>