<svg xmlns="http://www.w3.org/2000/svg" viewBox="0 0 591.6 591.6"><path d="M591.6 71.4c0-5.712-4.488-10.2-10.2-10.2H265.2V30.6c0-5.712-4.488-10.2-10.2-10.2H91.8c-5.712 0-10.2 4.488-10.2 10.2v30.6H10.2C4.488 61.2 0 65.688 0 71.4V154.02l40.8 408c.612 5.304 4.896 9.18 10.2 9.18h489.6c5.304 0 9.588-3.876 10.2-9.18l40.8-408V71.4zM91.8 81.6c5.712 0 10.2-4.488 10.2-10.2V40.8h142.8v30.6c0 5.712 4.488 10.2 10.2 10.2h316.2v61.2H20.4V81.6h71.4zm439.62 469.2H60.18L21.42 163.2h548.556L531.42 550.8z"/><path d="M51 186.66h489.6c2.856 0 5.1-2.244 5.1-5.1s-2.244-5.1-5.1-5.1H51c-2.856 0-5.1 2.244-5.1 5.1s2.244 5.1 5.1 5.1zM120.36 84.66c2.856 0 5.1-2.244 5.1-5.1v-15.3h56.1c2.856 0 5.1-2.244 5.1-5.1s-2.244-5.1-5.1-5.1h-61.2c-2.856 0-5.1 2.244-5.1 5.1v20.4c0 2.856 2.244 5.1 5.1 5.1z"/></svg>