<svg xmlns="http://www.w3.org/2000/svg" viewBox="0 0 591.6 591.6"><path d="M540.6 0H153c-28.152 0-51 22.848-51 51v51H51c-28.152 0-51 22.848-51 51v387.6c0 28.152 22.848 51 51 51h387.6c28.152 0 51-22.848 51-51v-51h51c28.152 0 51-22.848 51-51V51c0-28.152-22.848-51-51-51zm-71.4 540.6c0 16.932-13.668 30.6-30.6 30.6H51c-16.932 0-30.6-13.668-30.6-30.6V153c0-16.932 13.668-30.6 30.6-30.6h387.6c16.932 0 30.6 13.668 30.6 30.6v387.6zm102-102c0 16.932-13.668 30.6-30.6 30.6h-51V153c0-28.152-22.848-51-51-51H122.4V51c0-16.932 13.668-30.6 30.6-30.6h387.6c16.932 0 30.6 13.668 30.6 30.6v387.6z"/><path d="M193.8 147.9H51c-2.856 0-5.1 2.244-5.1 5.1v142.8c0 2.856 2.244 5.1 5.1 5.1s5.1-2.244 5.1-5.1V158.1h137.7c2.856 0 5.1-2.244 5.1-5.1s-2.244-5.1-5.1-5.1zM438.6 392.7c-2.856 0-5.1 2.244-5.1 5.1v137.7H295.8c-2.856 0-5.1 2.244-5.1 5.1 0 2.856 2.244 5.1 5.1 5.1h142.8c2.856 0 5.1-2.244 5.1-5.1V397.8c0-2.856-2.244-5.1-5.1-5.1z"/></svg>