<svg xmlns="http://www.w3.org/2000/svg" viewBox="0 0 591.6 591.6"><path d="M464.1 201.96c-2.856-2.856-7.344-3.876-11.016-2.244-3.876 1.632-6.324 5.304-6.324 9.384v47.532H144.84V209.1c0-4.08-2.448-7.752-6.324-9.384-3.876-1.632-8.16-.612-11.016 2.244l-86.7 86.7c-4.08 4.08-4.08 10.404 0 14.484l86.7 86.496c2.04 2.04 4.488 3.06 7.14 3.06 1.224 0 2.652-.204 3.876-.816 3.876-1.632 6.324-5.304 6.324-9.384v-47.532h301.92V382.5c0 4.08 2.448 7.752 6.324 9.384 3.876 1.632 8.16.612 11.016-2.244l86.496-86.496c1.836-1.836 3.06-4.488 3.06-7.14s-1.02-5.304-3.06-7.14L464.1 201.96zm3.06 155.652v-33.048c0-2.652-1.02-5.304-3.06-7.14-2.04-1.836-4.488-3.06-7.14-3.06H134.64c-5.712 0-10.2 4.488-10.2 10.2v33.048L62.424 295.8l62.016-61.812v33.048c0 2.652 1.02 5.304 3.06 7.14 1.836 1.836 4.488 3.06 7.14 3.06h322.32c5.712 0 10.2-4.488 10.2-10.2v-33.048l62.016 62.016-62.016 61.608z"/><path d="M540.6 0H51C22.848 0 0 22.848 0 51v489.6c0 28.152 22.848 51 51 51h489.6c28.152 0 51-22.848 51-51V51c0-28.152-22.848-51-51-51zm30.6 540.6c0 16.932-13.668 30.6-30.6 30.6H51c-16.932 0-30.6-13.668-30.6-30.6V51c0-16.932 13.668-30.6 30.6-30.6h489.6c16.932 0 30.6 13.668 30.6 30.6v489.6z"/></svg>