<svg xmlns="http://www.w3.org/2000/svg" viewBox="0 0 591.6 591.6"><path d="M295.8 0C132.6 0 0 132.6 0 295.8s132.6 295.8 295.8 295.8S591.6 459 591.6 295.8 459 0 295.8 0zm0 571.2c-151.776 0-275.4-123.624-275.4-275.4S144.024 20.4 295.8 20.4s275.4 123.624 275.4 275.4-123.624 275.4-275.4 275.4z"/><path d="M459 183.6c-5.712 0-10.2 4.488-10.2 10.2v65.076L300.288 184.62c-3.264-1.632-6.936-1.428-9.996.408-3.06 1.836-4.896 5.1-4.896 8.772v65.076L137.088 184.62c-3.06-1.632-6.936-1.428-9.996.408-3.06 1.836-4.896 5.1-4.896 8.772v204c0 3.468 1.836 6.732 4.896 8.772 1.632 1.02 3.468 1.428 5.304 1.428 1.632 0 3.06-.408 4.488-1.02l148.512-74.256V397.8c0 3.468 1.836 6.732 4.896 8.772 1.632 1.02 3.468 1.428 5.304 1.428 1.632 0 3.06-.408 4.488-1.02l148.512-74.256V397.8c0 5.712 4.488 10.2 10.2 10.2s10.2-4.488 10.2-10.2v-204c.204-5.712-4.284-10.2-9.996-10.2zM142.8 381.276V210.324l142.8 71.4v28.152l-142.8 71.4zm163.2 0V210.324l142.8 71.4v28.152l-142.8 71.4z"/><path d="M161.16 229.5c-2.856 0-5.1 2.244-5.1 5.1V357c0 2.856 2.244 5.1 5.1 5.1s5.1-2.244 5.1-5.1V234.6c0-2.856-2.244-5.1-5.1-5.1zM324.36 229.5c-2.856 0-5.1 2.244-5.1 5.1V357c0 2.856 2.244 5.1 5.1 5.1s5.1-2.244 5.1-5.1V234.6c0-2.856-2.244-5.1-5.1-5.1z"/></svg>