<svg xmlns="http://www.w3.org/2000/svg" viewBox="0 0 590.858 590.858"><path d="M590.27 224.437c-1.225-3.672-4.693-6.324-8.57-6.528l-202.163-13.465L304.26 6.36c-1.427-3.875-5.1-6.323-9.18-6.323s-7.75 2.448-9.18 6.324l-74.663 198.29L9.073 218.52c-3.876.205-7.344 2.857-8.568 6.733C-.72 228.925.3 233.21 3.36 235.657l156.47 136.068-49.777 207.06c-1.02 3.876.612 7.956 3.876 10.2 1.63 1.224 3.67 1.836 5.507 1.836s3.672-.61 5.508-1.63l170.952-114.037 171.156 113.424c1.632 1.02 3.468 1.632 5.304 1.632 5.304 0 9.792-4.285 9.792-9.793 0-1.02-.205-2.244-.613-3.264l-50.388-206.04 156.06-136.476c3.263-2.448 4.487-6.528 3.06-10.2zM414.012 360.505c-2.652 2.448-3.876 6.12-3.06 9.588l46.104 188.496L301.2 455.16c-3.263-2.243-7.547-2.243-10.81 0L134.736 558.998 180.23 370.5c.815-3.467-.41-7.343-3.06-9.587L33.96 236.473l184.825-12.852c3.876-.203 7.14-2.65 8.364-6.323L294.876 37.37l68.34 179.723c1.428 3.468 4.692 6.12 8.568 6.324l184.824 12.24-142.597 124.848z"/><path d="M297.325 86.737c-2.652-1.02-5.508.408-6.528 3.06l-46.308 122.4c-1.02 2.652.407 5.508 3.06 6.528.61.204 1.223.408 1.835.408 2.04 0 4.08-1.224 4.692-3.264L300.18 93.264c1.02-2.652-.203-5.712-2.855-6.528z"/></svg>