<svg xmlns="http://www.w3.org/2000/svg" viewBox="0 0 591.6 591.6"><path d="M540.6 71.4h-91.8v-51c0-5.712-4.488-10.2-10.2-10.2H153c-5.712 0-10.2 4.488-10.2 10.2v51H51c-28.152 0-51 22.848-51 51s22.848 51 51 51h11.22L102 531.624C105.264 561 126.276 581.4 153 581.4h285.6c26.724 0 47.736-20.604 51-49.776L529.38 173.4h11.22c28.152 0 51-22.848 51-51s-22.848-51-51-51zM163.2 30.6h265.2v40.8H163.2V30.6zm306 498.576c-1.632 15.3-12.036 31.824-30.6 31.824H153c-18.564 0-28.968-16.524-30.6-31.824L82.824 173.4h425.952L469.2 529.176zM540.6 153H51c-16.932 0-30.6-13.668-30.6-30.6S34.068 91.8 51 91.8h489.6c16.932 0 30.6 13.668 30.6 30.6S557.532 153 540.6 153z"/><path d="M193.8 535.5c2.856 0 5.1-2.244 5.1-5.1v-306c0-2.856-2.244-5.1-5.1-5.1s-5.1 2.244-5.1 5.1v306c0 2.856 2.244 5.1 5.1 5.1zM397.8 535.5c2.856 0 5.1-2.244 5.1-5.1v-306c0-2.856-2.244-5.1-5.1-5.1s-5.1 2.244-5.1 5.1v306c0 2.856 2.244 5.1 5.1 5.1zM295.8 535.5c2.856 0 5.1-2.244 5.1-5.1v-306c0-2.856-2.244-5.1-5.1-5.1s-5.1 2.244-5.1 5.1v306c0 2.856 2.244 5.1 5.1 5.1zM55.08 100.98c-14.076 0-25.5 11.424-25.5 25.5 0 2.856 2.244 5.1 5.1 5.1s5.1-2.244 5.1-5.1c0-8.364 6.936-15.3 15.3-15.3 2.856 0 5.1-2.244 5.1-5.1 0-2.856-2.244-5.1-5.1-5.1zM556.92 113.22c-2.856 0-5.1 2.244-5.1 5.1 0 8.364-6.936 15.3-15.3 15.3-2.856 0-5.1 2.244-5.1 5.1s2.244 5.1 5.1 5.1c14.076 0 25.5-11.424 25.5-25.5 0-2.856-2.244-5.1-5.1-5.1z"/></svg>