<svg xmlns="http://www.w3.org/2000/svg" viewBox="0 0 591.6 591.6"><path d="M540.6 81.6H51c-28.152 0-51 22.848-51 51V459c0 28.152 22.848 51 51 51h489.6c28.152 0 51-22.848 51-51V132.6c0-28.152-22.848-51-51-51zm0 20.4c4.692 0 8.976 1.02 13.056 2.856L295.8 291.312 37.944 104.856C41.82 103.02 46.308 102 51 102h489.6zm30.6 357c0 16.932-13.668 30.6-30.6 30.6h-40.596l-97.716-175.848c-1.428-2.448-4.488-3.264-6.936-2.04-2.448 1.428-3.264 4.488-2.04 6.936l94.86 170.952H103.224l94.86-170.952c1.428-2.448.408-5.508-2.04-6.936s-5.508-.408-6.936 2.04L91.596 489.6H51c-16.932 0-30.6-13.668-30.6-30.6V132.6c0-4.692 1.02-9.18 3.06-13.26.408.408.816.816 1.224 1.02l265.2 191.76c1.836 1.224 3.876 1.836 5.916 1.836 2.04 0 4.284-.612 5.916-1.836l265.2-191.76c.408-.408.816-.612 1.224-1.02 1.836 4.08 3.06 8.568 3.06 13.26V459z"/></svg>