<?xml version="1.0" encoding="iso-8859-1"?>
<!-- Generator: Adobe Illustrator 18.1.1, SVG Export Plug-In . SVG Version: 6.00 Build 0)  -->
<svg version="1.1" id="Capa_1" xmlns="http://www.w3.org/2000/svg" xmlns:xlink="http://www.w3.org/1999/xlink" x="0px" y="0px"
	 viewBox="0 0 591.6 591.6" style="enable-background:new 0 0 591.6 591.6;" xml:space="preserve">
<g>
	<g>
		<path d="M540.6,0H112.2c-27.948,0-51,22.848-51,51v30.6h-51C4.488,81.6,0,86.088,0,91.8S4.488,102,10.2,102h51v81.6h-51
			c-5.712,0-10.2,4.488-10.2,10.2S4.488,204,10.2,204h51v81.6h-51c-5.712,0-10.2,4.488-10.2,10.2S4.488,306,10.2,306h51v81.6h-51
			c-5.712,0-10.2,4.488-10.2,10.2S4.488,408,10.2,408h51v81.6h-51c-5.712,0-10.2,4.488-10.2,10.2S4.488,510,10.2,510h51v30.6
			c0,28.152,22.848,51,51,51h428.4c28.152,0,51-22.848,51-51V51C591.6,22.848,568.752,0,540.6,0z M367.2,20.4h102v154.428
			l-45.288-30.192c-3.468-2.244-7.956-2.244-11.22,0L367.2,174.828V20.4z M81.6,540.6V510h51c5.712,0,10.2-4.488,10.2-10.2
			s-4.488-10.2-10.2-10.2h-51V408h51c5.712,0,10.2-4.488,10.2-10.2s-4.488-10.2-10.2-10.2h-51V306h51c5.712,0,10.2-4.488,10.2-10.2
			s-4.488-10.2-10.2-10.2h-51V204h51c5.712,0,10.2-4.488,10.2-10.2s-4.488-10.2-10.2-10.2h-51V102h51c5.712,0,10.2-4.488,10.2-10.2
			s-4.488-10.2-10.2-10.2h-51V51c0-16.932,13.668-30.6,30.6-30.6h71.4v550.8h-71.4C95.472,571.2,81.6,557.532,81.6,540.6z
			 M571.2,540.6c0,16.932-13.668,30.6-30.6,30.6H204V20.4h142.8v173.4c0,3.672,2.04,7.14,5.304,8.976s7.344,1.632,10.404-0.408
			L418.2,165.24l55.488,37.128c1.632,1.224,3.672,1.632,5.712,1.632c1.632,0,3.264-0.408,4.896-1.224
			c3.264-1.836,5.304-5.304,5.304-8.976V20.4h51c16.932,0,30.6,13.668,30.6,30.6V540.6z"/>
		<path d="M540.6,392.7c-2.856,0-5.1,2.244-5.1,5.1v137.7H397.8c-2.856,0-5.1,2.244-5.1,5.1c0,2.856,2.244,5.1,5.1,5.1h142.8
			c2.856,0,5.1-2.244,5.1-5.1V397.8C545.7,394.944,543.456,392.7,540.6,392.7z"/>
	</g>
</g>
<g>
</g>
<g>
</g>
<g>
</g>
<g>
</g>
<g>
</g>
<g>
</g>
<g>
</g>
<g>
</g>
<g>
</g>
<g>
</g>
<g>
</g>
<g>
</g>
<g>
</g>
<g>
</g>
<g>
</g>
</svg>
