<?xml version="1.0" encoding="iso-8859-1"?>
<!-- Generator: Adobe Illustrator 18.1.1, SVG Export Plug-In . SVG Version: 6.00 Build 0)  -->
<svg version="1.1" id="Capa_1" xmlns="http://www.w3.org/2000/svg" xmlns:xlink="http://www.w3.org/1999/xlink" x="0px" y="0px"
	 viewBox="0 0 591.6 591.6" style="enable-background:new 0 0 591.6 591.6;" xml:space="preserve">
<g>
	<g>
		<path d="M464.1,201.96c-2.856-2.856-7.344-3.876-11.016-2.244c-3.876,1.632-6.324,5.304-6.324,9.384v47.532H334.968V144.84H382.5
			l0,0c5.712,0,10.2-4.488,10.2-10.2c0-3.06-1.428-5.916-3.468-7.752L303.144,40.8c-1.836-1.836-4.488-3.06-7.14-3.06
			s-5.304,1.02-7.14,3.06l-86.904,86.7c-2.856,2.856-3.876,7.344-2.244,11.016c1.632,3.876,5.304,6.324,9.384,6.324h47.532v111.996
			H144.636v-47.532c0-4.08-2.448-7.752-6.324-9.384c-3.876-1.632-8.16-0.612-11.016,2.244L40.8,288.66
			c-4.08,4.08-4.08,10.404,0,14.484l86.7,86.496c2.856,2.856,7.344,3.876,11.016,2.244c3.876-1.632,6.324-5.304,6.324-9.384v-47.532
			h111.996V446.76h-47.532c-4.08,0-7.752,2.448-9.384,6.324c-1.632,3.876-0.612,8.16,2.244,11.016l86.496,86.496
			c2.04,2.04,4.692,3.06,7.14,3.06c2.652,0,5.304-1.02,7.14-3.06l86.496-86.496c2.856-2.856,3.876-7.344,2.244-11.016
			c-1.632-3.876-5.304-6.324-9.384-6.324h-47.532V334.968h111.792V382.5c0,4.08,2.448,7.752,6.324,9.384
			c3.876,1.632,8.16,0.612,11.016-2.244l86.496-86.496c1.836-1.836,3.06-4.488,3.06-7.14s-1.02-5.304-3.06-7.14L464.1,201.96z
			 M467.16,357.612v-33.048c0-2.652-1.02-5.304-3.06-7.14c-1.836-1.836-4.488-3.06-7.14-3.06l0,0H324.768
			c-5.712,0-10.2,4.488-10.2,10.2v132.192c0,2.652,1.02,5.304,3.06,7.14c1.836,1.836,4.488,3.06,7.14,3.06h33.048L295.8,528.972
			l-62.016-61.812h33.048c5.712,0,10.2-4.488,10.2-10.2V324.768c0-2.652-1.02-5.304-3.06-7.14c-1.836-1.836-4.488-3.06-7.14-3.06
			H134.64c-5.712,0-10.2,4.488-10.2,10.2v33.048L62.424,295.8l62.016-61.812v33.048c0,2.652,1.02,5.304,3.06,7.14
			c1.836,1.836,4.488,3.06,7.14,3.06h132.396c5.712,0,10.2-4.488,10.2-10.2V134.64c0-5.712-4.488-10.2-10.2-10.2h-33.048
			L295.8,62.628l61.812,61.812h-33.048c-5.712,0-10.2,4.488-10.2,10.2v132.396c0,2.652,1.02,5.304,3.06,7.14
			c1.836,1.836,4.488,3.06,7.14,3.06l0,0h132.192c5.712,0,10.2-4.488,10.2-10.2v-33.048l62.016,62.016L467.16,357.612z"/>
		<path d="M540.6,0H51C22.848,0,0,22.848,0,51v489.6c0,28.152,22.848,51,51,51h489.6c28.152,0,51-22.848,51-51V51
			C591.6,22.848,568.752,0,540.6,0z M571.2,540.6c0,16.932-13.668,30.6-30.6,30.6H51c-16.932,0-30.6-13.668-30.6-30.6V51
			c0-16.932,13.668-30.6,30.6-30.6h489.6c16.932,0,30.6,13.668,30.6,30.6V540.6z"/>
	</g>
</g>
<g>
</g>
<g>
</g>
<g>
</g>
<g>
</g>
<g>
</g>
<g>
</g>
<g>
</g>
<g>
</g>
<g>
</g>
<g>
</g>
<g>
</g>
<g>
</g>
<g>
</g>
<g>
</g>
<g>
</g>
</svg>
