<?xml version="1.0" encoding="iso-8859-1"?>
<!-- Generator: Adobe Illustrator 18.1.1, SVG Export Plug-In . SVG Version: 6.00 Build 0)  -->
<svg version="1.1" id="Capa_1" xmlns="http://www.w3.org/2000/svg" xmlns:xlink="http://www.w3.org/1999/xlink" x="0px" y="0px"
	 viewBox="0 0 591.6 591.6" style="enable-background:new 0 0 591.6 591.6;" xml:space="preserve">
<g>
	<g>
		<path d="M561,183.6h-11.22v-51c0-28.152-22.848-51-51-51H51c-28.152,0-51,22.848-51,51V459c0,28.152,22.848,51,51,51h447.78
			c28.152,0,51-22.848,51-51v-51H561c16.932,0,30.6-13.668,30.6-30.6V214.2C591.6,197.268,577.932,183.6,561,183.6z M529.38,459
			c0,16.932-13.668,30.6-30.6,30.6H51c-16.932,0-30.6-13.668-30.6-30.6V132.6c0-16.932,13.668-30.6,30.6-30.6h447.78
			c16.932,0,30.6,13.668,30.6,30.6V459z M571.2,377.4c0,5.712-4.488,10.2-10.2,10.2h-11.22V204H561c5.712,0,10.2,4.488,10.2,10.2
			V377.4z"/>
		<path d="M155.856,122.4H68.544c-15.3,0-27.744,13.668-27.744,30.6v285.6c0,16.932,12.444,30.6,27.744,30.6h87.516
			c15.3,0,27.744-13.668,27.744-30.6V153C183.6,136.068,171.156,122.4,155.856,122.4z M163.2,438.6c0,5.508-3.264,10.2-7.344,10.2
			H68.544c-3.876,0-7.344-4.692-7.344-10.2V153c0-5.508,3.264-10.2,7.344-10.2h87.516c3.876,0,7.344,4.692,7.344,10.2v285.6H163.2z"
			/>
		<path d="M79.56,147.9c-2.856,0-5.1,2.244-5.1,5.1v285.6c0,2.856,2.244,5.1,5.1,5.1s5.1-2.244,5.1-5.1V153
			C84.66,150.144,82.416,147.9,79.56,147.9z"/>
	</g>
</g>
<g>
</g>
<g>
</g>
<g>
</g>
<g>
</g>
<g>
</g>
<g>
</g>
<g>
</g>
<g>
</g>
<g>
</g>
<g>
</g>
<g>
</g>
<g>
</g>
<g>
</g>
<g>
</g>
<g>
</g>
</svg>
