<?xml version="1.0" encoding="iso-8859-1"?>
<!-- Generator: Adobe Illustrator 18.1.1, SVG Export Plug-In . SVG Version: 6.00 Build 0)  -->
<svg version="1.1" id="Capa_1" xmlns="http://www.w3.org/2000/svg" xmlns:xlink="http://www.w3.org/1999/xlink" x="0px" y="0px"
	 viewBox="0 0 591.396 591.396" style="enable-background:new 0 0 591.396 591.396;" xml:space="preserve">
<g>
	<g>
		<path d="M300.786,40.8c0-2.856-2.244-5.1-5.1-5.1c-19.584,0-35.7,16.116-35.7,35.7c0,2.856,2.244,5.1,5.1,5.1s5.1-2.244,5.1-5.1
			c0-14.076,11.424-25.5,25.5-25.5C298.542,45.9,300.786,43.656,300.786,40.8z"/>
		<path d="M568.638,371.688l-60.792-101.184c-1.632-2.856-4.896-4.692-8.16-4.692s-6.528,1.836-8.16,4.692l-61.2,102
			c-1.836,2.856-1.836,6.528-0.204,9.588c1.632,3.06,4.896,4.896,8.364,4.896h51c-2.04,107.304-39.984,116.076-91.596,128.112
			c-29.376,6.732-62.22,14.28-91.8,40.8V183.6h51c5.712,0,10.2-4.488,10.2-10.2s-4.488-10.2-10.2-10.2h-51v-21.216
			c34.476-4.896,61.2-34.68,61.2-70.584c0-39.372-32.028-71.4-71.4-71.4s-71.4,32.028-71.4,71.4c0,35.904,26.724,65.688,61.2,70.584
			V163.2h-51c-5.712,0-10.2,4.488-10.2,10.2s4.488,10.2,10.2,10.2h51v372.096c-29.58-26.52-62.424-34.068-91.8-40.8
			c-51.816-12.036-89.556-20.604-91.596-128.112h51l0,0c5.304,0,9.588-4.284,9.588-9.588c0-2.04-0.612-4.08-1.836-5.508
			l-61.2-101.184c-1.632-2.856-4.896-4.692-8.16-4.692c-3.264,0-6.528,1.836-8.16,4.692l-61.2,102
			c-1.836,2.856-1.836,6.528-0.204,9.588s4.896,4.896,8.364,4.896H81.69c2.448,123.624,53.448,135.456,107.508,147.9
			c33.864,7.752,69.156,15.912,98.736,52.836l0,0l0.204,0.204c0.408,0.408,0.816,0.816,1.224,1.224l0,0l0,0
			c0.408,0.408,0.816,0.612,1.224,0.816c0.204,0,0.204,0.204,0.408,0.204c0.408,0.204,0.816,0.408,1.428,0.612h0.204
			c0.408,0.204,0.816,0.204,1.224,0.408c0.204,0,0.204,0,0.408,0c0.408,0,1.02,0.204,1.428,0.204l0,0l0,0l0,0l0,0
			c0.408,0,1.02,0,1.428-0.204c0.204,0,0.204,0,0.408,0c0.408,0,1.02-0.204,1.428-0.408l0,0l0,0
			c0.408-0.204,0.816-0.408,1.224-0.612c0.204,0,0.204-0.204,0.408-0.204c0.408-0.204,0.612-0.408,1.02-0.612
			c0,0,0.204,0,0.204-0.204c0.408-0.204,0.816-0.612,1.02-1.02l0.204-0.204c0.204-0.204,0.408-0.408,0.408-0.408
			c29.58-36.924,64.668-45.084,98.736-52.836c54.06-12.444,105.06-24.276,107.508-147.9h51.204l0,0c5.304,0,9.588-4.284,9.588-9.588
			C570.474,375.156,569.862,373.32,568.638,371.688z M244.686,71.4c0-28.152,22.848-51,51-51s51,22.848,51,51s-22.848,51-51,51
			S244.686,99.552,244.686,71.4z M91.686,293.76l44.472,74.052h-40.8c-1.02-0.408-2.244-0.612-3.672-0.612s-2.448,0.204-3.672,0.612
			h-40.8L91.686,293.76z M503.358,367.812c-1.02-0.408-2.244-0.612-3.672-0.612c-1.428,0-2.448,0.204-3.672,0.612h-40.8
			l44.472-74.052l44.472,74.052H503.358z"/>
		<path d="M95.97,327.012c1.428-2.448,0.816-5.508-1.632-6.936c-2.448-1.428-5.508-0.816-6.936,1.632l-20.4,32.64
			c-1.428,2.448-0.816,5.508,1.632,6.936c0.816,0.612,1.836,0.816,2.652,0.816c1.632,0,3.264-0.816,4.284-2.448L95.97,327.012z"/>
		<path d="M495.402,321.504l-20.4,32.64c-1.428,2.448-0.816,5.508,1.632,6.936c0.816,0.612,1.836,0.816,2.652,0.816
			c1.632,0,3.264-0.816,4.284-2.448l20.4-32.64c1.428-2.448,0.816-5.508-1.632-6.936C500.094,318.444,496.83,319.26,495.402,321.504
			z"/>
	</g>
</g>
<g>
</g>
<g>
</g>
<g>
</g>
<g>
</g>
<g>
</g>
<g>
</g>
<g>
</g>
<g>
</g>
<g>
</g>
<g>
</g>
<g>
</g>
<g>
</g>
<g>
</g>
<g>
</g>
<g>
</g>
</svg>
