<?xml version="1.0" encoding="iso-8859-1"?>
<!-- Generator: Adobe Illustrator 18.1.1, SVG Export Plug-In . SVG Version: 6.00 Build 0)  -->
<svg version="1.1" id="Capa_1" xmlns="http://www.w3.org/2000/svg" xmlns:xlink="http://www.w3.org/1999/xlink" x="0px" y="0px"
	 viewBox="0 0 612 612" style="enable-background:new 0 0 612 612;" xml:space="preserve">
<path d="M604.722,372.347c-14.978,67.719-53.162,128.898-107.169,172.356C443.336,587.95,375.406,612,306,612
	s-137.336-23.839-191.553-67.297S22.256,440.066,7.278,372.347S0.949,233.112,31.539,170.879
	c30.589-62.234,82.275-112.654,145.142-141.977c5.274-2.532,11.603-0.211,13.923,5.063c2.532,5.274,0.211,11.603-5.063,13.923
	C63.605,104.848-1.371,236.277,27.952,367.706S171.406,590.904,306,590.904s248.935-91.768,278.048-223.198
	c29.113-131.429-35.653-262.858-157.588-319.818c-5.274-2.532-7.595-8.649-5.063-13.923s8.649-7.595,13.923-5.063
	c62.867,29.324,114.341,79.744,145.142,141.977C611.051,233.112,619.7,304.628,604.722,372.347z M253.26,224.041V52.74
	C253.26,23.627,276.887,0,306,0s52.74,23.628,52.74,52.74v171.301c0,29.113-23.628,52.74-52.74,52.74S253.26,253.154,253.26,224.041
	z M274.356,224.252c0,17.51,14.134,31.644,31.644,31.644s31.644-14.134,31.644-31.644V52.951c0-17.51-14.134-31.644-31.644-31.644
	s-31.644,14.134-31.644,31.644V224.252z M293.342,226.995c2.953,0,5.274-2.532,5.274-5.274V52.951c0-2.953-2.321-5.274-5.274-5.274
	s-5.274,2.32-5.274,5.274V221.72C288.068,224.674,290.389,226.995,293.342,226.995z"/>
<g>
</g>
<g>
</g>
<g>
</g>
<g>
</g>
<g>
</g>
<g>
</g>
<g>
</g>
<g>
</g>
<g>
</g>
<g>
</g>
<g>
</g>
<g>
</g>
<g>
</g>
<g>
</g>
<g>
</g>
</svg>
