<?xml version="1.0" encoding="iso-8859-1"?>
<!-- Generator: Adobe Illustrator 18.1.1, SVG Export Plug-In . SVG Version: 6.00 Build 0)  -->
<svg version="1.1" id="Capa_1" xmlns="http://www.w3.org/2000/svg" xmlns:xlink="http://www.w3.org/1999/xlink" x="0px" y="0px"
	 viewBox="0 0 591.6 591.6" style="enable-background:new 0 0 591.6 591.6;" xml:space="preserve">
<g>
	<g>
		<path d="M541.008,227.868c-20.4-20.4-44.88-35.088-71.808-43.248c-0.612-45.492-18.564-87.924-50.592-119.952
			c-32.64-32.64-76.296-50.592-122.808-50.592s-89.964,17.952-122.808,50.592c-32.028,32.028-49.776,74.664-50.592,120.156
			c-26.928,8.16-51.408,22.848-71.808,43.248C17.952,260.508,0,304.164,0,350.676s17.952,89.964,50.592,122.808
			c32.64,32.64,76.296,50.592,122.808,50.592c5.712,0,10.2-4.488,10.2-10.2s-4.488-10.2-10.2-10.2c-84.456,0-153-68.544-153-153
			s68.544-153,153-153s153,68.544,153,153c0,5.712,4.488,10.2,10.2,10.2s10.2-4.488,10.2-10.2c0-95.676-77.724-173.4-173.4-173.4
			c-1.836,0-3.876,0-5.712,0.204C176.664,109.548,234.6,57.936,303.96,57.936c2.856,0,5.1-2.244,5.1-5.1s-2.244-5.1-5.1-5.1
			c-75.276,0-137.904,56.508-146.676,130.356c-4.896,0.408-9.588,1.02-14.28,1.836C146.88,98.94,213.996,34.476,295.8,34.476
			s148.92,64.668,152.796,145.452c-9.996-1.836-19.992-2.652-30.396-2.652c-5.712,0-10.2,4.488-10.2,10.2s4.488,10.2,10.2,10.2
			c84.456,0,153,68.544,153,153s-68.544,153-153,153c-5.712,0-10.2,4.488-10.2,10.2c0,5.712,4.488,10.2,10.2,10.2
			c46.512,0,89.964-17.952,122.808-50.592c32.64-32.64,50.592-76.296,50.592-122.808S573.648,260.508,541.008,227.868z"/>
		<path d="M181.56,210.936c-81.396,0-147.696,66.3-147.696,147.696c0,2.856,2.244,5.1,5.1,5.1s5.1-2.244,5.1-5.1
			c0-75.888,61.812-137.496,137.496-137.496c2.856,0,5.1-2.244,5.1-5.1S184.416,210.936,181.56,210.936z"/>
		<path d="M362.304,457.572l-94.86,94.86l-38.148-37.536c-4.08-3.876-10.404-3.876-14.484,0.204
			c-3.876,4.08-3.876,10.404,0.204,14.484l45.492,44.676c0.204,0.204,0.612,0.408,0.816,0.816c0.204,0.204,0.408,0.408,0.612,0.612
			c0.408,0.204,0.816,0.408,1.224,0.612c0.204,0.204,0.408,0.204,0.612,0.408c0.408,0.204,0.816,0.204,1.428,0.408
			c0.204,0,0.408,0.204,0.612,0.204c0.612,0.204,1.224,0.204,1.836,0.204l0,0l0,0c0.612,0,1.224,0,2.04-0.204
			c0.204,0,0.408-0.204,0.612-0.204c0.408-0.204,0.816-0.204,1.428-0.408c0.204,0,0.408-0.204,0.612-0.408
			c0.408-0.204,0.816-0.408,1.02-0.612s0.408-0.408,0.612-0.612c0.204-0.204,0.612-0.408,0.816-0.612l0,0l0,0l0,0l102-102
			c4.08-4.08,4.08-10.404,0-14.484C372.708,453.696,366.18,453.696,362.304,457.572z"/>
	</g>
</g>
<g>
</g>
<g>
</g>
<g>
</g>
<g>
</g>
<g>
</g>
<g>
</g>
<g>
</g>
<g>
</g>
<g>
</g>
<g>
</g>
<g>
</g>
<g>
</g>
<g>
</g>
<g>
</g>
<g>
</g>
</svg>
