<?xml version="1.0" encoding="iso-8859-1"?>
<!-- Generator: Adobe Illustrator 18.1.1, SVG Export Plug-In . SVG Version: 6.00 Build 0)  -->
<svg version="1.1" id="Capa_1" xmlns="http://www.w3.org/2000/svg" xmlns:xlink="http://www.w3.org/1999/xlink" x="0px" y="0px"
	 viewBox="0 0 550.8 550.8" style="enable-background:new 0 0 550.8 550.8;" xml:space="preserve">
<g>
	<g>
		<path d="M479.4,408h-51V142.8h51c39.372,0,71.4-32.028,71.4-71.4S518.772,0,479.4,0S408,32.028,408,71.4v51H142.8v-51
			C142.8,32.028,110.772,0,71.4,0S0,32.028,0,71.4s32.028,71.4,71.4,71.4h51V408h-51C32.028,408,0,440.028,0,479.4
			s32.028,71.4,71.4,71.4s71.4-32.028,71.4-71.4v-51H408v51c0,39.372,32.028,71.4,71.4,71.4s71.4-32.028,71.4-71.4
			S518.772,408,479.4,408z M428.4,71.4c0-28.152,22.848-51,51-51c28.152,0,51,22.848,51,51s-22.848,51-51,51h-51V71.4z M122.4,479.4
			c0,28.152-22.848,51-51,51s-51-22.848-51-51s22.848-51,51-51h51V479.4z M122.4,122.4h-51c-28.152,0-51-22.848-51-51
			s22.848-51,51-51s51,22.848,51,51V122.4z M408,408H142.8V142.8H408V408z M479.4,530.4c-28.152,0-51-22.848-51-51v-51h51
			c28.152,0,51,22.848,51,51C530.4,507.552,507.552,530.4,479.4,530.4z"/>
		<path d="M35.7,479.4c0,2.856,2.244,5.1,5.1,5.1s5.1-2.244,5.1-5.1c0-14.076,11.424-25.5,25.5-25.5c2.856,0,5.1-2.244,5.1-5.1
			s-2.244-5.1-5.1-5.1C51.816,443.7,35.7,459.816,35.7,479.4z"/>
		<path d="M71.4,35.7c-19.584,0-35.7,16.116-35.7,35.7c0,2.856,2.244,5.1,5.1,5.1s5.1-2.244,5.1-5.1c0-14.076,11.424-25.5,25.5-25.5
			c2.856,0,5.1-2.244,5.1-5.1S74.256,35.7,71.4,35.7z"/>
		<path d="M484.5,40.8c0-2.856-2.244-5.1-5.1-5.1c-19.584,0-35.7,16.116-35.7,35.7c0,2.856,2.244,5.1,5.1,5.1s5.1-2.244,5.1-5.1
			c0-14.076,11.424-25.5,25.5-25.5C482.256,45.9,484.5,43.656,484.5,40.8z"/>
		<path d="M479.4,443.7c-19.584,0-35.7,16.116-35.7,35.7c0,2.856,2.244,5.1,5.1,5.1s5.1-2.244,5.1-5.1
			c0-14.076,11.424-25.5,25.5-25.5c2.856,0,5.1-2.244,5.1-5.1S482.256,443.7,479.4,443.7z"/>
	</g>
</g>
<g>
</g>
<g>
</g>
<g>
</g>
<g>
</g>
<g>
</g>
<g>
</g>
<g>
</g>
<g>
</g>
<g>
</g>
<g>
</g>
<g>
</g>
<g>
</g>
<g>
</g>
<g>
</g>
<g>
</g>
</svg>
