<?xml version="1.0" encoding="iso-8859-1"?>
<!-- Generator: Adobe Illustrator 18.1.1, SVG Export Plug-In . SVG Version: 6.00 Build 0)  -->
<svg version="1.1" id="Capa_1" xmlns="http://www.w3.org/2000/svg" xmlns:xlink="http://www.w3.org/1999/xlink" x="0px" y="0px"
	 viewBox="0 0 591.6 591.6" style="enable-background:new 0 0 591.6 591.6;" xml:space="preserve">
<g>
	<g>
		<path d="M591.6,71.4c0-5.712-4.488-10.2-10.2-10.2H265.2V30.6c0-5.712-4.488-10.2-10.2-10.2H91.8c-5.712,0-10.2,4.488-10.2,10.2
			v30.6H10.2C4.488,61.2,0,65.688,0,71.4V153l0,0c0,0.408,0,0.612,0,1.02l40.8,408c0.612,5.304,4.896,9.18,10.2,9.18h489.6
			c5.304,0,9.588-3.876,10.2-9.18l40.8-408c0-0.408,0-0.612,0-1.02l0,0V71.4z M91.8,81.6c5.712,0,10.2-4.488,10.2-10.2V40.8h142.8
			v30.6c0,5.712,4.488,10.2,10.2,10.2h316.2v61.2H20.4V81.6H91.8z M531.42,550.8H60.18L21.42,163.2h548.556L531.42,550.8z"/>
		<path d="M51,186.66h489.6c2.856,0,5.1-2.244,5.1-5.1s-2.244-5.1-5.1-5.1H51c-2.856,0-5.1,2.244-5.1,5.1S48.144,186.66,51,186.66z"
			/>
		<path d="M120.36,84.66c2.856,0,5.1-2.244,5.1-5.1v-15.3h56.1c2.856,0,5.1-2.244,5.1-5.1s-2.244-5.1-5.1-5.1h-61.2
			c-2.856,0-5.1,2.244-5.1,5.1v20.4C115.26,82.416,117.504,84.66,120.36,84.66z"/>
	</g>
</g>
<g>
</g>
<g>
</g>
<g>
</g>
<g>
</g>
<g>
</g>
<g>
</g>
<g>
</g>
<g>
</g>
<g>
</g>
<g>
</g>
<g>
</g>
<g>
</g>
<g>
</g>
<g>
</g>
<g>
</g>
</svg>
