<?xml version="1.0" encoding="iso-8859-1"?>
<!-- Generator: Adobe Illustrator 18.1.1, SVG Export Plug-In . SVG Version: 6.00 Build 0)  -->
<svg version="1.1" id="Capa_1" xmlns="http://www.w3.org/2000/svg" xmlns:xlink="http://www.w3.org/1999/xlink" x="0px" y="0px"
	 viewBox="0 0 591.6 591.6" style="enable-background:new 0 0 591.6 591.6;" xml:space="preserve">
<g>
	<g>
		<path d="M295.8,0C132.6,0,0,132.6,0,295.8s132.6,295.8,295.8,295.8S591.6,459,591.6,295.8S459,0,295.8,0z M295.8,571.2
			c-151.776,0-275.4-123.624-275.4-275.4S144.024,20.4,295.8,20.4s275.4,123.624,275.4,275.4S447.576,571.2,295.8,571.2z"/>
		<path d="M309.06,48.96c0-2.856-2.244-5.1-5.1-5.1c-143.412,0-260.1,116.688-260.1,260.1c0,2.856,2.244,5.1,5.1,5.1
			s5.1-2.244,5.1-5.1c0-137.7,112.2-249.9,249.9-249.9C306.816,54.06,309.06,51.816,309.06,48.96z"/>
		<path d="M542.64,282.54c-2.856,0-5.1,2.244-5.1,5.1c0,137.7-112.2,249.9-249.9,249.9c-2.856,0-5.1,2.244-5.1,5.1
			c0,2.856,2.244,5.1,5.1,5.1c143.412,0,260.1-116.688,260.1-260.1C547.74,284.784,545.496,282.54,542.64,282.54z"/>
		<path d="M296.208,367.2c18.972,0,36.72-7.548,50.184-20.808c13.872-13.872,20.808-31.824,20.808-49.98
			c0-0.204,0.204-0.204,0.204-0.408l82.212-139.944c2.448-4.08,1.632-9.18-1.632-12.444c-3.264-3.264-8.364-3.876-12.444-1.632
			L295.8,224.196c-0.204,0-0.204,0.204-0.204,0.204c-18.972,0-36.72,7.548-50.184,20.808
			c-13.872,13.872-20.808,32.028-20.808,50.184c0,0.204-0.204,0.204-0.204,0.408l-82.212,139.944
			c-2.448,4.08-1.632,9.18,1.632,12.444c2.04,2.04,4.488,3.06,7.14,3.06c1.836,0,3.468-0.408,5.1-1.428l139.944-82.212
			C296.004,367.404,296.004,367.2,296.208,367.2z M360.876,266.628c-3.468-7.752-8.364-14.892-14.688-21.216
			c-6.324-6.324-13.464-11.22-21.216-14.688l87.108-51.204L360.876,266.628z M259.692,259.692
			c9.588-9.588,22.44-14.892,36.108-14.892s26.52,5.304,36.108,14.892c19.788,19.788,19.788,52.224,0,72.216
			c-9.588,9.588-22.44,14.892-36.108,14.892s-26.52-5.304-36.108-14.892C239.904,311.916,239.904,279.684,259.692,259.692z
			 M230.724,324.972c3.468,7.752,8.364,14.892,14.688,21.216c6.324,6.324,13.464,11.22,21.216,14.688L179.52,412.08L230.724,324.972
			z"/>
		<circle cx="295.8" cy="295.8" r="20.4"/>
	</g>
</g>
<g>
</g>
<g>
</g>
<g>
</g>
<g>
</g>
<g>
</g>
<g>
</g>
<g>
</g>
<g>
</g>
<g>
</g>
<g>
</g>
<g>
</g>
<g>
</g>
<g>
</g>
<g>
</g>
<g>
</g>
</svg>
