<?xml version="1.0" encoding="iso-8859-1"?>
<!-- Generator: Adobe Illustrator 18.1.1, SVG Export Plug-In . SVG Version: 6.00 Build 0)  -->
<svg version="1.1" id="Capa_1" xmlns="http://www.w3.org/2000/svg" xmlns:xlink="http://www.w3.org/1999/xlink" x="0px" y="0px"
	 viewBox="0 0 591.6 591.6" style="enable-background:new 0 0 591.6 591.6;" xml:space="preserve">
<g>
	<g>
		<path d="M561,183.6h-11.22v-51c0-28.152-22.848-51-51-51H51c-28.152,0-51,22.848-51,51V459c0,28.152,22.848,51,51,51h447.78
			c28.152,0,51-22.848,51-51v-51H561c16.932,0,30.6-13.668,30.6-30.6V214.2C591.6,197.268,577.932,183.6,561,183.6z M529.38,459
			c0,16.932-13.668,30.6-30.6,30.6H51c-16.932,0-30.6-13.668-30.6-30.6V132.6c0-16.932,13.668-30.6,30.6-30.6h447.78
			c16.932,0,30.6,13.668,30.6,30.6V459z M571.2,377.4c0,5.712-4.488,10.2-10.2,10.2h-11.22V204H561c5.712,0,10.2,4.488,10.2,10.2
			V377.4z"/>
		<path d="M384.132,186.66c-4.08-4.08-10.404-4.08-14.484,0l-94.86,94.86l-94.656-94.86c-4.08-4.08-10.404-4.08-14.484,0
			c-4.08,4.08-4.08,10.404,0,14.484l94.86,94.86l-94.86,94.86c-4.08,4.08-4.08,10.404,0,14.484c2.04,2.04,4.692,3.06,7.14,3.06
			s5.304-1.02,7.14-3.06l94.86-94.86l94.86,94.86c2.04,2.04,4.692,3.06,7.14,3.06s5.304-1.02,7.14-3.06
			c4.08-4.08,4.08-10.404,0-14.484L289.272,295.8l94.86-94.86C388.008,197.064,388.008,190.536,384.132,186.66z"/>
	</g>
</g>
<g>
</g>
<g>
</g>
<g>
</g>
<g>
</g>
<g>
</g>
<g>
</g>
<g>
</g>
<g>
</g>
<g>
</g>
<g>
</g>
<g>
</g>
<g>
</g>
<g>
</g>
<g>
</g>
<g>
</g>
</svg>
