<?xml version="1.0" encoding="iso-8859-1"?>
<!-- Generator: Adobe Illustrator 18.1.1, SVG Export Plug-In . SVG Version: 6.00 Build 0)  -->
<svg version="1.1" id="Capa_1" xmlns="http://www.w3.org/2000/svg" xmlns:xlink="http://www.w3.org/1999/xlink" x="0px" y="0px"
	 viewBox="0 0 593.64 593.64" style="enable-background:new 0 0 593.64 593.64;" xml:space="preserve">
<g>
	<g>
		<path d="M541.021,130.152c-0.204-0.204-0.204-0.204-0.408-0.408c-20.604-29.988-46.716-56.1-76.704-76.704
			c-0.204-0.204-0.204-0.204-0.408-0.408C414.541,18.156,356.809,0,296.833,0S179.125,18.156,130.165,52.632
			c-0.204,0.204-0.204,0.204-0.408,0.408c-30.192,20.604-56.1,46.512-76.908,76.704c-0.204,0.204-0.204,0.204-0.408,0.408
			c-69.768,99.756-69.768,233.58,0.204,333.336c0.204,0.204,0.204,0.204,0.408,0.408c20.604,29.988,46.716,56.1,76.704,76.704
			c0.204,0.204,0.204,0.204,0.408,0.408c49.164,34.476,106.692,52.632,166.668,52.632s117.708-18.156,166.668-52.632
			c0.204-0.204,0.204-0.204,0.408-0.408c29.988-20.604,56.1-46.716,76.704-76.704c0.204-0.204,0.204-0.204,0.408-0.408
			C610.993,363.732,610.993,229.908,541.021,130.152z M296.833,572.22c-55.692,0-107.508-16.524-150.756-45.084l35.088-49.98
			c34.476,22.848,74.256,34.884,115.668,34.884s81.396-12.036,115.668-34.884l35.088,49.98
			C404.341,555.696,352.525,572.22,296.833,572.22z M296.833,490.62c-106.896,0-193.8-86.904-193.8-193.8s86.904-193.8,193.8-193.8
			s193.8,86.904,193.8,193.8S403.729,490.62,296.833,490.62z M21.433,296.82c0-55.692,16.524-107.508,45.084-150.756l49.98,35.088
			c-46.308,69.768-46.308,161.568,0,231.54l-49.98,35.088C37.957,404.328,21.433,352.512,21.433,296.82z M296.833,21.42
			c55.692,0,107.508,16.524,150.756,45.084l-35.088,49.98C378.025,93.636,338.245,81.6,296.833,81.6
			c-41.412,0-81.396,12.036-115.668,34.884l-35.088-49.98C189.325,37.944,241.141,21.42,296.833,21.42z M477.169,181.152
			l49.98-35.088c28.56,43.248,45.084,95.064,45.084,150.756s-16.524,107.508-45.084,150.756l-49.98-35.088
			C523.477,342.72,523.477,250.92,477.169,181.152z M521.437,137.7l-50.184,35.088c-13.872-19.38-31.008-36.516-50.388-50.388
			l35.088-50.184C481.249,90.168,503.485,112.404,521.437,137.7z M137.713,72.216l35.088,50.184
			c-19.38,13.872-36.516,31.008-50.388,50.388L72.229,137.7C90.181,112.404,112.417,90.168,137.713,72.216z M72.229,455.94
			l50.184-35.088c13.872,19.38,31.008,36.516,50.388,50.388l-35.088,50.184C112.417,503.472,90.181,481.236,72.229,455.94z
			 M455.953,521.424l-35.088-50.184c19.38-13.872,36.516-31.008,50.388-50.388l50.184,35.088
			C503.485,481.236,481.249,503.472,455.953,521.424z"/>
	</g>
</g>
<g>
</g>
<g>
</g>
<g>
</g>
<g>
</g>
<g>
</g>
<g>
</g>
<g>
</g>
<g>
</g>
<g>
</g>
<g>
</g>
<g>
</g>
<g>
</g>
<g>
</g>
<g>
</g>
<g>
</g>
</svg>
