<?xml version="1.0" encoding="iso-8859-1"?>
<!-- Generator: Adobe Illustrator 18.1.1, SVG Export Plug-In . SVG Version: 6.00 Build 0)  -->
<svg version="1.1" id="Capa_1" xmlns="http://www.w3.org/2000/svg" xmlns:xlink="http://www.w3.org/1999/xlink" x="0px" y="0px"
	 viewBox="0 0 612 612" style="enable-background:new 0 0 612 612;" xml:space="preserve">
<path d="M81.964,0c-42.184,0-76.5,34.316-76.5,76.5s34.315,76.5,76.5,76.5c42.184,0,76.5-34.316,76.5-76.5
	C158.464,34.315,124.148,0,81.964,0z M81.964,131.142c-30.163,0-54.643-24.48-54.643-54.643s24.48-54.643,54.643-54.643
	s54.643,24.48,54.643,54.643S112.127,131.142,81.964,131.142z M87.428,43.714c0,3.06-2.404,5.464-5.464,5.464
	c-15.081,0-27.321,12.24-27.321,27.321c0,2.841-2.404,5.464-5.464,5.464s-5.464-2.404-5.464-5.464
	c0-20.983,17.267-38.25,38.25-38.25C85.024,38.25,87.428,40.654,87.428,43.714z M81.964,229.5c-42.184,0-76.5,34.316-76.5,76.5
	s34.315,76.5,76.5,76.5c42.184,0,76.5-34.316,76.5-76.5C158.464,263.815,124.148,229.5,81.964,229.5z M81.964,360.643
	c-30.163,0-54.643-24.48-54.643-54.643s24.48-54.643,54.643-54.643s54.643,24.48,54.643,54.643S112.127,360.643,81.964,360.643z
	 M87.428,273.214c0,3.06-2.404,5.464-5.464,5.464c-15.081,0-27.321,12.24-27.321,27.321c0,2.841-2.404,5.464-5.464,5.464
	s-5.464-2.404-5.464-5.464c0-20.983,17.267-38.25,38.25-38.25C85.024,267.75,87.428,270.154,87.428,273.214z M81.964,459
	c-42.184,0-76.5,34.316-76.5,76.5s34.315,76.5,76.5,76.5c42.184,0,76.5-34.316,76.5-76.5C158.464,493.315,124.148,459,81.964,459z
	 M81.964,590.143c-30.163,0-54.643-24.48-54.643-54.643s24.48-54.643,54.643-54.643s54.643,24.48,54.643,54.643
	S112.127,590.143,81.964,590.143z M87.428,502.714c0,3.06-2.404,5.464-5.464,5.464c-15.081,0-27.321,12.24-27.321,27.321
	c0,2.841-2.404,5.464-5.464,5.464s-5.464-2.404-5.464-5.464c0-20.983,17.267-38.25,38.25-38.25
	C85.024,497.25,87.428,499.654,87.428,502.714z M267.75,153h262.286c42.184,0,76.5-34.316,76.5-76.5S572.22,0,530.036,0H267.75
	c-42.184,0-76.5,34.316-76.5,76.5S225.566,153,267.75,153z M267.75,21.857h262.286c30.163,0,54.643,24.48,54.643,54.643
	s-24.48,54.643-54.643,54.643H267.75c-30.163,0-54.643-24.48-54.643-54.643S237.587,21.857,267.75,21.857z M530.036,229.5H267.75
	c-42.184,0-76.5,34.316-76.5,76.5s34.316,76.5,76.5,76.5h262.286c42.184,0,76.5-34.316,76.5-76.5
	C606.536,263.815,572.22,229.5,530.036,229.5z M530.036,360.642H267.75c-30.163,0-54.643-24.48-54.643-54.643
	s24.48-54.643,54.643-54.643l0,0h262.286c30.163,0,54.643,24.48,54.643,54.643S560.199,360.642,530.036,360.642z M530.036,459
	H267.75c-42.184,0-76.5,34.316-76.5,76.5s34.316,76.5,76.5,76.5h262.286c42.184,0,76.5-34.316,76.5-76.5
	C606.536,493.315,572.22,459,530.036,459z M530.036,590.143H267.75c-30.163,0-54.643-24.48-54.643-54.643
	s24.48-54.643,54.643-54.643h262.286c30.163,0,54.643,24.48,54.643,54.643S560.199,590.143,530.036,590.143z M229.5,76.5
	c0-20.983,17.267-38.25,38.25-38.25c3.06,0,5.464,2.404,5.464,5.464s-2.404,5.464-5.464,5.464c-15.081,0-27.321,12.24-27.321,27.321
	c0,2.841-2.404,5.464-5.464,5.464S229.5,79.56,229.5,76.5z M273.214,273.214c0,3.06-2.404,5.464-5.464,5.464
	c-15.081,0-27.321,12.24-27.321,27.321c0,2.842-2.404,5.464-5.464,5.464S229.5,309.06,229.5,306c0-20.983,17.267-38.25,38.25-38.25
	C270.81,267.75,273.214,270.154,273.214,273.214z M273.214,502.714c0,3.06-2.404,5.464-5.464,5.464
	c-15.081,0-27.321,12.24-27.321,27.321c0,2.841-2.404,5.464-5.464,5.464s-5.464-2.404-5.464-5.464
	c0-20.983,17.267-38.25,38.25-38.25C270.81,497.25,273.214,499.654,273.214,502.714z M568.286,535.5
	c0,20.983-17.267,38.25-38.25,38.25c-3.06,0-5.464-2.404-5.464-5.464s2.404-5.464,5.464-5.464c15.081,0,27.321-12.24,27.321-27.321
	c0-3.06,2.404-5.464,5.464-5.464S568.286,532.44,568.286,535.5z M524.571,109.285c0-3.06,2.404-5.464,5.464-5.464
	c15.081,0,27.321-12.24,27.321-27.321c0-3.06,2.404-5.464,5.464-5.464s5.464,2.404,5.464,5.464c0,20.983-17.267,38.25-38.25,38.25
	C526.976,114.75,524.571,112.345,524.571,109.285z M568.286,306c0,20.983-17.267,38.25-38.25,38.25c-3.06,0-5.464-2.404-5.464-5.464
	s2.404-5.464,5.464-5.464c15.081,0,27.321-12.24,27.321-27.321c0-3.06,2.404-5.464,5.464-5.464S568.286,302.94,568.286,306z"/>
<g>
</g>
<g>
</g>
<g>
</g>
<g>
</g>
<g>
</g>
<g>
</g>
<g>
</g>
<g>
</g>
<g>
</g>
<g>
</g>
<g>
</g>
<g>
</g>
<g>
</g>
<g>
</g>
<g>
</g>
</svg>
