<?xml version="1.0" encoding="iso-8859-1"?>
<!-- Generator: Adobe Illustrator 18.1.1, SVG Export Plug-In . SVG Version: 6.00 Build 0)  -->
<svg version="1.1" id="Capa_1" xmlns="http://www.w3.org/2000/svg" xmlns:xlink="http://www.w3.org/1999/xlink" x="0px" y="0px"
	 viewBox="0 0 591.192 591.192" style="enable-background:new 0 0 591.192 591.192;" xml:space="preserve">
<g>
	<g>
		<path d="M259.896,519.588c0,2.856,2.244,5.1,5.1,5.1s5.1-2.244,5.1-5.1c0-14.076,11.424-25.5,25.5-25.5c2.856,0,5.1-2.244,5.1-5.1
			s-2.244-5.1-5.1-5.1C276.012,483.888,259.896,500.004,259.896,519.588z"/>
		<path d="M570.996,131.988c0-39.372-32.028-71.4-71.4-71.4s-71.4,32.028-71.4,71.4c0,35.904,26.52,65.688,61.2,70.584
			c-2.04,107.508-39.78,116.076-91.596,128.112c-29.376,6.732-62.22,14.28-91.8,40.8V121.176h51l0,0
			c5.304,0,9.588-4.284,9.588-9.588c0-2.04-0.612-4.08-1.836-5.508L303.756,4.692C302.124,1.836,298.86,0,295.596,0
			s-6.528,1.836-8.16,4.692l-61.2,102c-1.836,2.856-1.836,6.528-0.204,9.588c1.632,3.06,4.896,4.896,8.364,4.896h51v311.712
			c-29.58-26.52-62.424-34.068-91.8-40.8c-51.612-11.832-89.352-20.604-91.596-127.296h40.596c11.22,0,20.4-9.18,20.4-20.4v-102
			c0-11.22-9.18-20.4-20.4-20.4h-102c-11.22,0-20.4,9.18-20.4,20.4v102c0,11.22,9.18,20.4,20.4,20.4H81.6
			c2.652,123.012,53.652,134.844,107.508,147.288c29.376,6.732,59.568,13.668,86.292,39.372c-29.376,8.772-51,36.108-51,68.34
			c0,39.372,32.028,71.4,71.4,71.4s71.4-32.028,71.4-71.4c0-35.904-26.724-65.688-61.2-70.584v-48.144
			c29.172-34.68,63.24-42.636,96.492-50.184c54.06-12.444,105.06-24.276,107.508-147.9
			C544.272,197.88,570.996,168.096,570.996,131.988z M295.596,28.152l44.472,74.052h-88.74L295.596,28.152z M40.596,142.188h102v102
			h-102V142.188z M346.596,519.588c0,28.152-22.848,51-51,51s-51-22.848-51-51c0-28.152,22.848-51,51-51
			S346.596,491.436,346.596,519.588z M499.596,182.988c-28.152,0-51-22.848-51-51s22.848-51,51-51s51,22.848,51,51
			S527.748,182.988,499.596,182.988z"/>
		<path d="M499.596,96.288c-19.584,0-35.7,16.116-35.7,35.7c0,2.856,2.244,5.1,5.1,5.1s5.1-2.244,5.1-5.1
			c0-14.076,11.424-25.5,25.5-25.5c2.856,0,5.1-2.244,5.1-5.1S502.452,96.288,499.596,96.288z"/>
		<path d="M298.248,54.264c-2.448-1.428-5.508-0.816-6.936,1.632l-20.4,32.64c-1.428,2.448-0.816,5.508,1.632,6.936
			c0.816,0.612,1.836,0.816,2.652,0.816c1.632,0,3.264-0.816,4.284-2.448l20.4-32.64C301.512,58.956,300.696,55.692,298.248,54.264z
			"/>
		<path d="M95.676,151.368h-40.8c-2.856,0-5.1,2.244-5.1,5.1v40.8c0,2.856,2.244,5.1,5.1,5.1c2.856,0,5.1-2.244,5.1-5.1v-35.7h35.7
			c2.856,0,5.1-2.244,5.1-5.1S98.532,151.368,95.676,151.368z"/>
	</g>
</g>
<g>
</g>
<g>
</g>
<g>
</g>
<g>
</g>
<g>
</g>
<g>
</g>
<g>
</g>
<g>
</g>
<g>
</g>
<g>
</g>
<g>
</g>
<g>
</g>
<g>
</g>
<g>
</g>
<g>
</g>
</svg>
