<?xml version="1.0" encoding="iso-8859-1"?>
<!-- Generator: Adobe Illustrator 18.1.1, SVG Export Plug-In . SVG Version: 6.00 Build 0)  -->
<svg version="1.1" id="Capa_1" xmlns="http://www.w3.org/2000/svg" xmlns:xlink="http://www.w3.org/1999/xlink" x="0px" y="0px"
	 viewBox="0 0 601.865 601.865" style="enable-background:new 0 0 601.865 601.865;" xml:space="preserve">
<g>
	<g>
		<path d="M559.723,57.255C531.571,23.187,491.587,5.031,443.647,5.031c-67.32,0-105.264,29.784-125.256,54.876
			c-7.752,9.588-13.464,19.38-17.544,27.744c-4.08-8.568-9.792-18.156-17.544-27.744C263.311,34.815,225.367,5.031,158.047,5.031
			c-47.94,0-87.924,18.156-116.076,52.224C5.455,101.931-8.621,172.515,5.251,241.671c13.668,68.34,66.708,148.716,157.692,238.68
			c67.116,66.504,131.376,113.832,131.988,114.444c1.836,1.224,3.876,2.04,6.12,2.04c2.04,0,4.284-0.612,6.12-2.04
			c0.612-0.408,64.872-47.94,131.988-114.444c90.984-89.964,144.024-170.34,157.692-238.68
			C610.315,172.515,596.239,101.931,559.723,57.255z M576.451,237.591c-28.152,140.76-237.252,306.612-275.604,335.988
			C262.495,544.203,53.395,378.351,25.243,237.591c-12.648-63.24-0.204-127.5,32.436-167.28c24.48-29.784,58.14-44.88,100.368-44.88
			c112.2,0,131.988,89.964,132.804,93.84c1.02,4.692,5.1,8.16,9.996,8.16l0,0c4.896,0,8.976-3.468,9.996-8.16
			c0.816-3.876,20.604-93.84,132.804-93.84c42.228,0,75.888,15.096,100.368,44.88C576.655,110.091,589.099,174.351,576.451,237.591z
			"/>
		<path d="M166.207,43.791c-49.368,0-84.456,20.604-106.896,63.036c-17.748,33.456-20.604,84.66-7.752,137.088
			c8.364,33.864,28.356,60.792,49.776,89.352c5.712,7.752,11.832,15.708,17.544,24.072c1.02,1.428,2.652,2.244,4.08,2.244
			c1.02,0,2.04-0.204,2.856-1.02c2.244-1.632,2.856-4.896,1.224-7.14c-5.916-8.364-12.036-16.524-17.748-24.276
			c-20.604-27.54-40.188-53.652-47.94-85.68c-9.384-38.556-12.648-93.024,6.936-129.744c20.808-39.372,52.02-57.732,97.92-57.732
			c2.856,0,5.1-2.244,5.1-5.1S169.063,43.791,166.207,43.791z"/>
	</g>
</g>
<g>
</g>
<g>
</g>
<g>
</g>
<g>
</g>
<g>
</g>
<g>
</g>
<g>
</g>
<g>
</g>
<g>
</g>
<g>
</g>
<g>
</g>
<g>
</g>
<g>
</g>
<g>
</g>
<g>
</g>
</svg>
