<?xml version="1.0" encoding="iso-8859-1"?>
<!-- Generator: Adobe Illustrator 18.1.1, SVG Export Plug-In . SVG Version: 6.00 Build 0)  -->
<svg version="1.1" id="Capa_1" xmlns="http://www.w3.org/2000/svg" xmlns:xlink="http://www.w3.org/1999/xlink" x="0px" y="0px"
	 viewBox="0 0 591.804 591.804" style="enable-background:new 0 0 591.804 591.804;" xml:space="preserve">
<g>
	<g>
		<path d="M388.212,227.562c2.856,0,5.1-2.244,5.1-5.1c0-103.224-84.048-187.272-187.272-187.272c-2.856,0-5.1,2.244-5.1,5.1
			s2.244,5.1,5.1,5.1c97.716,0,177.072,79.356,177.072,177.072C383.112,225.318,385.356,227.562,388.212,227.562z"/>
		<path d="M222.36,383.214c-97.716,0-177.072-79.356-177.072-177.072c0-2.856-2.244-5.1-5.1-5.1s-5.1,2.244-5.1,5.1
			c0,103.224,84.048,187.272,187.272,187.272c2.856,0,5.1-2.244,5.1-5.1S225.216,383.214,222.36,383.214z"/>
		<path d="M588.336,492.354L400.248,320.586C418.2,289.374,428.4,253.062,428.4,214.302c0-118.116-96.084-214.2-214.2-214.2
			S0,96.186,0,214.302s96.084,214.2,214.2,214.2c40.392,0,78.336-11.22,110.568-30.804l167.484,190.536
			c1.836,2.04,4.488,3.468,7.344,3.468c0.204,0,0.204,0,0.408,0c2.652,0,5.304-1.02,7.14-3.06l81.6-81.6
			c2.04-2.04,3.06-4.692,3.06-7.344C591.804,497.046,590.376,494.19,588.336,492.354z M20.4,214.302
			c0-106.896,86.904-193.8,193.8-193.8S408,107.406,408,214.302s-86.904,193.8-193.8,193.8S20.4,321.198,20.4,214.302z
			 M389.028,338.13L529.38,466.242l-64.464,59.976L341.904,386.274C359.856,372.81,375.768,356.49,389.028,338.13z M500.208,566.61
			l-28.764-32.844l65.484-60.792l29.784,27.132L500.208,566.61z"/>
	</g>
</g>
<g>
</g>
<g>
</g>
<g>
</g>
<g>
</g>
<g>
</g>
<g>
</g>
<g>
</g>
<g>
</g>
<g>
</g>
<g>
</g>
<g>
</g>
<g>
</g>
<g>
</g>
<g>
</g>
<g>
</g>
</svg>
