<?xml version="1.0" encoding="iso-8859-1"?>
<!-- Generator: Adobe Illustrator 18.1.1, SVG Export Plug-In . SVG Version: 6.00 Build 0)  -->
<svg version="1.1" id="Capa_1" xmlns="http://www.w3.org/2000/svg" xmlns:xlink="http://www.w3.org/1999/xlink" x="0px" y="0px"
	 viewBox="0 0 592.76 592.76" style="enable-background:new 0 0 592.76 592.76;" xml:space="preserve">
<g>
	<g>
		<path d="M504.492,296.38l85.68-95.268c3.672-4.284,3.468-10.608-0.816-14.484c-4.284-3.672-10.608-3.468-14.484,0.816
			l-84.048,93.636l-84.252-93.636c-3.672-4.284-10.2-4.488-14.484-0.816c-4.284,3.672-4.488,10.2-0.816,14.484l85.68,95.268
			l-85.68,95.268c-3.672,4.284-3.468,10.608,0.816,14.484c2.04,1.836,4.488,2.652,6.732,2.652c2.856,0,5.508-1.224,7.548-3.468
			l84.252-93.636l84.252,93.636c2.04,2.244,4.896,3.468,7.548,3.468c2.448,0,4.896-0.816,6.732-2.652
			c4.284-3.672,4.488-10.2,0.816-14.484L504.492,296.38z"/>
		<path d="M39.984,209.68c-2.856,0-5.1,2.244-5.1,5.1v163.2c0,2.856,2.244,5.1,5.1,5.1s5.1-2.244,5.1-5.1v-163.2
			C45.084,211.924,42.84,209.68,39.984,209.68z"/>
		<path d="M358.224,0.58c-83.64,0-153.816,32.232-202.98,93.024c-13.056,16.116-24.276,33.864-33.66,52.836L6.936,184.792
			C2.856,186.22,0,190.096,0,194.38v204c0,4.488,2.856,8.364,6.936,9.588l114.648,38.352c9.384,18.972,20.604,36.72,33.66,52.836
			c49.164,60.792,119.34,93.024,202.98,93.024c5.712,0,10.2-4.488,10.2-10.2V10.78C368.424,5.068,363.732,0.58,358.224,0.58z
			 M20.4,391.036V201.724l90.168-29.988c-14.688,38.148-22.644,80.58-22.644,124.644s7.752,86.496,22.644,124.644L20.4,391.036z
			 M348.024,571.576c-164.628-5.508-239.7-145.248-239.7-275.196c0-72.42,22.236-139.944,62.832-189.924
			C214.404,53.008,275.4,23.632,348.024,21.184V571.576z"/>
		<path d="M199.92,495.892c1.02,1.224,2.448,1.836,3.876,1.836c1.224,0,2.448-0.408,3.264-1.224c2.04-1.836,2.448-5.1,0.408-7.14
			c-44.064-51-68.34-119.544-68.34-192.984s24.276-141.984,68.544-192.78c1.836-2.04,1.632-5.304-0.408-7.14
			c-2.04-1.836-5.304-1.632-7.14,0.408C154.02,149.5,128.928,220.492,128.928,296.38S154.02,443.26,199.92,495.892z"/>
	</g>
</g>
<g>
</g>
<g>
</g>
<g>
</g>
<g>
</g>
<g>
</g>
<g>
</g>
<g>
</g>
<g>
</g>
<g>
</g>
<g>
</g>
<g>
</g>
<g>
</g>
<g>
</g>
<g>
</g>
<g>
</g>
</svg>
