<?xml version="1.0" encoding="iso-8859-1"?>
<!-- Generator: Adobe Illustrator 18.1.1, SVG Export Plug-In . SVG Version: 6.00 Build 0)  -->
<svg version="1.1" id="Capa_1" xmlns="http://www.w3.org/2000/svg" xmlns:xlink="http://www.w3.org/1999/xlink" x="0px" y="0px"
	 viewBox="0 0 453.492 453.492" style="enable-background:new 0 0 453.492 453.492;" xml:space="preserve">
<g>
	<g>
		<path d="M159.923,113.424c-23.052,49.98-17.34,92.616,17.952,137.904c1.02,1.224,2.448,2.04,4.08,2.04
			c1.02,0,2.244-0.408,3.06-1.02c2.244-1.632,2.652-4.896,0.816-7.14c-33.252-42.636-38.148-80.784-16.728-127.5
			c1.224-2.652,0-5.508-2.448-6.732C164.207,109.752,161.147,110.976,159.923,113.424z"/>
		<path d="M450.215,118.524c-4.08-4.08-10.404-4.08-14.484,0l-100.98,100.98l0,0l-100.98-100.98l100.98-100.98
			c4.08-4.08,4.08-10.404,0-14.484c-4.08-4.08-10.404-4.08-14.484,0l-100.98,100.98l-50.388-50.388
			c-1.836-1.836-4.488-3.06-7.14-3.06s-5.304,1.02-7.14,3.06c-65.28,65.28-67.524,169.728-6.936,237.864l-0.204,0.204L3.251,435.948
			c-4.08,4.08-4.08,10.404,0,14.484c2.04,2.04,4.692,3.06,7.14,3.06s5.304-1.02,7.14-3.06l144.228-144.228l0.204-0.204
			c31.824,28.356,72.216,43.86,115.26,43.86c46.308,0,89.76-17.952,122.604-50.796c4.08-4.08,4.08-10.404,0-14.484l-50.388-50.388
			l100.98-100.98C454.295,128.928,454.295,122.4,450.215,118.524z M277.019,329.256c-40.8,0-79.356-15.912-108.12-44.88
			c-57.324-57.324-59.568-148.92-6.936-208.896l215.832,215.832C350.051,315.792,314.555,329.256,277.019,329.256z"/>
	</g>
</g>
<g>
</g>
<g>
</g>
<g>
</g>
<g>
</g>
<g>
</g>
<g>
</g>
<g>
</g>
<g>
</g>
<g>
</g>
<g>
</g>
<g>
</g>
<g>
</g>
<g>
</g>
<g>
</g>
<g>
</g>
</svg>
