<?xml version="1.0" encoding="iso-8859-1"?>
<!-- Generator: Adobe Illustrator 18.1.1, SVG Export Plug-In . SVG Version: 6.00 Build 0)  -->
<svg version="1.1" id="Capa_1" xmlns="http://www.w3.org/2000/svg" xmlns:xlink="http://www.w3.org/1999/xlink" x="0px" y="0px"
	 viewBox="0 0 581.397 581.397" style="enable-background:new 0 0 581.397 581.397;" xml:space="preserve">
<g>
	<g>
		<path d="M96.898,443.697c-25.296,0-45.9,20.604-45.9,45.9c0,2.856,2.244,5.1,5.1,5.1s5.1-2.244,5.1-5.1
			c0-19.584,16.116-35.7,35.7-35.7c2.856,0,5.1-2.244,5.1-5.1S99.754,443.697,96.898,443.697z"/>
		<path d="M576.298,385.965c0-0.204,0-0.204,0-0.408V10.197c0-3.06-1.428-5.916-3.672-7.956c-2.448-1.836-5.508-2.652-8.568-2.04
			l-387.6,81.6c-4.692,1.02-8.16,5.1-8.16,9.996v340.272c-16.932-20.808-42.636-34.272-71.4-34.272c-50.592,0-91.8,41.208-91.8,91.8
			s41.208,91.8,91.8,91.8s91.8-41.208,91.8-91.8c0-0.612,0-1.02,0-1.632c0-0.204,0-0.204,0-0.408v-311.1l367.2-77.316v230.928
			c-16.932-20.808-42.636-34.272-71.4-34.272c-50.592,0-91.8,41.208-91.8,91.8s41.208,91.8,91.8,91.8s91.8-41.208,91.8-91.8
			C576.298,386.985,576.298,386.577,576.298,385.965z M96.898,560.997c-39.372,0-71.4-32.028-71.4-71.4s32.028-71.4,71.4-71.4
			s71.4,32.028,71.4,71.4C168.298,528.969,136.27,560.997,96.898,560.997z M188.698,166.053v-65.892l367.2-77.316v65.892
			L188.698,166.053z M484.498,458.997c-39.372,0-71.4-32.028-71.4-71.4s32.028-71.4,71.4-71.4s71.4,32.028,71.4,71.4
			S523.87,458.997,484.498,458.997z"/>
		<path d="M484.498,341.697c-25.296,0-45.9,20.604-45.9,45.9c0,2.856,2.244,5.1,5.1,5.1s5.1-2.244,5.1-5.1
			c0-19.584,16.116-35.7,35.7-35.7c2.856,0,5.1-2.244,5.1-5.1S487.354,341.697,484.498,341.697z"/>
	</g>
</g>
<g>
</g>
<g>
</g>
<g>
</g>
<g>
</g>
<g>
</g>
<g>
</g>
<g>
</g>
<g>
</g>
<g>
</g>
<g>
</g>
<g>
</g>
<g>
</g>
<g>
</g>
<g>
</g>
<g>
</g>
</svg>
