<?xml version="1.0" encoding="iso-8859-1"?>
<!-- Generator: Adobe Illustrator 18.1.1, SVG Export Plug-In . SVG Version: 6.00 Build 0)  -->
<svg version="1.1" id="Capa_1" xmlns="http://www.w3.org/2000/svg" xmlns:xlink="http://www.w3.org/1999/xlink" x="0px" y="0px"
	 viewBox="0 0 590.352 590.352" style="enable-background:new 0 0 590.352 590.352;" xml:space="preserve">
<g>
	<g>
		<path d="M577.818,511.404l-102-61.2c-2.856-1.836-6.528-1.836-9.588-0.204c-3.06,1.632-4.896,4.896-4.896,8.364v15.3
			c-67.728-1.632-117.3-35.7-159.936-109.548c-1.428-2.448-4.488-3.264-6.936-1.836s-3.264,4.488-1.836,6.936
			c44.676,77.316,96.9,113.016,168.912,114.648v25.5c-74.256-1.836-142.8-42.432-180.132-107.1
			c-18.768-32.436-28.764-69.564-28.764-107.1s9.996-74.664,28.764-107.1c37.128-64.464,105.876-105.06,179.928-107.1v51
			c0,3.468,1.836,6.528,4.896,8.364c1.428,0.816,3.06,1.224,4.692,1.224c1.632,0,3.468-0.408,4.896-1.428l102-61.2
			c2.856-1.632,4.692-4.896,4.692-8.16c0-3.264-1.836-6.528-4.692-8.16l-102-61.2c-2.856-1.836-6.528-1.836-9.588-0.204
			c-3.06,1.632-4.896,4.896-4.896,8.364v51c-81.396,1.836-156.876,46.512-197.676,117.3c-8.976,15.504-16.116,31.824-21.216,48.96
			c-5.1-16.932-12.24-33.456-21.216-48.96c-41.82-72.42-119.544-117.3-203.184-117.3c-5.712,0-10.2,4.488-10.2,10.2
			s4.488,10.2,10.2,10.2c76.296,0,147.288,41.004,185.436,107.1c18.768,32.436,28.764,69.564,28.764,107.1
			s-9.996,74.664-28.764,107.1c-38.148,66.096-109.14,107.1-185.436,107.1c-5.712,0-10.2,4.488-10.2,10.2s4.488,10.2,10.2,10.2
			c83.64,0,161.364-44.88,203.184-117.3c8.976-15.504,16.116-31.824,21.216-48.96c5.1,16.932,12.24,33.456,21.216,48.96
			c40.8,70.788,116.28,115.26,197.676,117.3v51c0,3.468,1.836,6.528,4.896,8.364c1.428,0.816,3.06,1.224,4.692,1.224
			c1.632,0,3.468-0.408,4.896-1.428l102-61.2c2.856-1.632,4.692-4.896,4.692-8.16C582.51,516.3,580.674,513.036,577.818,511.404z
			 M480.51,26.292l73.848,44.472l-74.052,44.472V26.292H480.51z M480.51,564.036v-88.74l74.052,44.472L480.51,564.036z"/>
		<path d="M179.202,225.804c0.816,1.836,2.652,3.06,4.692,3.06c0.612,0,1.428-0.204,2.04-0.408c2.652-1.224,3.672-4.08,2.652-6.732
			c-25.908-57.324-92.82-115.26-170.544-115.26c-2.856,0-5.1,2.244-5.1,5.1s2.244,5.1,5.1,5.1
			C91.482,116.664,154.722,171.54,179.202,225.804z"/>
	</g>
</g>
<g>
</g>
<g>
</g>
<g>
</g>
<g>
</g>
<g>
</g>
<g>
</g>
<g>
</g>
<g>
</g>
<g>
</g>
<g>
</g>
<g>
</g>
<g>
</g>
<g>
</g>
<g>
</g>
<g>
</g>
</svg>
