<?xml version="1.0" encoding="iso-8859-1"?>
<!-- Generator: Adobe Illustrator 18.1.1, SVG Export Plug-In . SVG Version: 6.00 Build 0)  -->
<svg version="1.1" id="Capa_1" xmlns="http://www.w3.org/2000/svg" xmlns:xlink="http://www.w3.org/1999/xlink" x="0px" y="0px"
	 viewBox="0 0 591.396 591.396" style="enable-background:new 0 0 591.396 591.396;" xml:space="preserve">
<g>
	<g>
		<path d="M110.109,209.1c-2.856,0-5.1,2.244-5.1,5.1v163.2c0,2.856,2.244,5.1,5.1,5.1s5.1-2.244,5.1-5.1V214.2
			C115.209,211.344,112.965,209.1,110.109,209.1z"/>
		<path d="M428.349,0c-83.436,0-153.816,32.232-202.98,93.024c-13.056,16.116-24.276,33.864-33.66,52.836L77.061,184.212
			c-4.08,1.428-6.936,5.304-6.936,9.588v204c0,4.488,2.856,8.364,6.936,9.588l114.648,38.148
			c9.384,18.972,20.604,36.72,33.66,52.836c49.368,60.792,119.544,93.024,202.98,93.024c5.712,0,10.2-4.488,10.2-10.2V10.2
			C438.549,4.488,433.857,0,428.349,0z M90.525,390.456V201.144l90.168-29.988c-14.892,38.148-22.644,80.58-22.644,124.644
			s7.752,86.496,22.644,124.644L90.525,390.456z M418.149,570.996c-164.628-5.508-239.7-145.248-239.7-275.196
			c0-72.42,22.236-139.944,62.832-189.924c43.248-53.448,104.244-82.824,176.868-85.272V570.996z"/>
		<path d="M270.045,495.312c1.02,1.224,2.448,1.836,3.876,1.836c1.224,0,2.448-0.408,3.264-1.224c2.04-1.836,2.448-5.1,0.408-7.14
			c-44.268-50.796-68.544-119.34-68.544-192.78s24.276-141.984,68.544-192.78c1.836-2.04,1.632-5.304-0.408-7.14
			c-2.04-1.836-5.304-1.632-7.14,0.408c-45.696,52.632-70.992,123.624-70.992,199.512
			C199.053,371.688,224.145,442.68,270.045,495.312z"/>
		<path d="M498.321,188.7c-2.856-4.896-8.976-6.732-13.872-3.876c-4.896,2.856-6.732,8.976-3.876,13.872
			c27.132,48.348,27.336,146.268,0,194.004c-2.856,4.896-1.02,11.22,3.876,13.872c1.632,0.816,3.264,1.428,5.1,1.428
			c3.468,0,6.936-1.836,8.772-5.1C528.921,349.248,528.921,243.168,498.321,188.7z"/>
	</g>
</g>
<g>
</g>
<g>
</g>
<g>
</g>
<g>
</g>
<g>
</g>
<g>
</g>
<g>
</g>
<g>
</g>
<g>
</g>
<g>
</g>
<g>
</g>
<g>
</g>
<g>
</g>
<g>
</g>
<g>
</g>
</svg>
