<?xml version="1.0" encoding="iso-8859-1"?>
<!-- Generator: Adobe Illustrator 18.1.1, SVG Export Plug-In . SVG Version: 6.00 Build 0)  -->
<svg version="1.1" id="Capa_1" xmlns="http://www.w3.org/2000/svg" xmlns:xlink="http://www.w3.org/1999/xlink" x="0px" y="0px"
	 viewBox="0 0 591.396 591.396" style="enable-background:new 0 0 591.396 591.396;" xml:space="preserve">
<g>
	<g>
		<path d="M415.471,184.824c-4.896,2.856-6.732,8.976-3.876,13.872c27.132,48.348,27.336,146.268,0,194.004
			c-2.856,4.896-1.02,11.22,3.876,13.872c1.632,0.816,3.264,1.428,5.1,1.428c3.468,0,6.936-1.836,8.772-5.1
			c30.6-53.652,30.6-159.732,0-213.996C426.691,183.804,420.367,182.172,415.471,184.824z"/>
		<path d="M479.12,122.808c-5.508,1.428-8.772,6.936-7.344,12.444c28.56,111.384,28.56,210.528,0,321.3
			c-1.428,5.508,1.836,11.016,7.344,12.444c0.816,0.204,1.632,0.408,2.652,0.408c4.488,0,8.772-3.06,9.792-7.752
			c29.58-114.24,29.58-216.444,0-331.5C490.135,124.644,484.628,121.38,479.12,122.808z"/>
		<path d="M552.763,48.144c-1.632-5.508-7.14-8.568-12.648-6.936c-5.508,1.632-8.568,7.14-6.936,12.648
			c48.96,172.38,48.96,332.724,0,504.492c-1.632,5.508,1.632,11.016,6.936,12.648c1.02,0.204,1.836,0.408,2.856,0.408
			c4.488,0,8.568-2.856,9.792-7.344C602.743,388.212,602.743,224.4,552.763,48.144z"/>
		<path d="M40.928,209.1c-2.856,0-5.1,2.244-5.1,5.1v163.2c0,2.856,2.244,5.1,5.1,5.1s5.1-2.244,5.1-5.1V214.2
			C46.028,211.344,43.784,209.1,40.928,209.1z"/>
		<path d="M359.167,0c-83.436,0-153.612,32.232-202.98,93.024c-13.056,16.116-24.276,33.864-33.66,52.836L8.084,184.212
			c-4.08,1.428-6.936,5.304-6.936,9.588v204c0,4.488,2.856,8.364,6.936,9.588l114.648,38.148
			c9.384,18.972,20.604,36.72,33.66,52.836c49.368,60.792,119.544,93.024,202.98,93.024c5.712,0,10.2-4.488,10.2-10.2V10.2
			C369.367,4.488,364.879,0,359.167,0z M21.344,390.456V201.144l90.168-29.988c-14.688,38.148-22.644,80.58-22.644,124.644
			s7.752,86.496,22.644,124.644L21.344,390.456z M348.967,570.996c-164.424-5.508-239.7-145.248-239.7-275.196
			c0-72.42,22.236-139.944,62.832-189.924c43.248-53.448,104.244-82.824,176.868-85.272V570.996z"/>
		<path d="M200.864,495.312c1.02,1.224,2.448,1.836,3.876,1.836c1.224,0,2.448-0.408,3.264-1.224c2.04-1.836,2.448-5.1,0.408-7.14
			c-43.86-51-68.34-119.544-68.34-192.984s24.276-141.984,68.544-192.78c1.836-2.04,1.632-5.304-0.408-7.14
			c-2.04-1.836-5.304-1.632-7.14,0.408c-45.9,52.632-71.196,123.624-71.196,199.512S155.168,442.68,200.864,495.312z"/>
	</g>
</g>
<g>
</g>
<g>
</g>
<g>
</g>
<g>
</g>
<g>
</g>
<g>
</g>
<g>
</g>
<g>
</g>
<g>
</g>
<g>
</g>
<g>
</g>
<g>
</g>
<g>
</g>
<g>
</g>
<g>
</g>
</svg>
