<?xml version="1.0" encoding="iso-8859-1"?>
<!-- Generator: Adobe Illustrator 18.1.1, SVG Export Plug-In . SVG Version: 6.00 Build 0)  -->
<svg version="1.1" id="Capa_1" xmlns="http://www.w3.org/2000/svg" xmlns:xlink="http://www.w3.org/1999/xlink" x="0px" y="0px"
	 viewBox="0 0 612 612" style="enable-background:new 0 0 612 612;" xml:space="preserve">
<path d="M263.793,0H31.655C14.139,0,0,14.14,0,31.656v232.138c0,17.516,14.139,31.655,31.655,31.655h232.138
	c17.516,0,31.655-14.351,31.655-31.655V31.656C295.448,14.14,281.309,0,263.793,0z M274.345,263.794
	c0,5.909-4.643,10.552-10.552,10.552H31.655c-5.909,0-10.552-4.643-10.552-10.552V31.656c0-5.909,4.643-10.552,10.552-10.552
	h232.138c5.909,0,10.552,4.643,10.552,10.552V263.794z M580.345,0H348.207c-17.516,0-31.655,14.139-31.655,31.655v232.138
	c0,17.516,14.139,31.655,31.655,31.655h232.138c17.516,0,31.655-14.351,31.655-31.655V31.656C612,14.14,597.861,0,580.345,0z
	 M590.896,263.794c0,5.909-4.643,10.552-10.552,10.552H348.207c-5.909,0-10.552-4.643-10.552-10.552V31.656
	c0-5.909,4.643-10.552,10.552-10.552h232.138c5.909,0,10.552,4.643,10.552,10.552L590.896,263.794L590.896,263.794z
	 M263.793,316.552H31.655C14.139,316.552,0,330.691,0,348.207v232.138C0,597.861,14.139,612,31.655,612h232.138
	c17.516,0,31.655-14.351,31.655-31.655V348.207C295.448,330.691,281.309,316.552,263.793,316.552z M274.345,580.345
	c0,5.909-4.643,10.552-10.552,10.552H31.655c-5.909,0-10.552-4.643-10.552-10.552V348.207c0-5.909,4.643-10.552,10.552-10.552l0,0
	h232.138c5.909,0,10.552,4.643,10.552,10.552V580.345z M580.345,316.552H348.207c-17.516,0-31.655,14.139-31.655,31.655v232.138
	c0,17.516,14.139,31.655,31.655,31.655h232.138C597.861,612,612,597.649,612,580.345V348.207
	C612,330.691,597.861,316.552,580.345,316.552z M590.896,580.345c0,5.909-4.643,10.552-10.552,10.552H348.207
	c-5.909,0-10.552-4.643-10.552-10.552V348.207c0-5.909,4.643-10.552,10.552-10.552l0,0h232.138c5.909,0,10.552,4.643,10.552,10.552
	L590.896,580.345L590.896,580.345z M121.345,52.759c0,2.954-2.321,5.276-5.276,5.276H58.034v58.034c0,2.742-2.321,5.276-5.276,5.276
	c-2.954,0-5.276-2.321-5.276-5.276v-63.31c0-2.954,2.321-5.276,5.276-5.276h63.31C119.023,47.483,121.345,49.805,121.345,52.759z
	 M437.896,52.759c0,2.954-2.321,5.276-5.276,5.276h-58.034v58.034c0,2.742-2.321,5.276-5.276,5.276
	c-2.954,0-5.276-2.321-5.276-5.276v-63.31c0-2.954,2.321-5.276,5.276-5.276h63.31C435.575,47.483,437.896,49.805,437.896,52.759z
	 M121.345,369.311c0,2.954-2.321,5.276-5.276,5.276H58.034v58.034c0,2.742-2.321,5.276-5.276,5.276
	c-2.954,0-5.276-2.321-5.276-5.276v-63.31c0-2.954,2.321-5.276,5.276-5.276h63.31C119.023,364.035,121.345,366.356,121.345,369.311z
	 M437.896,369.311c0,2.954-2.321,5.276-5.276,5.276h-58.034v58.034c0,2.742-2.321,5.276-5.276,5.276
	c-2.954,0-5.276-2.321-5.276-5.276v-63.31c0-2.954,2.321-5.276,5.276-5.276h63.31C435.575,364.035,437.896,366.356,437.896,369.311z
	"/>
<g>
</g>
<g>
</g>
<g>
</g>
<g>
</g>
<g>
</g>
<g>
</g>
<g>
</g>
<g>
</g>
<g>
</g>
<g>
</g>
<g>
</g>
<g>
</g>
<g>
</g>
<g>
</g>
<g>
</g>
</svg>
