<?xml version="1.0" encoding="iso-8859-1"?>
<!-- Generator: Adobe Illustrator 18.1.1, SVG Export Plug-In . SVG Version: 6.00 Build 0)  -->
<svg version="1.1" id="Capa_1" xmlns="http://www.w3.org/2000/svg" xmlns:xlink="http://www.w3.org/1999/xlink" x="0px" y="0px"
	 viewBox="0 0 591.6 591.6" style="enable-background:new 0 0 591.6 591.6;" xml:space="preserve">
<g>
	<g>
		<path d="M479.4,0H112.2c-28.152,0-51,22.848-51,51v489.6c0,28.152,22.848,51,51,51h367.2c28.152,0,51-22.848,51-51V51
			C530.4,22.848,507.552,0,479.4,0z M112.2,20.4h367.2c16.932,0,30.6,13.668,30.6,30.6v402.9H81.6V51
			C81.6,34.068,95.268,20.4,112.2,20.4z M479.4,571.2H112.2c-16.932,0-30.6-13.668-30.6-30.6v-76.5H510v76.5
			C510,557.532,496.332,571.2,479.4,571.2z"/>
		<circle cx="295.8" cy="520.2" r="20.4"/>
		<path d="M112.2,178.5c2.856,0,5.1-2.244,5.1-5.1V56.1h76.5c2.856,0,5.1-2.244,5.1-5.1s-2.244-5.1-5.1-5.1h-81.6
			c-2.856,0-5.1,2.244-5.1,5.1v122.4C107.1,176.256,109.344,178.5,112.2,178.5z"/>
	</g>
</g>
<g>
</g>
<g>
</g>
<g>
</g>
<g>
</g>
<g>
</g>
<g>
</g>
<g>
</g>
<g>
</g>
<g>
</g>
<g>
</g>
<g>
</g>
<g>
</g>
<g>
</g>
<g>
</g>
<g>
</g>
</svg>
