<?xml version="1.0" encoding="iso-8859-1"?>
<!-- Generator: Adobe Illustrator 18.1.1, SVG Export Plug-In . SVG Version: 6.00 Build 0)  -->
<svg version="1.1" id="Capa_1" xmlns="http://www.w3.org/2000/svg" xmlns:xlink="http://www.w3.org/1999/xlink" x="0px" y="0px"
	 viewBox="0 0 571.2 571.2" style="enable-background:new 0 0 571.2 571.2;" xml:space="preserve">
<g>
	<g>
		<path d="M45.9,290.7c2.856,0,5.1-2.244,5.1-5.1c0-14.076,11.424-25.5,25.5-25.5c2.856,0,5.1-2.244,5.1-5.1s-2.244-5.1-5.1-5.1
			c-19.584,0-35.7,16.116-35.7,35.7C40.8,288.456,43.044,290.7,45.9,290.7z"/>
		<path d="M76.5,357h244.8c39.372,0,71.4-32.028,71.4-71.4s-32.028-71.4-71.4-71.4H76.5c-39.372,0-71.4,32.028-71.4,71.4
			S37.128,357,76.5,357z M76.5,234.6h244.8c28.152,0,51,22.848,51,51s-22.848,51-51,51H76.5c-28.152,0-51-22.848-51-51
			S48.348,234.6,76.5,234.6z"/>
		<path d="M45.9,76.5c2.856,0,5.1-2.244,5.1-5.1c0-14.076,11.424-25.5,25.5-25.5c2.856,0,5.1-2.244,5.1-5.1s-2.244-5.1-5.1-5.1
			c-19.584,0-35.7,16.116-35.7,35.7C40.8,74.256,43.044,76.5,45.9,76.5z"/>
		<path d="M76.5,142.8h418.2c39.372,0,71.4-32.028,71.4-71.4S534.072,0,494.7,0H76.5C37.128,0,5.1,32.028,5.1,71.4
			S37.128,142.8,76.5,142.8z M76.5,20.4h418.2c28.152,0,51,22.848,51,51s-22.848,51-51,51H76.5c-28.152,0-51-22.848-51-51
			S48.348,20.4,76.5,20.4z"/>
		<path d="M494.7,107.1c19.584,0,35.7-16.116,35.7-35.7c0-2.856-2.244-5.1-5.1-5.1c-2.856,0-5.1,2.244-5.1,5.1
			c0,14.076-11.424,25.5-25.5,25.5c-2.856,0-5.1,2.244-5.1,5.1S491.844,107.1,494.7,107.1z"/>
		<path d="M76.5,464.1c-19.584,0-35.7,16.116-35.7,35.7c0,2.856,2.244,5.1,5.1,5.1c2.856,0,5.1-2.244,5.1-5.1
			c0-14.076,11.424-25.5,25.5-25.5c2.856,0,5.1-2.244,5.1-5.1S79.356,464.1,76.5,464.1z"/>
		<path d="M494.7,428.4H76.5c-39.372,0-71.4,32.028-71.4,71.4c0,39.372,32.028,71.4,71.4,71.4h418.2c39.372,0,71.4-32.028,71.4-71.4
			S534.072,428.4,494.7,428.4z M494.7,550.8H76.5c-28.152,0-51-22.848-51-51s22.848-51,51-51h418.2c28.152,0,51,22.848,51,51
			C545.7,527.952,522.852,550.8,494.7,550.8z"/>
		<path d="M525.3,494.7c-2.856,0-5.1,2.244-5.1,5.1c0,14.076-11.424,25.5-25.5,25.5c-2.856,0-5.1,2.244-5.1,5.1
			c0,2.856,2.244,5.1,5.1,5.1c19.584,0,35.7-16.116,35.7-35.7C530.4,496.944,528.156,494.7,525.3,494.7z"/>
	</g>
</g>
<g>
</g>
<g>
</g>
<g>
</g>
<g>
</g>
<g>
</g>
<g>
</g>
<g>
</g>
<g>
</g>
<g>
</g>
<g>
</g>
<g>
</g>
<g>
</g>
<g>
</g>
<g>
</g>
<g>
</g>
</svg>
