<?xml version="1.0" encoding="iso-8859-1"?>
<!-- Generator: Adobe Illustrator 18.1.1, SVG Export Plug-In . SVG Version: 6.00 Build 0)  -->
<svg version="1.1" id="Capa_1" xmlns="http://www.w3.org/2000/svg" xmlns:xlink="http://www.w3.org/1999/xlink" x="0px" y="0px"
	 viewBox="0 0 612 612" style="enable-background:new 0 0 612 612;" xml:space="preserve">
<path d="M611.899,240.363c0-3.005-1.156-6.009-3.467-8.089L379.626,3.467c-4.622-4.622-11.787-4.622-16.409,0l-89.905,89.905
	l-8.089-8.089c-10.862-10.863-25.423-16.872-40.908-16.872s-29.814,6.009-40.908,16.872l-163.4,163.4
	c-2.08,2.08-3.236,4.622-3.467,7.396L0.13,501.294c-0.231,3.236,0.924,6.471,3.467,9.014l40.908,40.908l-24.498,24.498
	c-4.622,4.622-4.622,11.787,0,16.409c2.311,2.311,5.316,3.467,8.089,3.467s6.009-1.156,8.089-3.467l24.498-24.498l40.908,40.908
	c2.08,2.08,5.085,3.467,8.089,3.467c0.231,0,0.462,0,0.693,0l245.216-16.409c2.773-0.231,5.316-1.387,7.396-3.467l163.4-163.4
	c0.693-0.693,1.156-1.387,1.849-2.311c18.489-30.97,17.796-59.86-1.849-79.505l-8.089-8.089l89.905-89.905
	C610.744,246.372,611.899,243.367,611.899,240.363z M509.283,413.008l-159.24,159.24l-235.509,15.716l-37.21-36.979l24.498-24.499
	c4.622-4.622,4.622-11.787,0-16.409s-11.787-4.622-16.409,0l-24.499,24.498l-37.21-37.21l15.947-235.509l160.165-160.396
	c6.471-6.471,15.254-10.169,24.498-10.169s18.027,3.698,24.498,10.169l16.409,16.409l245.216,245.216
	C525.692,378.34,516.679,400.527,509.283,413.008z M502.349,322.178L289.952,109.781l81.816-81.816l212.397,212.397L502.349,322.178
	z M355.068,125.939l32.685-32.685l49.026,49.026l-32.685,32.685L355.068,125.939z M485.988,256.678l-49.026-49.026l32.685-32.685
	l49.026,49.026L485.988,256.678z"/>
<g>
</g>
<g>
</g>
<g>
</g>
<g>
</g>
<g>
</g>
<g>
</g>
<g>
</g>
<g>
</g>
<g>
</g>
<g>
</g>
<g>
</g>
<g>
</g>
<g>
</g>
<g>
</g>
<g>
</g>
</svg>
