<?xml version="1.0" encoding="iso-8859-1"?>
<!-- Generator: Adobe Illustrator 18.1.1, SVG Export Plug-In . SVG Version: 6.00 Build 0)  -->
<svg version="1.1" id="Capa_1" xmlns="http://www.w3.org/2000/svg" xmlns:xlink="http://www.w3.org/1999/xlink" x="0px" y="0px"
	 viewBox="0 0 557.264 557.264" style="enable-background:new 0 0 557.264 557.264;" xml:space="preserve">
<g>
	<g>
		<path d="M278.632,319.432c-39.372,0-71.4,32.028-71.4,71.4s32.028,71.4,71.4,71.4s71.4-32.028,71.4-71.4
			S318.004,319.432,278.632,319.432z M278.632,441.832c-28.152,0-51-22.848-51-51s22.848-51,51-51s51,22.848,51,51
			S306.784,441.832,278.632,441.832z"/>
		<path d="M278.632,355.132c-19.584,0-35.7,16.116-35.7,35.7c0,2.856,2.244,5.1,5.1,5.1s5.1-2.244,5.1-5.1
			c0-14.076,11.424-25.5,25.5-25.5c2.856,0,5.1-2.244,5.1-5.1S281.488,355.132,278.632,355.132z"/>
		<path d="M278.632,212.128c-81.192,0-154.428,51.204-182.172,127.5c-1.836,5.304,0.816,11.22,6.12,13.056
			c5.304,1.836,11.22-0.816,13.056-6.12c24.888-68.34,90.372-114.036,162.996-114.036s138.108,45.9,162.996,114.036
			c1.428,4.08,5.508,6.732,9.588,6.732c1.224,0,2.244-0.204,3.468-0.612c5.304-1.836,7.956-7.752,6.12-13.056
			C433.06,263.536,359.824,212.128,278.632,212.128z"/>
		<path d="M556.684,289.648C514.252,173.164,402.46,95.032,278.632,95.032S43.012,173.164,0.58,289.648
			c-1.836,5.304,0.816,11.22,6.12,13.056c5.304,1.836,11.22-0.816,13.056-6.12C59.332,188.26,163.372,115.432,278.632,115.432
			s219.3,72.828,258.876,181.152c1.428,4.08,5.508,6.732,9.588,6.732c1.224,0,2.244-0.204,3.468-0.612
			C555.868,300.868,558.52,294.952,556.684,289.648z"/>
	</g>
</g>
<g>
</g>
<g>
</g>
<g>
</g>
<g>
</g>
<g>
</g>
<g>
</g>
<g>
</g>
<g>
</g>
<g>
</g>
<g>
</g>
<g>
</g>
<g>
</g>
<g>
</g>
<g>
</g>
<g>
</g>
</svg>
