<?xml version="1.0" encoding="iso-8859-1"?>
<!-- Generator: Adobe Illustrator 18.1.1, SVG Export Plug-In . SVG Version: 6.00 Build 0)  -->
<svg version="1.1" id="Capa_1" xmlns="http://www.w3.org/2000/svg" xmlns:xlink="http://www.w3.org/1999/xlink" x="0px" y="0px"
	 viewBox="0 0 591.804 591.804" style="enable-background:new 0 0 591.804 591.804;" xml:space="preserve">
<g>
	<g>
		<path d="M269.178,96.696c-2.856,0-5.1,2.244-5.1,5.1c0,2.856,2.244,5.1,5.1,5.1c107.712,0,195.228,87.516,195.228,195.228
			c0,2.856,2.244,5.1,5.1,5.1s5.1-2.244,5.1-5.1C474.606,188.904,382.398,96.696,269.178,96.696z"/>
		<path d="M281.826,484.5c-107.712,0-195.228-87.516-195.228-195.228c0-2.856-2.244-5.1-5.1-5.1s-5.1,2.244-5.1,5.1
			c0,113.22,92.208,205.428,205.428,205.428c2.856,0,5.1-2.244,5.1-5.1C286.926,486.744,284.682,484.5,281.826,484.5z"/>
		<path d="M354.858,201.96l-45.9,45.9c-9.384-6.528-21.012-10.608-33.252-10.608c-12.444,0-23.868,3.876-33.252,10.608
			l-75.072-74.664c-4.08-4.08-10.404-4.08-14.484,0s-4.08,10.404,0,14.484l74.868,74.868c-6.528,9.384-10.608,21.012-10.608,33.252
			c0,32.232,26.112,58.344,58.344,58.344s58.344-26.112,58.344-58.344c0-12.444-3.876-23.868-10.608-33.252l45.9-45.9
			c4.08-4.08,4.08-10.404,0-14.484C365.262,198.084,358.734,198.084,354.858,201.96z M275.502,333.54
			c-20.808,0-37.944-16.932-37.944-37.944c0-20.808,16.932-37.944,37.944-37.944c20.808,0,37.944,16.932,37.944,37.944
			C313.446,316.608,296.31,333.54,275.502,333.54z"/>
		<path d="M540.702,265.2c-5.712,0-10.2,4.488-10.2,10.2v10.2h-20.604c-2.856-67.524-34.476-127.5-82.62-168.504
			c1.428-2.652,1.632-5.712,0.612-8.568l-40.8-102C385.458,2.448,381.582,0,377.502,0h-204c-4.08,0-7.956,2.448-9.384,6.324
			l-40.8,102c-1.224,2.856-0.816,6.12,0.612,8.568C73.134,159.936,40.902,224.196,40.902,295.8s32.232,135.66,82.824,178.908
			c-1.428,2.652-1.836,5.712-0.612,8.772l40.8,102c1.632,3.876,5.304,6.324,9.384,6.324h204c4.08,0,7.956-2.448,9.384-6.324
			l40.8-102c1.224-3.06,0.816-6.12-0.612-8.772c48.348-41.004,79.764-101.184,82.62-168.708h21.012v10.2
			c0,5.712,4.488,10.2,10.2,10.2s10.2-4.488,10.2-10.2v-40.8C550.902,269.688,546.414,265.2,540.702,265.2z M180.438,20.4h190.128
			l31.008,77.724C365.262,74.664,322.014,61.2,275.502,61.2s-89.76,13.464-126.072,36.924L180.438,20.4z M370.566,571.2H180.438
			l-31.212-77.928c36.516,23.46,79.764,37.128,126.276,37.128s89.76-13.668,126.276-36.924L370.566,571.2z M275.502,510
			c-118.116,0-214.2-96.084-214.2-214.2s96.084-214.2,214.2-214.2s214.2,96.084,214.2,214.2S393.618,510,275.502,510z"/>
	</g>
</g>
<g>
</g>
<g>
</g>
<g>
</g>
<g>
</g>
<g>
</g>
<g>
</g>
<g>
</g>
<g>
</g>
<g>
</g>
<g>
</g>
<g>
</g>
<g>
</g>
<g>
</g>
<g>
</g>
<g>
</g>
</svg>
